<svg width="31" height="29" viewBox="0 0 31 29" fill="none" xmlns="http://www.w3.org/2000/svg" role="img" aria-labelledby="icon-calendar-title">
  <title id="icon-calendar-title">Calendar</title>
  <path fill-rule="evenodd" clip-rule="evenodd" d="M23 0C22.4477 0 22 0.447715 22 1V5H25V1C25 0.447715 24.5523 0 24 0H23ZM5 3V6H10V3H21V6H26V3H29C30.1046 3 31 3.89543 31 5V27C31 28.1046 30.1046 29 29 29H2C0.89543 29 0 28.1046 0 27V5C0 3.89543 0.89543 3 2 3H5ZM2 10V27H29V10H2ZM5 17H4V18V19V20H5H6H7V19V18V17H6H5ZM4 22H5H6H7V23V24V25H6H5H4V24V23V22ZM9 12H10H11H12V13V14V15H11H10H9V14V13V12ZM7 0C6.44772 0 6 0.447715 6 1V5H9V1C9 0.447715 8.55228 0 8 0H7ZM9 17H10H11H12V18V19V20H11H10H9V19V18V17ZM10 22H9V23V24V25H10H11H12V24V23V22H11H10ZM14 12H15H16H17V13V14V15H16H15H14V14V13V12ZM15 17H14V18V19V20H15H16H17V19V18V17H16H15ZM14 22H15H16H17V23V24V25H16H15H14V24V23V22ZM20 12H19V13V14V15H20H21H22V14V13V12H21H20ZM19 17H20H21H22V18V19V20H21H20H19V19V18V17ZM20 22H19V23V24V25H20H21H22V24V23V22H21H20ZM24 12H25H26H27V13V14V15H26H25H24V14V13V12ZM25 17H24V18V19V20H25H26H27V19V18V17H26H25ZM24 22H25H26H27V23V24V25H26H25H24V24V23V22Z" fill="#333333"/>
</svg>
