<svg width="20" height="20" viewBox="0 0 20 20" fill="none" xmlns="http://www.w3.org/2000/svg" role="img" aria-labelledby="icon-disallowed-title">
  <title id="icon-disallowed-title">Disallowed</title>
  <path fill-rule="evenodd" clip-rule="evenodd" d="M3.6798 14.906L14.906 3.6798C11.7676 1.23731 7.22787 1.45842 4.34315 4.34315C1.45842 7.22787 1.23731 11.7676 3.6798 14.906ZM16.3202 5.09402L5.09402 16.3202C8.23245 18.7627 12.7721 18.5416 15.6569 15.6569C18.5416 12.7721 18.7627 8.23245 16.3202 5.09402ZM2.92893 17.0711C-0.976311 13.1658 -0.976311 6.83418 2.92893 2.92893C6.83418 -0.976311 13.1658 -0.976311 17.0711 2.92893C20.9763 6.83418 20.9763 13.1658 17.0711 17.0711C13.1658 20.9763 6.83418 20.9763 2.92893 17.0711Z" fill="#5D5D5D"/>
</svg>
