<svg width="136" height="70" viewBox="0 0 136 70" fill="none" xmlns="http://www.w3.org/2000/svg" role="img" aria-labelledby="icon-dollar-title">
  <title id="icon-dollar-title">Dollar zooming away</title>
  <mask id="path-1-outside-1" maskUnits="userSpaceOnUse" x="-0.199219" y="0.399902" width="136" height="69" fill="black">
    <rect fill="white" x="-0.199219" y="0.399902" width="136" height="69"/>
    <path fill-rule="evenodd" clip-rule="evenodd" d="M119.87 4.1999C120.527 10.8141 125.787 16.0741 132.401 16.7308V53.2699C125.787 53.9266 120.527 59.1861 119.87 65.7999H54.166C53.2067 65.7999 52.3298 66.3419 51.9008 67.1999C51.8336 67.3342 51.7986 67.4823 51.7986 67.6325C51.7986 68.1668 52.2317 68.5999 52.766 68.5999H129.601C132.694 68.5999 135.201 66.0927 135.201 62.9999V6.9999C135.201 3.90711 132.694 1.3999 129.601 1.3999H86.366C85.4067 1.3999 84.5298 1.94189 84.1008 2.7999C84.0336 2.93423 83.9986 3.08235 83.9986 3.23253C83.9986 3.76679 84.4317 4.1999 84.966 4.1999H119.87ZM119.87 65.7999C119.87 65.8002 119.87 65.8005 119.87 65.8008H129.601C130.965 65.8008 132.101 64.8257 132.35 63.5347C132.1 64.8253 130.964 65.7999 129.601 65.7999H119.87ZM70.8008 1.3999H21.8008C21.0276 1.3999 20.4008 2.0267 20.4008 2.7999C20.4008 3.5731 21.0276 4.19991 21.8008 4.19991H70.8008C71.574 4.19991 72.2008 3.5731 72.2008 2.7999C72.2008 2.0267 71.574 1.3999 70.8008 1.3999ZM38.6008 65.7999H9.20078C8.42758 65.7999 7.80078 66.4267 7.80078 67.1999C7.80078 67.9731 8.42758 68.5999 9.20078 68.5999H38.6008C39.374 68.5999 40.0008 67.9731 40.0008 67.1999C40.0008 66.4267 39.374 65.7999 38.6008 65.7999ZM49.8008 44.7999H24.6008C23.8276 44.7999 23.2008 45.4267 23.2008 46.1999C23.2008 46.9731 23.8276 47.5999 24.6008 47.5999H49.8008C50.574 47.5999 51.2008 46.9731 51.2008 46.1999C51.2008 45.4267 50.574 44.7999 49.8008 44.7999ZM61.0008 22.3999H2.20078C1.42758 22.3999 0.800781 23.0267 0.800781 23.7999C0.800781 24.5731 1.42758 25.1999 2.20078 25.1999H61.0008C61.774 25.1999 62.4008 24.5731 62.4008 23.7999C62.4008 23.0267 61.774 22.3999 61.0008 22.3999ZM70.8008 34.9999C70.8008 47.3711 78.3224 57.3999 87.6008 57.3999C96.8792 57.3999 104.401 47.3711 104.401 34.9999C104.401 22.6287 96.8792 12.5999 87.6008 12.5999C78.3224 12.5999 70.8008 22.6287 70.8008 34.9999ZM73.6008 34.9999C73.6008 45.8247 79.8688 54.5999 87.6008 54.5999C95.3328 54.5999 101.601 45.8247 101.601 34.9999C101.601 24.1751 95.3328 15.3999 87.6008 15.3999C79.8688 15.3999 73.6008 24.1751 73.6008 34.9999ZM89.0162 21.8399V23.9243C90.2118 24.111 91.2653 24.5155 92.1767 25.1377C93.0881 25.7599 93.7888 26.4651 94.2788 27.2532C94.7688 28.0414 95.0334 28.7673 95.0726 29.431C95.0922 29.6177 95.0334 29.7784 94.8962 29.9132C94.759 30.0481 94.6022 30.1155 94.4258 30.1155H93.2204C92.9852 30.1155 92.8088 30.0688 92.6912 29.9755C92.5736 29.8821 92.4462 29.7006 92.309 29.431C91.9954 28.788 91.4515 28.1555 90.6773 27.5332C89.9031 26.911 88.879 26.5999 87.605 26.5999C86.429 26.5999 85.4343 26.8799 84.6209 27.4399C83.8075 27.9999 83.4008 28.7984 83.4008 29.8355C83.4008 30.5406 83.6017 31.1162 84.0035 31.5621C84.4053 32.0081 85.0129 32.3918 85.8263 32.7132C86.6397 33.0347 87.8696 33.4236 89.516 33.8799C91.7504 34.5021 93.3331 35.2643 94.2641 36.1666C95.1951 37.0688 95.6606 38.2977 95.6606 39.8532C95.6606 41.554 95.0579 42.9747 93.8525 44.1155C92.6471 45.2562 91.035 45.9303 89.0162 46.1377V48.1599C89.0162 48.3881 88.9378 48.5851 88.781 48.751C88.6242 48.9169 88.438 48.9999 88.2224 48.9999H87.017C86.8014 48.9999 86.6152 48.9169 86.4584 48.751C86.3016 48.5851 86.2232 48.3881 86.2232 48.1599V46.0755C85.0276 45.8888 83.9496 45.4947 82.9892 44.8932C82.0288 44.2918 81.2742 43.5918 80.7254 42.7932C80.1766 41.9947 79.8924 41.2014 79.8728 40.4132C79.8728 40.2266 79.9365 40.0658 80.0639 39.931C80.1913 39.7962 80.3432 39.7288 80.5196 39.7288H81.725C81.9406 39.7288 82.117 39.7755 82.2542 39.8688C82.3914 39.9621 82.5188 40.1436 82.6364 40.4132C82.95 41.1599 83.5233 41.8443 84.3563 42.4666C85.1893 43.0888 86.3212 43.3999 87.752 43.3999C89.1828 43.3999 90.3931 43.0732 91.3829 42.4199C92.3727 41.7666 92.8676 40.911 92.8676 39.8532C92.8676 39.1688 92.6079 38.5932 92.0885 38.1266C91.5691 37.6599 90.8586 37.2658 89.957 36.9444C89.0554 36.6229 87.7324 36.2236 85.988 35.7466C84.0868 35.2281 82.7148 34.4762 81.872 33.491C81.0292 32.5058 80.6078 31.2873 80.6078 29.8355C80.6078 28.8814 80.8185 27.9844 81.2399 27.1443C81.6613 26.3043 82.2934 25.594 83.1362 25.0132C83.979 24.4325 85.008 24.0592 86.2232 23.8932V21.8399C86.2232 21.6118 86.3016 21.4147 86.4584 21.2488C86.6152 21.0829 86.8014 20.9999 87.017 20.9999H88.2224C88.438 20.9999 88.6242 21.0829 88.781 21.2488C88.9378 21.4147 89.0162 21.6118 89.0162 21.8399ZM132.398 13.9133C127.332 13.2815 123.317 9.26611 122.685 4.19991H129.598C131.145 4.19991 132.398 5.45351 132.398 6.99991V13.9133ZM132.398 56.0839V62.9973C132.398 64.5437 131.145 65.7973 129.598 65.7973H122.685C123.317 60.731 127.332 56.7157 132.398 56.0839Z"/>
  </mask>
  <path fill-rule="evenodd" clip-rule="evenodd" d="M119.87 4.1999C120.527 10.8141 125.787 16.0741 132.401 16.7308V53.2699C125.787 53.9266 120.527 59.1861 119.87 65.7999H54.166C53.2067 65.7999 52.3298 66.3419 51.9008 67.1999C51.8336 67.3342 51.7986 67.4823 51.7986 67.6325C51.7986 68.1668 52.2317 68.5999 52.766 68.5999H129.601C132.694 68.5999 135.201 66.0927 135.201 62.9999V6.9999C135.201 3.90711 132.694 1.3999 129.601 1.3999H86.366C85.4067 1.3999 84.5298 1.94189 84.1008 2.7999C84.0336 2.93423 83.9986 3.08235 83.9986 3.23253C83.9986 3.76679 84.4317 4.1999 84.966 4.1999H119.87ZM119.87 65.7999C119.87 65.8002 119.87 65.8005 119.87 65.8008H129.601C130.965 65.8008 132.101 64.8257 132.35 63.5347C132.1 64.8253 130.964 65.7999 129.601 65.7999H119.87ZM70.8008 1.3999H21.8008C21.0276 1.3999 20.4008 2.0267 20.4008 2.7999C20.4008 3.5731 21.0276 4.19991 21.8008 4.19991H70.8008C71.574 4.19991 72.2008 3.5731 72.2008 2.7999C72.2008 2.0267 71.574 1.3999 70.8008 1.3999ZM38.6008 65.7999H9.20078C8.42758 65.7999 7.80078 66.4267 7.80078 67.1999C7.80078 67.9731 8.42758 68.5999 9.20078 68.5999H38.6008C39.374 68.5999 40.0008 67.9731 40.0008 67.1999C40.0008 66.4267 39.374 65.7999 38.6008 65.7999ZM49.8008 44.7999H24.6008C23.8276 44.7999 23.2008 45.4267 23.2008 46.1999C23.2008 46.9731 23.8276 47.5999 24.6008 47.5999H49.8008C50.574 47.5999 51.2008 46.9731 51.2008 46.1999C51.2008 45.4267 50.574 44.7999 49.8008 44.7999ZM61.0008 22.3999H2.20078C1.42758 22.3999 0.800781 23.0267 0.800781 23.7999C0.800781 24.5731 1.42758 25.1999 2.20078 25.1999H61.0008C61.774 25.1999 62.4008 24.5731 62.4008 23.7999C62.4008 23.0267 61.774 22.3999 61.0008 22.3999ZM70.8008 34.9999C70.8008 47.3711 78.3224 57.3999 87.6008 57.3999C96.8792 57.3999 104.401 47.3711 104.401 34.9999C104.401 22.6287 96.8792 12.5999 87.6008 12.5999C78.3224 12.5999 70.8008 22.6287 70.8008 34.9999ZM73.6008 34.9999C73.6008 45.8247 79.8688 54.5999 87.6008 54.5999C95.3328 54.5999 101.601 45.8247 101.601 34.9999C101.601 24.1751 95.3328 15.3999 87.6008 15.3999C79.8688 15.3999 73.6008 24.1751 73.6008 34.9999ZM89.0162 21.8399V23.9243C90.2118 24.111 91.2653 24.5155 92.1767 25.1377C93.0881 25.7599 93.7888 26.4651 94.2788 27.2532C94.7688 28.0414 95.0334 28.7673 95.0726 29.431C95.0922 29.6177 95.0334 29.7784 94.8962 29.9132C94.759 30.0481 94.6022 30.1155 94.4258 30.1155H93.2204C92.9852 30.1155 92.8088 30.0688 92.6912 29.9755C92.5736 29.8821 92.4462 29.7006 92.309 29.431C91.9954 28.788 91.4515 28.1555 90.6773 27.5332C89.9031 26.911 88.879 26.5999 87.605 26.5999C86.429 26.5999 85.4343 26.8799 84.6209 27.4399C83.8075 27.9999 83.4008 28.7984 83.4008 29.8355C83.4008 30.5406 83.6017 31.1162 84.0035 31.5621C84.4053 32.0081 85.0129 32.3918 85.8263 32.7132C86.6397 33.0347 87.8696 33.4236 89.516 33.8799C91.7504 34.5021 93.3331 35.2643 94.2641 36.1666C95.1951 37.0688 95.6606 38.2977 95.6606 39.8532C95.6606 41.554 95.0579 42.9747 93.8525 44.1155C92.6471 45.2562 91.035 45.9303 89.0162 46.1377V48.1599C89.0162 48.3881 88.9378 48.5851 88.781 48.751C88.6242 48.9169 88.438 48.9999 88.2224 48.9999H87.017C86.8014 48.9999 86.6152 48.9169 86.4584 48.751C86.3016 48.5851 86.2232 48.3881 86.2232 48.1599V46.0755C85.0276 45.8888 83.9496 45.4947 82.9892 44.8932C82.0288 44.2918 81.2742 43.5918 80.7254 42.7932C80.1766 41.9947 79.8924 41.2014 79.8728 40.4132C79.8728 40.2266 79.9365 40.0658 80.0639 39.931C80.1913 39.7962 80.3432 39.7288 80.5196 39.7288H81.725C81.9406 39.7288 82.117 39.7755 82.2542 39.8688C82.3914 39.9621 82.5188 40.1436 82.6364 40.4132C82.95 41.1599 83.5233 41.8443 84.3563 42.4666C85.1893 43.0888 86.3212 43.3999 87.752 43.3999C89.1828 43.3999 90.3931 43.0732 91.3829 42.4199C92.3727 41.7666 92.8676 40.911 92.8676 39.8532C92.8676 39.1688 92.6079 38.5932 92.0885 38.1266C91.5691 37.6599 90.8586 37.2658 89.957 36.9444C89.0554 36.6229 87.7324 36.2236 85.988 35.7466C84.0868 35.2281 82.7148 34.4762 81.872 33.491C81.0292 32.5058 80.6078 31.2873 80.6078 29.8355C80.6078 28.8814 80.8185 27.9844 81.2399 27.1443C81.6613 26.3043 82.2934 25.594 83.1362 25.0132C83.979 24.4325 85.008 24.0592 86.2232 23.8932V21.8399C86.2232 21.6118 86.3016 21.4147 86.4584 21.2488C86.6152 21.0829 86.8014 20.9999 87.017 20.9999H88.2224C88.438 20.9999 88.6242 21.0829 88.781 21.2488C88.9378 21.4147 89.0162 21.6118 89.0162 21.8399ZM132.398 13.9133C127.332 13.2815 123.317 9.26611 122.685 4.19991H129.598C131.145 4.19991 132.398 5.45351 132.398 6.99991V13.9133ZM132.398 56.0839V62.9973C132.398 64.5437 131.145 65.7973 129.598 65.7973H122.685C123.317 60.731 127.332 56.7157 132.398 56.0839Z" fill="white"/>
  <path d="M132.401 16.7308H132.901C132.901 16.4738 132.706 16.2586 132.45 16.2332L132.401 16.7308ZM119.87 4.1999L120.367 4.1505C120.342 3.89475 120.127 3.6999 119.87 3.6999V4.1999ZM132.401 53.2699L132.45 53.7675C132.706 53.7421 132.901 53.5269 132.901 53.2699H132.401ZM51.9008 67.1999L51.4535 66.9763L51.4535 66.9763L51.9008 67.1999ZM84.1008 2.7999L83.6535 2.57629V2.5763L84.1008 2.7999ZM119.87 65.8008L119.373 65.7484C119.358 65.8894 119.403 66.03 119.498 66.1353C119.593 66.2406 119.728 66.3008 119.87 66.3008V65.8008ZM132.35 63.5347L132.841 63.6295C132.893 63.3584 132.716 63.0962 132.445 63.0438C132.174 62.9914 131.911 63.1687 131.859 63.4398L132.35 63.5347ZM89.0162 23.9243H88.5162C88.5162 24.1707 88.6956 24.3804 88.939 24.4184L89.0162 23.9243ZM92.1767 25.1377L91.8947 25.5506V25.5506L92.1767 25.1377ZM94.2788 27.2532L94.7034 26.9892L94.7034 26.9892L94.2788 27.2532ZM95.0726 29.431L94.5734 29.4605C94.5739 29.4681 94.5745 29.4757 94.5753 29.4832L95.0726 29.431ZM94.8962 29.9132L95.2466 30.2699L95.2466 30.2699L94.8962 29.9132ZM92.309 29.431L91.8595 29.6502L91.8633 29.6578L92.309 29.431ZM90.6773 27.5332L90.364 27.923V27.923L90.6773 27.5332ZM84.6209 27.4399L84.9044 27.8517L84.9044 27.8517L84.6209 27.4399ZM84.0035 31.5621L84.3749 31.2274L84.0035 31.5621ZM85.8263 32.7132L86.0101 32.2482L85.8263 32.7132ZM89.516 33.8799L89.6501 33.3982L89.6495 33.3981L89.516 33.8799ZM94.2641 36.1666L94.612 35.8075L94.2641 36.1666ZM89.0162 46.1377L88.9651 45.6403C88.7101 45.6665 88.5162 45.8813 88.5162 46.1377H89.0162ZM86.4584 48.751L86.8218 48.4076L86.8218 48.4076L86.4584 48.751ZM86.2232 46.0755H86.7232C86.7232 45.8291 86.5437 45.6194 86.3003 45.5814L86.2232 46.0755ZM82.9892 44.8932L83.2546 44.4695L82.9892 44.8932ZM80.7254 42.7932L81.1374 42.51L80.7254 42.7932ZM79.8728 40.4132H79.3726L79.3729 40.4257L79.8728 40.4132ZM82.6364 40.4132L83.0974 40.2196L83.0947 40.2133L82.6364 40.4132ZM84.3563 42.4666L84.057 42.8672L84.0571 42.8672L84.3563 42.4666ZM91.3829 42.4199L91.1074 42.0026L91.1074 42.0026L91.3829 42.4199ZM92.0885 38.1266L91.7543 38.4985L92.0885 38.1266ZM89.957 36.9444L89.789 37.4153L89.789 37.4153L89.957 36.9444ZM85.988 35.7466L86.1199 35.2643L86.1195 35.2642L85.988 35.7466ZM81.872 33.491L81.492 33.816L81.872 33.491ZM81.2399 27.1443L80.793 26.9201V26.9201L81.2399 27.1443ZM86.2232 23.8932L86.2908 24.3886C86.5385 24.3548 86.7232 24.1432 86.7232 23.8932H86.2232ZM86.4584 21.2488L86.8218 21.5922V21.5922L86.4584 21.2488ZM88.781 21.2488L89.1444 20.9054L89.1444 20.9054L88.781 21.2488ZM122.685 4.19991V3.69991C122.541 3.69991 122.405 3.76147 122.31 3.86895C122.215 3.97643 122.171 4.11949 122.189 4.26178L122.685 4.19991ZM132.398 13.9133L132.336 14.4094C132.479 14.4272 132.622 14.383 132.729 14.288C132.837 14.1931 132.898 14.0566 132.898 13.9133H132.398ZM132.398 56.0839H132.898C132.898 55.9405 132.837 55.804 132.729 55.7091C132.622 55.6142 132.479 55.57 132.336 55.5877L132.398 56.0839ZM122.685 65.7973L122.189 65.7354C122.171 65.8777 122.215 66.0207 122.31 66.1282C122.405 66.2357 122.541 66.2973 122.685 66.2973V65.7973ZM132.45 16.2332C126.073 15.6001 121.001 10.5276 120.367 4.1505L119.372 4.2493C120.053 11.1006 125.5 16.5481 132.351 17.2283L132.45 16.2332ZM132.901 53.2699V16.7308H131.901V53.2699H132.901ZM120.368 65.8493C121.001 59.4726 126.073 54.4006 132.45 53.7675L132.351 52.7723C125.5 53.4525 120.053 58.8996 119.372 65.7505L120.368 65.8493ZM54.166 66.2999H119.87V65.2999H54.166V66.2999ZM52.348 67.4235C52.6923 66.7349 53.3961 66.2999 54.166 66.2999V65.2999C53.0173 65.2999 51.9673 65.9489 51.4535 66.9763L52.348 67.4235ZM52.2986 67.6325C52.2986 67.56 52.3155 67.4884 52.348 67.4235L51.4535 66.9763C51.3517 67.1801 51.2986 67.4047 51.2986 67.6325H52.2986ZM52.766 68.0999C52.5079 68.0999 52.2986 67.8906 52.2986 67.6325H51.2986C51.2986 68.4429 51.9556 69.0999 52.766 69.0999V68.0999ZM129.601 68.0999H52.766V69.0999H129.601V68.0999ZM134.701 62.9999C134.701 65.8166 132.417 68.0999 129.601 68.0999V69.0999C132.97 69.0999 135.701 66.3688 135.701 62.9999H134.701ZM134.701 6.9999V62.9999H135.701V6.9999H134.701ZM129.601 1.8999C132.417 1.8999 134.701 4.18325 134.701 6.9999H135.701C135.701 3.63097 132.97 0.899902 129.601 0.899902V1.8999ZM86.366 1.8999H129.601V0.899902H86.366V1.8999ZM84.548 3.02351C84.8923 2.33489 85.5961 1.8999 86.366 1.8999V0.899902C85.2173 0.899902 84.1673 1.54889 83.6535 2.57629L84.548 3.02351ZM84.4986 3.23253C84.4986 3.15997 84.5155 3.0884 84.548 3.02351L83.6535 2.5763C83.5517 2.78005 83.4986 3.00472 83.4986 3.23253H84.4986ZM84.966 3.6999C84.7079 3.6999 84.4986 3.49065 84.4986 3.23253H83.4986C83.4986 4.04294 84.1556 4.6999 84.966 4.6999V3.6999ZM119.87 3.6999H84.966V4.6999H119.87V3.6999ZM120.367 65.8531L120.367 65.8522L119.373 65.7476L119.373 65.7484L120.367 65.8531ZM129.601 65.3008H119.87V66.3008H129.601V65.3008ZM131.859 63.44C131.654 64.5002 130.72 65.3008 129.601 65.3008V66.3008C131.209 66.3008 132.547 65.1513 132.841 63.6295L131.859 63.44ZM129.601 66.2999C131.208 66.2999 132.546 65.151 132.841 63.6297L131.859 63.4398C131.654 64.4996 130.72 65.2999 129.601 65.2999V66.2999ZM119.87 66.2999H129.601V65.2999H119.87V66.2999ZM21.8008 1.8999H70.8008V0.899902H21.8008V1.8999ZM20.9008 2.7999C20.9008 2.30285 21.3037 1.8999 21.8008 1.8999V0.899902C20.7514 0.899902 19.9008 1.75056 19.9008 2.7999H20.9008ZM21.8008 3.69991C21.3037 3.69991 20.9008 3.29696 20.9008 2.7999H19.9008C19.9008 3.84925 20.7514 4.69991 21.8008 4.69991V3.69991ZM70.8008 3.69991H21.8008V4.69991H70.8008V3.69991ZM71.7008 2.7999C71.7008 3.29696 71.2978 3.69991 70.8008 3.69991V4.69991C71.8501 4.69991 72.7008 3.84925 72.7008 2.7999H71.7008ZM70.8008 1.8999C71.2978 1.8999 71.7008 2.30285 71.7008 2.7999H72.7008C72.7008 1.75056 71.8501 0.899902 70.8008 0.899902V1.8999ZM9.20078 66.2999H38.6008V65.2999H9.20078V66.2999ZM8.30078 67.1999C8.30078 66.7029 8.70372 66.2999 9.20078 66.2999V65.2999C8.15144 65.2999 7.30078 66.1506 7.30078 67.1999H8.30078ZM9.20078 68.0999C8.70373 68.0999 8.30078 67.697 8.30078 67.1999H7.30078C7.30078 68.2493 8.15144 69.0999 9.20078 69.0999V68.0999ZM38.6008 68.0999H9.20078V69.0999H38.6008V68.0999ZM39.5008 67.1999C39.5008 67.697 39.0978 68.0999 38.6008 68.0999V69.0999C39.6501 69.0999 40.5008 68.2493 40.5008 67.1999H39.5008ZM38.6008 66.2999C39.0978 66.2999 39.5008 66.7029 39.5008 67.1999H40.5008C40.5008 66.1506 39.6501 65.2999 38.6008 65.2999V66.2999ZM24.6008 45.2999H49.8008V44.2999H24.6008V45.2999ZM23.7008 46.1999C23.7008 45.7028 24.1037 45.2999 24.6008 45.2999V44.2999C23.5514 44.2999 22.7008 45.1506 22.7008 46.1999H23.7008ZM24.6008 47.0999C24.1037 47.0999 23.7008 46.697 23.7008 46.1999H22.7008C22.7008 47.2492 23.5514 48.0999 24.6008 48.0999V47.0999ZM49.8008 47.0999H24.6008V48.0999H49.8008V47.0999ZM50.7008 46.1999C50.7008 46.697 50.2978 47.0999 49.8008 47.0999V48.0999C50.8501 48.0999 51.7008 47.2492 51.7008 46.1999H50.7008ZM49.8008 45.2999C50.2978 45.2999 50.7008 45.7028 50.7008 46.1999H51.7008C51.7008 45.1506 50.8501 44.2999 49.8008 44.2999V45.2999ZM2.20078 22.8999H61.0008V21.8999H2.20078V22.8999ZM1.30078 23.7999C1.30078 23.3028 1.70373 22.8999 2.20078 22.8999V21.8999C1.15144 21.8999 0.300781 22.7506 0.300781 23.7999H1.30078ZM2.20078 24.6999C1.70373 24.6999 1.30078 24.297 1.30078 23.7999H0.300781C0.300781 24.8492 1.15144 25.6999 2.20078 25.6999V24.6999ZM61.0008 24.6999H2.20078V25.6999H61.0008V24.6999ZM61.9008 23.7999C61.9008 24.297 61.4978 24.6999 61.0008 24.6999V25.6999C62.0501 25.6999 62.9008 24.8492 62.9008 23.7999H61.9008ZM61.0008 22.8999C61.4978 22.8999 61.9008 23.3028 61.9008 23.7999H62.9008C62.9008 22.7506 62.0501 21.8999 61.0008 21.8999V22.8999ZM87.6008 56.8999C83.1542 56.8999 79.0905 54.498 76.1214 50.5391C73.1521 46.5801 71.3008 41.0878 71.3008 34.9999H70.3008C70.3008 41.2832 72.2103 46.9909 75.3214 51.1391C78.4326 55.2874 82.7689 57.8999 87.6008 57.8999V56.8999ZM103.901 34.9999C103.901 41.0878 102.049 46.5801 99.0802 50.5391C96.111 54.498 92.0473 56.8999 87.6008 56.8999V57.8999C92.4326 57.8999 96.7689 55.2874 99.8802 51.1391C102.991 46.9909 104.901 41.2832 104.901 34.9999H103.901ZM87.6008 13.0999C92.0473 13.0999 96.111 15.5018 99.0802 19.4607C102.049 23.4198 103.901 28.912 103.901 34.9999H104.901C104.901 28.7166 102.991 23.0089 99.8802 18.8607C96.7689 14.7124 92.4326 12.0999 87.6008 12.0999V13.0999ZM71.3008 34.9999C71.3008 28.912 73.1521 23.4198 76.1214 19.4607C79.0905 15.5018 83.1542 13.0999 87.6008 13.0999V12.0999C82.7689 12.0999 78.4326 14.7124 75.3214 18.8607C72.2103 23.0089 70.3008 28.7166 70.3008 34.9999H71.3008ZM87.6008 54.0999C83.9382 54.0999 80.5751 52.0224 78.1082 48.5686C75.6419 45.1158 74.1008 40.3201 74.1008 34.9999H73.1008C73.1008 40.5045 74.6937 45.5088 77.2944 49.1498C79.8944 52.7898 83.5314 55.0999 87.6008 55.0999V54.0999ZM101.101 34.9999C101.101 40.3201 99.5597 45.1158 97.0934 48.5686C94.6264 52.0224 91.2634 54.0999 87.6008 54.0999V55.0999C91.6702 55.0999 95.3071 52.7898 97.9071 49.1498C100.508 45.5088 102.101 40.5045 102.101 34.9999H101.101ZM87.6008 15.8999C91.2634 15.8999 94.6264 17.9774 97.0934 21.4312C99.5597 24.8841 101.101 29.6797 101.101 34.9999H102.101C102.101 29.4953 100.508 24.491 97.9071 20.85C95.3071 17.21 91.6702 14.8999 87.6008 14.8999V15.8999ZM74.1008 34.9999C74.1008 29.6797 75.6419 24.8841 78.1082 21.4312C80.5751 17.9774 83.9382 15.8999 87.6008 15.8999V14.8999C83.5314 14.8999 79.8944 17.21 77.2944 20.85C74.6937 24.491 73.1008 29.4953 73.1008 34.9999H74.1008ZM89.5162 23.9243V21.8399H88.5162V23.9243H89.5162ZM92.4586 24.7247C91.4801 24.0567 90.3552 23.6273 89.0933 23.4303L88.939 24.4184C90.0684 24.5947 91.0505 24.9742 91.8947 25.5506L92.4586 24.7247ZM94.7034 26.9892C94.1704 26.132 93.4167 25.3789 92.4586 24.7247L91.8947 25.5506C92.7594 26.141 93.4071 26.7982 93.8541 27.5172L94.7034 26.9892ZM95.5717 29.4015C95.526 28.6283 95.2209 27.8216 94.7034 26.9892L93.8541 27.5172C94.3166 28.2611 94.5407 28.9063 94.5734 29.4605L95.5717 29.4015ZM95.2466 30.2699C95.4894 30.0314 95.6058 29.7213 95.5698 29.3788L94.5753 29.4832C94.5779 29.5082 94.5744 29.5177 94.5736 29.5198C94.5727 29.5223 94.568 29.5347 94.5457 29.5566L95.2466 30.2699ZM94.4258 30.6155C94.7457 30.6155 95.0252 30.4874 95.2466 30.2699L94.5457 29.5566C94.4927 29.6087 94.4586 29.6155 94.4258 29.6155V30.6155ZM93.2204 30.6155H94.4258V29.6155H93.2204V30.6155ZM92.3803 30.3671C92.6241 30.5606 92.9324 30.6155 93.2204 30.6155V29.6155C93.1342 29.6155 93.076 29.6067 93.0395 29.5971C93.004 29.5877 92.9965 29.5794 93.002 29.5838L92.3803 30.3671ZM91.8633 29.6578C92.0067 29.9394 92.174 30.2033 92.3803 30.3671L93.002 29.5838C92.9732 29.561 92.8857 29.4619 92.7546 29.2043L91.8633 29.6578ZM90.364 27.923C91.1018 28.5159 91.5882 29.0939 91.8596 29.6502L92.7584 29.2118C92.4025 28.4822 91.8012 27.795 90.9905 27.1435L90.364 27.923ZM87.605 27.0999C88.7977 27.0999 89.7011 27.3902 90.364 27.923L90.9905 27.1435C90.105 26.4318 88.9602 26.0999 87.605 26.0999V27.0999ZM84.9044 27.8517C85.6195 27.3594 86.5105 27.0999 87.605 27.0999V26.0999C86.3474 26.0999 85.249 26.4004 84.3373 27.0281L84.9044 27.8517ZM83.9008 29.8355C83.9008 28.9532 84.2344 28.313 84.9044 27.8517L84.3373 27.0281C83.3805 27.6868 82.9008 28.6437 82.9008 29.8355H83.9008ZM84.3749 31.2274C84.07 30.8891 83.9008 30.44 83.9008 29.8355H82.9008C82.9008 30.6413 83.1333 31.3433 83.632 31.8968L84.3749 31.2274ZM86.0101 32.2482C85.2381 31.9431 84.7069 31.5959 84.3749 31.2274L83.632 31.8968C84.1036 32.4202 84.7877 32.8404 85.6425 33.1782L86.0101 32.2482ZM89.6495 33.3981C88.0073 32.9429 86.7981 32.5597 86.0101 32.2482L85.6425 33.1782C86.4812 33.5097 87.7318 33.9043 89.3824 34.3617L89.6495 33.3981ZM94.612 35.8075C93.5907 34.8177 91.9106 34.0277 89.6501 33.3982L89.3818 34.3616C91.5901 34.9765 93.0755 35.711 93.9161 36.5256L94.612 35.8075ZM96.1606 39.8532C96.1606 38.1914 95.6593 36.8224 94.612 35.8075L93.9161 36.5256C94.7309 37.3152 95.1606 38.4039 95.1606 39.8532H96.1606ZM94.1962 44.4786C95.5041 43.2408 96.1606 41.6875 96.1606 39.8532H95.1606C95.1606 41.4204 94.6116 42.7086 93.5088 43.7523L94.1962 44.4786ZM89.0673 46.6351C91.1707 46.419 92.8941 45.7108 94.1962 44.4786L93.5088 43.7523C92.4 44.8016 90.8993 45.4416 88.9651 45.6403L89.0673 46.6351ZM89.5162 48.1599V46.1377H88.5162V48.1599H89.5162ZM89.1444 49.0944C89.3888 48.8357 89.5162 48.5159 89.5162 48.1599H88.5162C88.5162 48.2602 88.4867 48.3344 88.4176 48.4076L89.1444 49.0944ZM88.2224 49.4999C88.5843 49.4999 88.8994 49.3537 89.1444 49.0944L88.4176 48.4076C88.349 48.4802 88.2916 48.4999 88.2224 48.4999V49.4999ZM87.017 49.4999H88.2224V48.4999H87.017V49.4999ZM86.095 49.0944C86.34 49.3537 86.655 49.4999 87.017 49.4999V48.4999C86.9477 48.4999 86.8904 48.4802 86.8218 48.4076L86.095 49.0944ZM85.7232 48.1599C85.7232 48.5159 85.8505 48.8358 86.095 49.0944L86.8218 48.4076C86.7526 48.3344 86.7232 48.2602 86.7232 48.1599H85.7232ZM85.7232 46.0755V48.1599H86.7232V46.0755H85.7232ZM82.7238 45.317C83.7454 45.9568 84.8882 46.3731 86.146 46.5695L86.3003 45.5814C85.167 45.4045 84.1538 45.0327 83.2546 44.4695L82.7238 45.317ZM80.3133 43.0764C80.9069 43.9401 81.7151 44.6853 82.7238 45.317L83.2546 44.4695C82.3424 43.8982 81.6415 43.2434 81.1374 42.51L80.3133 43.0764ZM79.3729 40.4257C79.3954 41.3308 79.7223 42.2164 80.3133 43.0764L81.1374 42.51C80.6309 41.773 80.3893 41.072 80.3726 40.4008L79.3729 40.4257ZM79.7005 39.5876C79.4847 39.8159 79.3728 40.0998 79.3728 40.4132H80.3728C80.3728 40.3534 80.3882 40.3158 80.4273 40.2744L79.7005 39.5876ZM80.5196 39.2288C80.1979 39.2288 79.9169 39.3586 79.7005 39.5876L80.4273 40.2744C80.4657 40.2338 80.4884 40.2288 80.5196 40.2288V39.2288ZM81.725 39.2288H80.5196V40.2288H81.725V39.2288ZM82.5354 39.4554C82.2937 39.2909 82.0111 39.2288 81.725 39.2288V40.2288C81.87 40.2288 81.9403 40.26 81.9729 40.2822L82.5354 39.4554ZM83.0947 40.2133C82.9647 39.9154 82.7902 39.6287 82.5354 39.4554L81.9729 40.2822C81.9925 40.2955 82.0728 40.3718 82.1781 40.6131L83.0947 40.2133ZM84.6555 42.066C83.874 41.4822 83.368 40.8639 83.0974 40.2196L82.1754 40.6069C82.532 41.4559 83.1725 42.2064 84.057 42.8672L84.6555 42.066ZM87.752 42.8999C86.3892 42.8999 85.3749 42.6033 84.6555 42.066L84.0571 42.8672C85.0037 43.5743 86.2531 43.8999 87.752 43.8999V42.8999ZM91.1074 42.0026C90.2149 42.5917 89.1053 42.8999 87.752 42.8999V43.8999C89.2602 43.8999 90.5712 43.5547 91.6583 42.8372L91.1074 42.0026ZM92.3676 39.8532C92.3676 40.7204 91.977 41.4286 91.1074 42.0026L91.6583 42.8372C92.7683 42.1045 93.3676 41.1016 93.3676 39.8532H92.3676ZM91.7543 38.4985C92.1706 38.8725 92.3676 39.3139 92.3676 39.8532H93.3676C93.3676 39.0237 93.0452 38.314 92.4226 37.7546L91.7543 38.4985ZM89.789 37.4153C90.6506 37.7225 91.2977 38.0883 91.7543 38.4985L92.4226 37.7546C91.8404 37.2315 91.0666 36.8092 90.1249 36.4734L89.789 37.4153ZM85.8561 36.2289C87.597 36.7049 88.9055 37.1003 89.789 37.4153L90.1249 36.4734C89.2052 36.1455 87.8678 35.7423 86.1199 35.2643L85.8561 36.2289ZM81.492 33.816C82.4258 34.9075 83.9055 35.6969 85.8564 36.229L86.1195 35.2642C84.268 34.7592 83.0038 34.0449 82.2519 33.166L81.492 33.816ZM80.1078 29.8355C80.1078 31.3913 80.5624 32.7293 81.492 33.816L82.2519 33.166C81.496 32.2823 81.1078 31.1834 81.1078 29.8355H80.1078ZM80.793 26.9201C80.3361 27.8308 80.1078 28.8048 80.1078 29.8355H81.1078C81.1078 28.958 81.3008 28.1379 81.6868 27.3685L80.793 26.9201ZM82.8525 24.6015C81.9467 25.2257 81.2554 25.9983 80.793 26.9201L81.6868 27.3686C82.0671 26.6104 82.6401 25.9623 83.4199 25.425L82.8525 24.6015ZM86.1555 23.3978C84.878 23.5723 83.7713 23.9684 82.8525 24.6015L83.4199 25.425C84.1866 24.8966 85.1379 24.5461 86.2908 24.3886L86.1555 23.3978ZM85.7232 21.8399V23.8932H86.7232V21.8399H85.7232ZM86.095 20.9054C85.8505 21.1641 85.7232 21.4839 85.7232 21.8399H86.7232C86.7232 21.7396 86.7526 21.6654 86.8218 21.5922L86.095 20.9054ZM87.017 20.4999C86.655 20.4999 86.34 20.6461 86.095 20.9054L86.8218 21.5922C86.8904 21.5196 86.9477 21.4999 87.017 21.4999V20.4999ZM88.2224 20.4999H87.017V21.4999H88.2224V20.4999ZM89.1444 20.9054C88.8994 20.6461 88.5843 20.4999 88.2224 20.4999V21.4999C88.2916 21.4999 88.349 21.5196 88.4176 21.5922L89.1444 20.9054ZM89.5162 21.8399C89.5162 21.4839 89.3888 21.1641 89.1444 20.9054L88.4176 21.5922C88.4867 21.6654 88.5162 21.7396 88.5162 21.8399H89.5162ZM122.189 4.26178C122.849 9.55507 127.043 13.7493 132.336 14.4094L132.46 13.4171C127.621 12.8137 123.784 8.97715 123.181 4.13804L122.189 4.26178ZM129.598 3.69991H122.685V4.69991H129.598V3.69991ZM132.898 6.99991C132.898 5.17737 131.421 3.69991 129.598 3.69991V4.69991C130.868 4.69991 131.898 5.72965 131.898 6.99991H132.898ZM132.898 13.9133V6.99991H131.898V13.9133H132.898ZM132.898 62.9973V56.0839H131.898V62.9973H132.898ZM129.598 66.2973C131.421 66.2973 132.898 64.8198 132.898 62.9973H131.898C131.898 64.2675 130.868 65.2973 129.598 65.2973V66.2973ZM122.685 66.2973H129.598V65.2973H122.685V66.2973ZM132.336 55.5877C127.043 56.2478 122.849 60.4421 122.189 65.7354L123.181 65.8591C123.784 61.02 127.621 57.1835 132.46 56.5801L132.336 55.5877Z" fill="white" mask="url(#path-1-outside-1)"/>
</svg>
