<svg width="34px" height="30px" viewBox="0 0 34 30" version="1.1" xmlns="http://www.w3.org/2000/svg" role="img"
     aria-labelledby="icon-error-title">
    <title id="icon-error-title">Error</title>
    <g stroke="none" stroke-width="1" fill="none" fill-rule="evenodd">
        <g transform="translate(-790.000000, -174.000000)">
            <rect fill="#FFFFFF" x="0" y="0" width="1440" height="900"></rect>
            <g transform="translate(790.000000, 174.000000)" fill="#B75757">
                <g>
                    <path d="M26,0 L31.5603922,0 C32.6649617,-6.46995335e-16 33.5603922,0.8954305 33.5603922,2 C33.5603922,2.13170397 33.5473828,2.2630859 33.5215535,2.39223227 L28.3215535,28.3922323 C28.1345839,29.3270807 27.3137542,30 26.3603922,30 L26,30 L2,30 C0.8954305,30 2.0263995e-13,29.1045695 2.0250468e-13,28 L2.0250468e-13,2 C2.02369409e-13,0.8954305 0.8954305,2.02906125e-16 2,0 L26,0 Z M12.5273645,20 C12.0531071,20 11.6440767,20.3331247 11.5480693,20.7975627 L11.0103524,23.3987814 C11.0034687,23.4320811 11,23.4659962 11,23.5 C11,23.7761424 11.2238576,24 11.5,24 L14.9312246,24 C15.4056717,24 15.814811,23.6666147 15.910622,23.2019424 L16.4469175,20.6009712 C16.4537672,20.5677507 16.4572188,20.5339194 16.4572188,20.5 C16.4572188,20.2238576 16.2333611,20 15.9572188,20 L12.5273645,20 Z M12.4573735,16.3987814 C12.4504899,16.4320811 12.4470211,16.4659962 12.4470211,16.5 C12.4470211,16.7761424 12.6708787,17 12.9470211,17 L16.3745579,17 C16.8490051,17 17.2581443,16.6666147 17.3539553,16.2019424 L19.3335841,6.60097121 C19.3404339,6.56775068 19.3438854,6.53391936 19.3438854,6.5 C19.3438854,6.22385763 19.1200278,6 18.8438854,6 L15.4214067,6 C14.9471493,6 14.5381189,6.3331247 14.4421115,6.79756273 L12.4573735,16.3987814 Z"></path>
                </g>
            </g>
        </g>
    </g>
</svg>