<svg width="20" height="20" viewBox="0 0 20 20" fill="none" xmlns="http://www.w3.org/2000/svg" role="img">
  <title>Help</title>
  <path fill-rule="evenodd" clip-rule="evenodd" d="M17.3333 0H2.66667C1.19391 0 0 1.19391 0 2.66667V17.3333C0 18.8061 1.19391 20 2.66667 20H17.3333C18.8061 20 20 18.8061 20 17.3333V2.66667C20 1.19391 18.8061 0 17.3333 0ZM11.2674 12.4377H9.31673C9.31163 12.1572 9.30908 11.9863 9.30908 11.9251C9.30908 11.2927 9.41363 10.7726 9.62272 10.3646C9.83181 9.9566 10.25 9.49762 10.8773 8.98763C11.5046 8.47764 11.8794 8.14361 12.0018 7.98551C12.1905 7.73562 12.2848 7.46023 12.2848 7.15934C12.2848 6.74115 12.1178 6.3829 11.7838 6.08455C11.4497 5.78621 10.9997 5.63704 10.4336 5.63704C9.88791 5.63704 9.43148 5.79259 9.06429 6.10368C8.6971 6.41477 8.44466 6.88905 8.30697 7.52653L6.33333 7.28174C6.38943 6.36887 6.77829 5.5937 7.49992 4.95622C8.22155 4.31874 9.16883 4 10.3418 4C11.576 4 12.5577 4.32256 13.2869 4.96769C14.0162 5.61282 14.3809 6.36377 14.3809 7.22054C14.3809 7.69483 14.247 8.14361 13.9792 8.56689C13.7115 8.99018 13.1391 9.56646 12.2619 10.2957C11.808 10.6731 11.5262 10.9766 11.4166 11.2061C11.3069 11.4355 11.2572 11.8461 11.2674 12.4377ZM9.33333 15.9959V13.9959H11.3333V15.9959H9.33333Z" fill="#1B77D4"/>
</svg>
