<svg xmlns="http://www.w3.org/2000/svg" viewBox="0 0 7859 2679">
    <defs>
        <style>.a{fill:#fff;}</style>
    </defs>
    <title>Dioptra Official Logo  White</title>
    <path class="a"
          d="M2961,809.83c-144.72-1.87-290.06,58-396.73,163.12-107.29,105.73-166.86,244.84-167.48,391.74-.63,149.4,61.13,296.3,170,402.65C2670.29,1868.4,2802.52,1923.6,2941,1923.6c4.67,0,9.36-.31,14-.31,147.21,3.43,284.76-52.4,390.8-156,107-104.48,168.42-249.2,168.74-396.72C3515.51,1027.85,3228,812.64,2961,809.83Zm-1.56,977.79c-112.28,1.24-218-42.73-299.11-122.58-79.84-78.91-125.69-186.51-126.31-295-.63-109.47,44.6-217.7,123.82-297.23C2738,992.29,2843.38,948,2954.73,948h.62c112,.31,218,44.6,297.86,124.76,78.29,78.59,122.89,185.26,122.26,292.87v.31c1.56,108.85-40.86,212.71-119.45,293.18C3176.79,1739.9,3068.58,1787,2959.41,1787.62Z"/>
    <path class="a"
          d="M7171.69,1665.35c23.08,24,23.71,65.19,1.25,93.57-6.23,7.8-13.41,14.35-20.27,20.59l-4.68,4c-75.79,70.18-214.27,143.16-374.58,139.73-4.05,0-8.43.31-12.48.31-262.3,0-498.09-203-539.57-467.53a558,558,0,0,1,127.87-450.68c106.05-123.51,256.38-194.31,413-194.31h1.56c154.08.63,281.64,48.34,390.49,146.59,8.73,8.11,19.65,18.71,27.13,32.13,15,26.82,9.05,63.62-13.41,83.58-21.52,19.34-53.33,22.77-79.22,8.11-12.48-6.86-23.08-16.22-33.37-25.26-83-72.36-176.22-107.61-283.2-107.61-127.56.32-235.17,50.84-319.69,150.34-95.12,112.28-123.2,239.84-83.9,379.57,46.16,162.19,154.7,262.93,322.81,299.73,130.37,28.38,252.94-5,364.6-99.81l6.55-5.61a137.94,137.94,0,0,1,16.22-13.41C7108.69,1638.84,7148.93,1641.65,7171.69,1665.35Z"/>
    <path class="a"
          d="M4828.6,1371.24c7.18,238.29-170.6,508.39-480.93,548.62a615.12,615.12,0,0,1-82,5.61c-133.81,0-255.44-45.53-361.79-135.36-15-12.47-26.21-24.64-34.63-36.8-18.71-27.45-15.9-66.43,6.24-88.89,21.21-21.52,55.52-25.27,83.9-9.36,10.29,5.93,19,13.41,27.45,20.9l4.37,3.74c95.12,83,218.63,121,338.4,105.11,119.14-15.91,222.68-81.72,291.93-185.57,77-115.09,93.88-253,45.85-378.33a426.37,426.37,0,0,0-291.94-259.18c-135.35-34.31-262-5-376.14,87-4.05,3.12-7.8,6.55-11.54,10-7.17,6.24-14,12.48-21.83,17.47-31.81,21.52-68.92,18.4-92.63-7.48-20.9-22.77-24.64-68,1.87-94.2,25.57-25.57,53.33-52.08,85.14-71.11,199.93-120.08,400.48-125.07,596.66-15.28C4698.55,967.65,4837.34,1147.61,4828.6,1371.24Z"/>
    <path class="a"
          d="M5405.09,945.82c0,23.7-8.73,63.62-68.92,66.12-15.6.62-30.89.31-46.48.31-11.23,0-22.46-.31-33.68,0-8.42.31-17.16.94-27.14,1.87l-2.8.32v191.81q0,305-.32,609.75c0,19.34,0,37.11-3.74,54.27-7.49,32.75-31.82,52.39-64.56,52.39-2.5,0-4.68-.31-6.87-.31-33.06-2.8-57.38-24.95-62.37-56.76-1.56-11.54-1.56-23.08-1.25-34V1014.12l-3.12-.31c-10.92-.62-20.9-1.25-30.87-1.56-10.3-.31-20.9,0-31.19,0-18.1,0-35.87.31-53.65-.93-33.06-2.19-54.89-21.21-59.26-52.4-5.61-35.56,8.11-62.07,38.05-74.24,15.9-6.54,34-7.79,46.16-8.41,24.33-.63,48.65-.32,73.92-.32h18.09c.94-8.1,1.87-15.28,1.87-22.76.32-54,0-107.92,0-161.88V601.49c0-10-.31-20.59,1.56-31.19,5.31-30.57,31.19-54,62.69-56.76,29.94-2.81,62.06,20,69.86,49.27,4.37,16.53,4.68,33.69,4.68,49.91.32,67.68.32,135.36.32,204.91V874.4c9,.62,17.77,1.55,26.19,1.55,10.61.32,20.9,0,31.5,0,17.47-.31,35.56-.62,53.65.63C5378.27,879.39,5404.78,906.52,5405.09,945.82Z"/>
    <path class="a"
          d="M3838.68,934.9V2344c0,11.86.31,24.33-2.18,36.81-5.62,29-29,49.59-59.89,52.71-2.49,0-5.3.31-7.79.31-27.77,0-49.6-14.35-60.2-40.24-5.3-12.47-7.18-25.57-8.43-35.86a174.79,174.79,0,0,1-.62-25.26V2074.25q0-559.55.32-1119.7c0-20.58.3-40.23,5-59.26,7.79-31.81,34.3-52.08,67.36-50.84,33.69,1.56,60.51,26.2,65.19,59.89C3839,914.94,3839,924.92,3838.68,934.9Z"/>
    <path class="a"
          d="M7339.74,1864.66c-4.68,33.37-32.75,57.69-66.75,57.69h-.62c-33.06-.31-59.26-21.52-65.5-53-2.18-10.29-2.18-20.58-2.18-30.56V959.86c0-10,0-20.28,2.18-30.88,6.87-30.88,34.93-51.78,66.43-52.71,31.82.62,59.27,23.39,65.19,54,2.18,11.23,2.18,22.15,1.88,33.06v7.18l.3,864.56A190.55,190.55,0,0,1,7339.74,1864.66Z"/>
    <path class="a"
          d="M2207.08,1869c-6.24,31.81-32.44,53-65.5,53.33H2141c-33.06,0-58.95-20.27-65.81-51.77-2.81-13.1-2.81-26.2-2.81-38.67V966.72c0-11.86,0-24,2.5-36.5,6.23-32.12,32.44-53.64,64.56-53.64h.62c31.81,0,59.57,21.83,66.12,52.09,2.81,12.78,2.5,25.57,2.5,38.05v870.17C2209,1847.19,2209,1858.1,2207.08,1869Z"/>
    <path class="a"
          d="M5717,965.16v867.68c0,10.29.31,20.27-.94,29.94-3.12,30.88-23.08,52.4-53.33,58.33a71.65,71.65,0,0,1-14,1.24c-27.13,0-50.52-15.28-60.19-40.85-5-12.79-7.18-28.08-7.18-46.48q-.47-434.62,0-868.93c0-13.1.63-30.25,6.24-46.16,10.61-29.63,42.11-47.72,73-42.73,29.31,4.68,51.14,27.45,55.2,57.08C5717.34,944.88,5717,955.17,5717,965.16Z"/>
    <path class="a"
          d="M6190.6,983.56a65.8,65.8,0,0,1-60.82,31.19c-19.66-1.25-38.68-7.49-54.58-13.41-84.53-32.44-161.26-28.07-234.55,12.78-12.79,7.49-29.31,11.54-44.6,11.54a82.44,82.44,0,0,1-8.73-.62c-28.07-3.12-48-22.77-54-52.71-5.62-29.94,5-55.52,30.26-72.36,49.27-33.06,105.1-51.77,165.3-55.52,10.29-.62,20.27-.31,30.25-.31l12.79.31c49-.93,112,2.18,170.91,32.13,20.9,10.6,38.05,25.57,47.41,41.48C6202.76,939,6202.76,963.28,6190.6,983.56Z"/>
    <path class="a"
          d="M3612.88,2079.94a66.82,66.82,0,0,1-66.75,66.74H630.85a66.75,66.75,0,0,1,0-133.49H3546.13A66.82,66.82,0,0,1,3612.88,2079.94Z"/>
    <path class="a"
          d="M7363.68,2079.94a66.82,66.82,0,0,1-66.75,66.74H3992.1a66.75,66.75,0,0,1,0-133.49H7296.93A66.82,66.82,0,0,1,7363.68,2079.94Z"/>
    <path class="a"
          d="M1879,1184.35c-24.8,223.57-135.44,423-311.8,561.26-113.69,88.75-246.47,146.07-383.31,167.41a765.9,765.9,0,0,1-218.62,2.84c-118.65-9.9-232.76-47.35-339.06-111.59a69.31,69.31,0,0,1,71.44-118.78c92,55.73,192.14,88.42,297.63,96.9,373.8,30.73,708.37-246.83,746.05-618.56C1758.43,996.08,1711.23,827,1609,687.31c-19.31-26.66-17.22-63.91,5.45-88.6a71.2,71.2,0,0,1,56.38-23,70.15,70.15,0,0,1,52.68,28.09C1846.37,770.56,1901.55,976.61,1879,1184.35Z"/>
    <path class="a"
          d="M1767.19,366.32a65.86,65.86,0,0,1-17.42,48.17L435.83,1842.06c-10.58,11.12-23.93,18.57-39,20.92a65.87,65.87,0,0,1-55.36-16.93,66.85,66.85,0,0,1-4.3-94.34L1651.44,324.39a66.86,66.86,0,0,1,94.34-4.29C1758.73,332.29,1766.66,348.73,1767.19,366.32Z"/>
</svg>