<svg width="151px" xmlns="http://www.w3.org/2000/svg" viewBox="0 0 2130 2375">
    <defs>
        <style>.a{fill:#fff;}</style>
    </defs>
    <title>Dioptra Official Logo White Icon</title>
    <path class="a"
          d="M1774.11,2068a70.64,70.64,0,0,1-70.57,70.56h-1131a70.57,70.57,0,0,1,0-141.13H1703.54A70.64,70.64,0,0,1,1774.11,2068Z"/>
    <path class="a"
          d="M1892.08,1146.13c-26.22,236.36-143.19,447.17-329.64,593.38-120.19,93.83-260.58,154.43-405.24,177a809.62,809.62,0,0,1-231.13,3c-125.45-10.47-246.09-50.06-358.46-118a73.51,73.51,0,0,1-15.8-112c23.36-25.67,61.86-31.34,91.32-13.57,97.3,58.91,203.14,93.47,314.67,102.44,395.18,32.48,748.9-261,788.73-654,18.06-177.35-31.84-356.12-140-503.79-20.41-28.18-18.21-67.57,5.76-93.67a75.28,75.28,0,0,1,59.61-24.31,74.12,74.12,0,0,1,55.69,29.69C1857.57,708.66,1915.9,926.5,1892.08,1146.13Z"/>
    <path class="a"
          d="M1773.86,281.29a69.71,69.71,0,0,1-18.42,50.93L366.31,1841.48c-11.18,11.76-25.3,19.63-41.27,22.12a69.69,69.69,0,0,1-58.53-17.9A70.68,70.68,0,0,1,262,1746L1651.48,237a70.67,70.67,0,0,1,99.74-4.54C1764.91,245.31,1773.29,262.69,1773.86,281.29Z"/>
</svg>