<svg width="20" height="20" viewBox="0 0 20 20" fill="none" xmlns="http://www.w3.org/2000/svg">
  <title>Note</title>
  <path fill-rule="evenodd" clip-rule="evenodd" d="M2.66667 0H17.3333C18.8061 0 20 1.19391 20 2.66667V17.3333C20 18.8061 18.8061 20 17.3333 20H2.66667C1.19391 20 0 18.8061 0 17.3333V2.66667C0 1.19391 1.19391 0 2.66667 0ZM9 4.05C9 4.02239 9.02239 4 9.05 4H10.95C10.9776 4 11 4.02239 11 4.05V5.95C11 5.97761 10.9776 6 10.95 6H9.05C9.02239 6 9 5.97761 9 5.95V4.05ZM9.05 8C9.02239 8 9 8.02239 9 8.05V15.95C9 15.9776 9.02239 16 9.05 16H10.95C10.9776 16 11 15.9776 11 15.95V8.05C11 8.02239 10.9776 8 10.95 8H9.05Z" fill="#767676"/>
</svg>
