<svg width="100px" height="100px" viewBox="0 0 100 100" version="1.1" xmlns="http://www.w3.org/2000/svg" role="img"
     aria-labelledby="icon-agriculture-title">
    <title id="icon-agriculture-title">Agricultural Extension Support</title>
    <g stroke="none" stroke-width="1" fill="none" fill-rule="evenodd">
        <path d="M45.3334523,45.0050361 L34.9181135,36.2655292 C34.139395,36.7248535 33.1875938,36.8081253 32.340945,36.4910022 L32.2312175,36.6217703 C28.6811996,40.852517 22.3736436,41.4043566 18.142897,37.8543387 L7.4182748,28.8553121 C6.99520014,28.5003103 6.94001617,27.8695547 7.29501797,27.4464801 C7.65001976,27.0234054 8.28077536,26.9682215 8.70385002,27.3232232 L19.4284722,36.3222498 C22.0003726,38.4803305 25.5316315,38.7436047 28.3252979,37.2605365 L11.9177881,23.493001 C11.4947134,23.1379992 11.4395294,22.5072436 11.7945312,22.084169 C12.149533,21.6610943 12.7802886,21.6059104 13.2033633,21.9609121 L30.0089277,36.062455 C30.2507944,35.8377614 30.481442,35.595624 30.6991286,35.3361951 L30.8088562,35.205427 C30.1809904,34.1409707 30.2557813,32.7531082 31.0954026,31.7524866 L31.7381902,30.9864421 L16.4173013,18.1306899 C15.9942267,17.7756881 15.9390427,17.1449325 16.2940445,16.7218579 C16.6490463,16.2987832 17.2798019,16.2435992 17.7028766,16.598601 L33.0237654,29.4543532 L33.666553,28.6883088 C34.5061743,27.6876871 35.8599647,27.3730326 37.0172772,27.8065188 L37.1270047,27.6757507 C37.3446914,27.4163218 37.5430987,27.1471316 37.722379,26.8699217 L20.9168146,12.7683788 C20.4937399,12.413377 20.438556,11.7826214 20.7935578,11.3595468 C21.1485596,10.9364721 21.7793152,10.8812881 22.2023898,11.2362899 L38.6098997,25.0038254 C39.5853217,21.995069 38.7128505,18.563175 36.1409501,16.4050943 L25.4163279,7.40606773 C24.9932532,7.05106593 24.9380692,6.42031034 25.293071,5.99723567 C25.6480728,5.57416101 26.2788284,5.51897705 26.7019031,5.87397884 L37.4265253,14.8730054 C41.6572719,18.4230233 42.2091116,24.7305793 38.6590936,28.9613259 L38.5493661,29.0920941 C39.0086905,29.8708125 39.0919623,30.8226137 38.7748391,31.6692625 L50.0006238,41.0888142 L51.9010575,39.494161 L51.8996145,39.4924413 L63.5210493,29.7408997 C63.2021452,28.8894961 63.2881459,27.9317558 63.7542965,27.1506279 C62.0685733,24.6159433 60.7499731,22.0148035 60.0265828,19.6190323 C60.0265828,19.6190323 76.7298003,-0.923667758 92.8962439,9.00840656 C99.8701542,26.6539322 76.7390607,39.5361878 76.7390607,39.5361878 C74.505302,38.4077662 72.172652,36.6575153 69.9691976,34.5572586 C69.1189906,34.8806859 68.1608666,34.7990702 67.377775,34.3371663 L55.7563401,44.088708 L55.7577831,44.0904277 L54.6677953,45.0050361 L74.973246,62.0433323 C77.1619899,60.1755349 80.4424535,60.1055059 82.7199008,62.0165111 L87.3161675,65.8732368 C88.1623168,66.5832404 88.2726847,67.8447515 87.5626812,68.6909009 L79.8492298,77.8834342 C79.1392263,78.7295835 77.8777151,78.8399514 77.0315657,78.1299479 L72.4352991,74.2732222 C70.1578518,72.362217 69.6571703,69.1194306 71.1165203,66.639599 L50.0006238,48.921258 L41.9689832,55.6606046 L41.9675402,55.658885 L28.8812348,66.639599 C30.3405848,69.1194306 29.8399033,72.362217 27.562456,74.2732222 L22.9661894,78.1299479 C22.12004,78.8399514 20.8585289,78.7295835 20.1485253,77.8834342 L12.4350739,68.6909009 C11.7250704,67.8447515 11.8354383,66.5832404 12.6815876,65.8732368 L17.2778543,62.0165111 C19.5553016,60.1055059 22.8357652,60.1755349 25.0245091,62.0433323 L38.1108145,51.0626183 L38.1122575,51.064338 L45.3334523,45.0050361 Z M48.4448999,42.3942215 L37.6200321,33.3110789 L36.3344569,34.8431678 L46.8891761,43.6996288 L48.4448999,42.3942215 L48.4448999,42.3942215 Z M51.5563476,47.6158507 L72.3385457,65.0541854 L73.6241209,63.5220966 L53.1120714,46.3104434 L51.5563476,47.6158507 L51.5563476,47.6158507 Z M82.9664145,64.8341752 L81.4343256,63.5486 C79.742027,62.1285928 77.2190046,62.3493287 75.7989974,64.0416273 L73.227847,67.1058051 C71.8078398,68.7981038 72.0285756,71.3211261 73.7208743,72.7411333 L75.2529632,74.0267085 L82.9664145,64.8341752 Z M84.4985034,66.1197504 L76.7850521,75.3122837 L78.317141,76.597859 L86.0305923,67.4053257 L84.4985034,66.1197504 Z M32.6274915,33.0380618 C32.2724897,33.4611364 32.3276736,34.091892 32.7507483,34.4468938 C33.173823,34.8018956 33.8045786,34.7467117 34.1595804,34.323637 L36.7307308,31.2594592 C37.0857326,30.8363846 37.0305486,30.205629 36.607474,29.8506272 C36.1843993,29.4956254 35.5536437,29.5508093 35.1986419,29.973884 L32.6274915,33.0380618 Z M54.4722079,42.5583388 L54.4707649,42.5566191 L65.9614316,32.914805 L64.6758564,31.3827161 L53.1851897,41.0245302 L53.1866327,41.0262499 L39.3978327,52.5964269 L39.3963897,52.5947072 L26.3736342,63.5220966 L27.6592094,65.0541854 L40.681965,54.1267961 L40.6834079,54.1285158 L54.4722079,42.5583388 Z M24.7447919,74.0267085 L26.2768808,72.7411333 C27.9691795,71.3211261 28.1899153,68.7981038 26.7699081,67.1058051 L24.1987577,64.0416273 C22.7787505,62.3493287 20.2557281,62.1285928 18.5634295,63.5486 L17.0313406,64.8341752 L24.7447919,74.0267085 Z M23.212703,75.3122837 L15.4992517,66.1197504 L13.9671628,67.4053257 L21.6806141,76.597859 L23.212703,75.3122837 Z M71.5004263,33.2541233 C73.2002521,34.8575727 74.9709686,36.2328425 76.6895811,37.2333536 C76.9561835,37.0664216 77.2421716,36.8825127 77.5452664,36.6820091 C81.286281,34.2072496 84.9319442,31.0738965 87.7058478,27.441813 C91.9043358,21.9444125 93.3512936,16.2570853 91.2714138,10.3718009 C85.8367075,7.30155029 79.9845219,7.73893151 73.8415795,10.9190215 C69.7829922,13.0200786 66.064179,16.0662549 62.9773963,19.3206976 C62.727307,19.5843706 62.4965308,19.8340785 62.2858398,20.0676432 C62.9727169,21.933883 64.0196116,23.9165114 65.3035294,25.8689491 C66.4553062,25.4492162 67.7957329,25.7664971 68.6293354,26.759946 L71.2004858,29.8241237 C72.0340884,30.8175726 72.1137865,32.1927304 71.5004263,33.2541233 L71.5004263,33.2541233 Z M67.0972465,28.0455212 C66.7422447,27.6224465 66.1114891,27.5672626 65.6884145,27.9222644 C65.2653398,28.2772661 65.2101558,28.9080217 65.5651576,29.3310964 L68.1363081,32.3952742 C68.4913099,32.8183488 69.1220655,32.8735328 69.5451401,32.518531 C69.9682148,32.1635292 70.0233988,31.5327736 69.668397,31.109699 L67.0972465,28.0455212 Z M50.2769825,68.1041485 C51.3678271,66.68145 53.6833196,65.697091 57.2234598,65.1510713 C57.9427296,68.7730389 57.7791019,71.3313194 56.7325764,72.8259126 C55.1627883,75.0678024 52.6625255,74.6535264 51.2582648,73.6702526 C51.2284486,73.649375 51.1987044,73.6279453 51.1690576,73.6059751 C51.4777993,76.0611487 51.5507119,77.9253115 51.3835974,79.2199477 C56.2272756,80.7548506 67.1603074,89.9381265 64.6233585,92.4934863 C61.3796472,95.7607376 37.9640185,95.9137561 35.2475166,92.4934863 C33.1694058,89.8769964 44.7264787,80.3116879 49.3782959,79.1231189 C49.5536106,78.0464933 49.4902361,76.2808569 49.183224,73.8515347 C49.1390354,73.9234756 49.0933175,73.9931318 49.0462985,74.0602819 C48.0630246,75.4645425 45.8552369,76.7089748 43.613347,75.1391867 C42.1187538,74.0926613 41.0900106,71.744628 40.5271173,68.095087 C44.1490849,67.3758171 46.7073653,67.5394449 48.2019585,68.5859703 C48.2537371,68.6222261 48.3040989,68.6589782 48.3530695,68.6962017 C48.283022,68.3225438 48.2096659,67.9401893 48.1329936,67.5491777 C46.5800084,67.5012717 44.8190063,66.6538413 44.4229925,64.4079355 C44.1061607,62.6110933 45.0390396,60.2233517 47.2216292,57.2447108 C50.2913476,59.2972281 51.9846228,61.2219079 52.3014545,63.0187501 C52.6787651,65.1585846 51.4575088,66.529278 50.093308,67.1523059 C50.1567037,67.4752391 50.2179298,67.7925135 50.2769825,68.1041485 L50.2769825,68.1041485 Z M62.9408277,91.2949643 C62.8541257,91.0478573 62.6796154,90.7084187 62.415455,90.3067924 C61.6497106,89.1425637 60.2895786,87.6851141 58.5968744,86.2074575 C55.2999086,83.3293508 51.4098176,81.0016349 50.2125682,81.0016349 C49.022831,81.0016349 45.1415809,83.3126202 41.7441557,86.2202705 C40.0116877,87.7029848 38.5837584,89.1770761 37.7329061,90.3694616 C37.4122976,90.8187627 37.1927839,91.2026372 37.0784864,91.4871833 C40.1079241,93.5727694 59.5914845,93.5015225 62.9408277,91.2949643 Z M46.392608,64.0606392 C46.5944721,65.2054676 47.5514109,65.716145 48.6802738,65.517096 C49.8091368,65.318047 50.5337032,64.5108749 50.331839,63.3660465 C50.1776676,62.4916969 49.3278016,61.3670294 47.7216109,60.080248 C46.6523904,61.8387766 46.2384366,63.1862896 46.392608,64.0606392 Z M51.8176642,69.384454 C51.1508877,70.3367094 51.4664421,71.3744707 52.4054177,72.0319485 C53.3443933,72.6894262 54.4274959,72.6310152 55.0942723,71.6787597 C55.6035152,70.9514855 55.7978292,69.5552796 55.5719727,67.5096393 C53.5724522,67.9970538 52.326907,68.6571798 51.8176642,69.384454 Z M47.0548057,70.2242744 C46.3275315,69.7150316 44.9313255,69.5207176 42.8856853,69.7465741 C43.3730997,71.7460946 44.0332258,72.9916397 44.7604999,73.5008826 C45.7127554,74.167659 46.7505167,73.8521046 47.4079944,72.913129 C48.0654722,71.9741534 48.0070611,70.8910509 47.0548057,70.2242744 Z" fill="#333333"></path>
    </g>
</svg>