<svg width="100px" height="100px" viewBox="0 0 100 100" version="1.1" xmlns="http://www.w3.org/2000/svg" role="img"
     aria-labelledby="icon-at-risk-children">
    <title id="icon-at-risk-children">Case Management for At-Risk Children</title>
    <g stroke="none" stroke-width="1" fill="none" fill-rule="evenodd">
        <g transform="translate(-860.000000, -615.000000)">
            <g transform="translate(840.000000, 615.000000)">
                <g transform="translate(20.000000, 0.000000)" fill="#333333">
                    <path d="M30,12 C37,16 44,17 53,16 C52.186348,22.5092161 53.1932774,29.6804617 52.6541524,36.7730771 L52.7322808,36.8079541 C55.840088,38.2261505 58,41.360838 58,45 C58,49.9705627 53.9705627,54 49,54 C48.6823144,54 48.3684733,53.9835401 48.0592828,53.9514265 C49.1812601,55.4451106 49.7049071,57.3822711 49.3548648,59.3674597 L49.1310211,60.6297521 L51.2379694,63.6378345 L57.3110606,67.8902587 C59.1206813,69.1573688 59.5604731,71.6515519 58.293363,73.4611726 C57.0262529,75.2707934 54.5320698,75.7105851 52.7224491,74.4434751 L47.358,70.687 L46.962,72.933 L56.3162278,76.0513167 C59.0275166,76.9550797 60.8847565,78.816793 60.9948268,81.7243499 L61,82 C61,85.238372 58.4344487,87.8775706 55.2249697,87.9958615 L55.000032,88 L34.565573,88 C33.9574561,88 33.3573463,87.8613457 32.8108817,87.5945818 C30.9635969,86.6928331 30,85.1096789 30,83 C30,80.8903371 30.9635824,79.30719 32.8108416,78.4054378 C32.9811402,78.3223053 33.1566477,78.2516139 33.335984,78.1936824 C33.2422838,78.019574 33.1558319,77.8403398 33.0770401,77.6574369 C32.8017543,77.1105301 32.6265915,76.513924 32.5655906,75.8977252 L32.5464778,75.6325281 C32.4792555,74.9961312 32.4988661,74.3397919 32.6155372,73.678117 L34.527,62.834 L33.8215717,63.2014607 C32.6238154,63.8145095 31.351482,64.4143578 30,65 C0,52 8.89453125,32 7,16 C16,17 23,16 30,12 Z M74,29 C77.9188119,29 81.252638,31.5046215 82.4880298,35.0004159 L82.5,35 C84.9852814,35 87,37.0147186 87,39.5 C87,41.9852814 84.9852814,44 82.5,44 C82.0341271,44 81.5847892,43.9292057 81.1621572,43.7977883 L80.9437827,43.7236473 L80.7712301,43.928047 L80.5692915,44.1507877 C83.8122237,44.1611582 86.6912293,46.4328444 87.3845698,49.6902514 L87.4324437,49.9363852 L90.3844628,66.678117 C90.4816887,67.2295127 90.5115115,67.7772032 90.4798499,68.3127354 L90.4344094,68.8977252 C90.3734085,69.513924 90.1982457,70.1105301 89.9229599,70.6574369 C89.8441681,70.8403398 89.7577162,71.019574 89.664016,71.1936824 C89.8433523,71.2516139 90.0188598,71.3223053 90.1891584,71.4054378 C92.0364176,72.30719 93,73.8903371 93,76 C93,78.1096789 92.0364031,79.6928331 90.1891183,80.5945818 C89.7207201,80.8232366 89.2129091,80.95777 88.6944252,80.9915417 L88.434427,81 L67.999968,81 L67.7750303,80.9958615 C64.6401903,80.8803216 62.1196762,78.359762 62.0041384,75.2249366 L62,75 L62.0051732,74.7243499 C62.1116928,71.9105851 63.8544795,70.0762785 66.4240855,69.1417711 L66.6837722,69.0513167 L76.038,65.933 L75.642,63.687 L70.2775509,67.4434751 C68.4679302,68.7105851 65.9737471,68.2707934 64.706637,66.4611726 C63.4804014,64.7099268 63.8527212,62.3175715 65.5181024,61.0166487 L65.6889394,60.8902587 L71.7620306,56.6378345 L73.8689789,53.6297521 L73.6451352,52.3674597 C73.2950929,50.3822711 73.8187399,48.4451106 74.9407172,46.9514265 C74.6315267,46.9835401 74.3176856,47 74,47 C69.0294373,47 65,42.9705627 65,38 C65,33.0294373 69.0294373,29 74,29 Z M79.6705486,46.2278837 C77.2867328,46.6482147 75.5972479,48.6927299 75.5394821,51.0227001 L75.5388756,51.2419302 L76.6906263,49.5990704 C77.9577363,47.7894497 80.4519195,47.3496579 82.2615402,48.616768 C84.0127861,49.8430035 84.4811536,52.218423 83.361149,54.0104844 L83.2438426,54.1876819 L78.0816547,61.5600503 C77.9656451,61.7257292 77.8393498,61.8799259 77.7042361,62.0223817 L77.5583718,62.2003969 L77.4345686,62.3363694 L77.956,65.294 L81.6837722,64.0513167 L81.7965362,64.0208204 C82.2866201,63.9183488 82.7865104,64.1972534 82.9486833,64.6837722 C83.1108562,65.170291 82.8782868,65.6933489 82.4247368,65.905422 L82.3162278,65.9486833 L67.3162278,70.9486833 L67.0905076,71.0275536 C65.1634391,71.7329712 64,73.0089838 64,75 C64,77.1421763 65.6839555,78.8910777 67.8003399,78.9951046 L67.9999796,79 L88.434427,79 L88.6161972,78.9917231 C88.8574297,78.9697075 89.0931779,78.9039981 89.3117618,78.7972935 C90.4638939,78.2348822 91,77.3540798 91,76 C91,74.6459303 90.463902,73.7651317 89.3118002,73.2027253 C89.0932086,73.0960183 88.8574486,73.0303044 88.6162,73.0082822 L88.4344169,73 L79,73 L78.8833789,72.9932723 C78.3860402,72.9355072 78,72.5128358 78,72 C78,71.4871642 78.3860402,71.0644928 78.8833789,71.0067277 L79,71 L87.4095109,71.0002916 C87.6267009,70.7259717 87.8162094,70.427553 87.9739039,70.108894 L88.2250572,69.5658552 C88.3339545,69.3057275 88.4059582,69.0317685 88.4385501,68.7524858 L88.4860191,68.1451573 C88.4996699,67.8670711 88.48993,67.5867744 88.4563671,67.3061193 L88.4148473,67.0254134 L85.4628282,50.2836816 C84.983312,47.5642101 82.3900201,45.7483675 79.6705486,46.2278837 Z M41.8856127,57.2550721 C40.9808023,57.8886271 40.7609064,59.1357186 41.3944615,60.040529 L46.5566494,67.4128974 L46.6480273,67.5337202 L46.8788637,67.8001725 C47.0008493,67.9581778 47.1471626,68.0980683 47.3163856,68.2165595 L53.869602,72.805171 C54.7744123,73.438726 56.0215039,73.2188301 56.6550589,72.3140198 C57.288614,71.4092094 57.0687181,70.1621178 56.1639077,69.5285628 L49.8019393,65.0738646 L44.6710696,57.7462233 C44.0375146,56.8414129 42.7904231,56.621517 41.8856127,57.2550721 Z M78.4284457,50.6156596 L78.3289304,50.7462233 L73.1980607,58.0738646 L66.8360923,62.5285628 C65.9312819,63.1621178 65.711386,64.4092094 66.3449411,65.3140198 C66.9468184,66.1735896 68.1024124,66.4150241 68.9922288,65.8938244 L69.130398,65.805171 L75.6836144,61.2165595 C75.8105316,61.1276911 75.9245622,61.0267856 76.0251078,60.9152286 L76.1211363,60.8001725 L76.3519727,60.5337202 L76.4433506,60.4128974 L81.6055385,53.040529 C82.2390936,52.1357186 82.0191977,50.8886271 81.1143873,50.2550721 C80.2548175,49.6531948 79.0863388,49.8215569 78.4284457,50.6156596 Z M30,14.2846366 C23.7398265,17.6237326 17.296799,18.8047393 9.20876094,18.2128355 L9.24907889,18.9760374 L9.27272546,19.6032179 C9.31963234,21.0962101 9.3094638,22.8143847 9.25909757,25.1396344 L9.16155753,29.217482 C9.11548093,31.4662666 9.11798963,32.8434948 9.17454483,34.4416661 L9.21075854,35.2781567 C9.86467665,48.0044058 15.0930718,56.1557075 30,62.8150324 C31.7935806,62.0137851 33.4465671,61.1911188 34.9679447,60.3415504 L35.5675563,56.9363852 C36.1650479,53.547842 39.106703,51.1614174 42.4307085,51.1507877 C40.9230159,49.5423469 40,47.3789644 40,45 C40,40.0294373 44.0294373,36 49,36 C49.469442,36 49.9304895,36.0359416 50.3805406,36.1052231 L50.6909573,36.1586018 C50.7163953,35.7838489 50.737914,35.404564 50.7554732,35.0209667 L50.7788373,34.4423639 C50.8420002,32.6396614 50.8371133,31.1250089 50.7733359,28.2641982 L50.7047398,25.2536113 L50.6808902,23.8494604 L50.6684081,22.5061102 C50.6612218,20.8100831 50.6929746,19.4714533 50.7770285,18.2138738 C42.6956533,18.803355 36.2565067,17.6217768 30,14.2846366 Z M30,16.5361221 L30,60.616071 C22.1355396,56.9606681 17.4089411,52.8004416 14.6931961,48.2507314 C10.6439985,41.4670768 11.032118,34.0156089 11.2164617,26.9369525 C11.2746807,24.7013861 11.3273866,22.492115 11.2820293,20.3305844 C18.2592001,20.5786135 24.1807947,19.4455874 30,16.5361221 Z M28.0000054,54.8847709 L26.3984375,56.4863388 C26.9146347,56.7894963 27.4483757,57.088896 28.0000054,57.3846182 L28.0000054,54.8847709 Z M28.0000054,46.3994896 L21.4068335,52.9926614 C22.3856446,53.8210727 23.4659085,54.6242199 24.6529927,55.4033565 L28.0000054,52.0563438 L28.0000054,46.3994896 Z M49,38 C45.1340068,38 42,41.1340068 42,45 C42,48.8659932 45.1340068,52 49,52 C52.8659932,52 56,48.8659932 56,45 C56,41.1340068 52.8659932,38 49,38 Z M28.0000054,37.9142082 L17.3111099,48.6031036 C18.0589809,49.6522964 18.9279453,50.6656416 19.9260496,51.6450182 L28.0000054,43.5710624 L28.0000054,37.9142082 Z M28.0000054,29.4289268 L14.4753558,42.9535764 C14.9227607,44.3320465 15.4938229,45.6290687 16.2075784,46.878208 L28.0000054,35.0857811 L28.0000054,29.4289268 Z M82.5,37 C81.1192881,37 80,38.1192881 80,39.5 C80,40.8807119 81.1192881,42 82.5,42 C83.8807119,42 85,40.8807119 85,39.5 C85,38.1192881 83.8807119,37 82.5,37 Z M28.0000054,20.9436454 L13.2091708,35.73448 C13.3204802,37.5328769 13.5347251,39.1840903 13.8737935,40.7267116 L28.0000054,26.6004997 L28.0000054,20.9436454 Z M82.279,35.005 L82.5,35 L82.344114,35.0026495 L82.279,35.005 Z M25.6209152,20.4943085 C23.2946952,21.2498785 20.9028424,21.7687107 18.3936987,22.0646708 L13.2089288,27.2494406 L13.1518886,29.4387791 C13.1166354,30.9368716 13.1034778,32.0114708 13.1141397,33.001084 L25.6209152,20.4943085 Z M15.3158789,22.3140634 C14.6530602,22.3443881 13.9813516,22.3607139 13.2999085,22.3632673 C13.2979957,22.9678293 13.2901968,23.6138745 13.2765345,24.3534078 L15.3158789,22.3140634 Z M45.5654314,69.3363694 L45.596,69.368 C45.4902714,69.2598586 45.3892124,69.1434234 45.2957639,69.0223817 C45.1606502,68.8799259 45.0343549,68.7257292 44.9183453,68.5600503 L39.7561574,61.1876819 C38.4890473,59.3780612 38.9288391,56.883878 40.7384598,55.616768 C42.5480805,54.3496579 45.0422637,54.7894497 46.3093737,56.5990704 L47.4611244,58.2419302 C47.5076668,55.8220982 45.7877614,53.6613501 43.3294514,53.2278837 C40.6099799,52.7483675 38.016688,54.5642101 37.5371718,57.2836816 L34.5851527,74.0254134 C34.5191622,74.3996643 34.4957798,74.7743757 34.5139809,75.1451573 L34.5444351,75.5421584 C34.5603458,75.8939246 34.6388211,76.2406956 34.7749428,76.5658552 L34.9138549,76.866165 C35.0907664,77.2768375 35.3190016,77.6573917 35.5904891,78.0002916 L44,78 C44.5522847,78 45,78.4477153 45,79 C45,79.5128358 44.6139598,79.9355072 44.1166211,79.9932723 L44,80 L34.5655831,80 C34.2615044,80.0000095 33.9614392,80.0693416 33.6881998,80.2027253 C32.536098,80.7651317 32,81.6459303 32,83 C32,84.3540798 32.5361061,85.2348822 33.6882382,85.7972935 C33.9068221,85.9039981 34.1425703,85.9697075 34.3838028,85.9917231 L34.565573,86 L55.0000204,86 C57.2091528,86 59,84.2091193 59,82 C59,80.0089838 57.8365609,78.7329712 55.9094924,78.0275536 L55.6837722,77.9486833 L40.6837722,72.9486833 C40.1598289,72.7740355 39.8766689,72.2077156 40.0513167,71.6837722 C40.2134896,71.1972534 40.7133799,70.9183488 41.2034638,71.0208204 L41.3162278,71.0513167 L45.044,72.294 L45.5654314,69.3363694 Z M79.295,42.658 C78.4971225,41.8529418 78,40.7345255 78,39.5 C78,37.7732002 78.9726291,36.2735701 80.3999341,35.5190628 L80.522994,35.4564147 C79.5055717,32.8478927 76.9685851,31 74,31 C70.1340068,31 67,34.1340068 67,38 C67,41.8659932 70.1340068,45 74,45 C76.0950217,45 77.9750832,44.0796462 79.2579245,42.6211988 L79.295,42.658 Z"></path>
                </g>
            </g>
        </g>
    </g>
</svg>