<svg width="100px" height="100px" viewBox="0 0 100 100" version="1.1" xmlns="http://www.w3.org/2000/svg" role="img"
     aria-labelledby="icon-business-grants-title">
    <title id="icon-business-grants-title">Business grants</title>
    <g stroke="none" stroke-width="1" fill="none" fill-rule="evenodd">
        <path d="M25.0002633,86.2398133 L25.0002634,65.2724453 C24.9999487,65.2580346 24.999947,65.2435795 25.0002634,65.2290866 L25.0002635,60.1552947 C19.4024401,59.6618266 13.4997938,60.344183 7.28761117,62.2078378 C6.75861832,62.3665357 6.20113486,62.0663523 6.042437,61.5373594 C5.88373915,61.0083666 6.18392255,60.4508831 6.7129154,60.2921852 C13.5040456,58.2548462 19.9718072,57.5740292 26.1106948,58.2561278 C26.6171275,58.3123981 27.0002633,58.7404623 27.0002633,59.2500115 L27.0002633,61.5727805 C28.0216645,60.700117 29.3653691,60.2500115 31.0002633,60.2500115 L62.0002633,60.2500115 C65.7874375,60.2500115 68.9263706,62.3116917 69.7743527,65.1826545 C75.0915042,61.7234038 79.442485,59.748113 82.8588419,59.260062 C87.9457425,58.5333619 91.4057486,60.0711424 92.92874,63.8786208 C93.0950077,64.2942901 92.9647454,64.7698194 92.6098549,65.0427271 C83.8307177,71.79381 74.1608772,79.129551 63.6002633,87.0500115 C60.6702288,89.2475374 48.7281997,89.2834332 27.0002633,87.3441486 L27.0002633,88.2500115 C27.0002633,88.6287836 26.7862609,88.9750467 26.4474769,89.1444387 C23.6716138,90.5323703 19.906087,91.5593321 15.1416846,92.239961 C14.5949506,92.3180659 14.0884187,91.9381669 14.0103138,91.3914329 C13.9322089,90.8446989 14.3121079,90.3381669 14.8588419,90.260062 C19.1074574,89.653117 22.4904003,88.7691792 25.0002633,87.6200178 L25.0002633,86.2625257 C25.0001779,86.2549716 25.0001776,86.2474004 25.0002633,86.2398133 L25.0002633,86.2398133 Z M27.0002633,85.3361236 C48.0191908,87.215641 60.078898,87.1910355 62.4002633,85.4500115 C72.7013485,77.7241976 82.1537431,70.5555472 90.7573817,63.9441174 C89.4939449,61.5864915 87.0350524,60.6837656 83.1416846,61.239961 C78.6911936,61.8757454 72.1499217,65.473445 63.609974,72.0426355 C63.4608428,72.1573518 63.2823736,72.2276688 63.0950724,72.245507 L42.0950724,74.245507 C41.5452754,74.2978686 41.0571294,73.8946176 41.0047678,73.3448206 C40.9524062,72.7950236 41.3556572,72.3068777 41.9054542,72.254516 L62.6192946,70.2817693 C64.4981364,68.842058 66.284922,67.5417105 67.9805606,66.3808214 C67.73664,64.103696 65.2541669,62.2500115 62.0002633,62.2500115 L31.0002633,62.2500115 C28.8359465,62.2500115 27.5716705,63.2311496 27.0002633,65.3768516 L27.0002633,85.3361236 Z M17.0002633,64.2500115 C17.0002633,63.6977268 17.4479785,63.2500115 18.0002633,63.2500115 C18.552548,63.2500115 19.0002633,63.6977268 19.0002633,64.2500115 L19.0002633,70.2500115 C19.0002633,70.8022963 18.552548,71.2500115 18.0002633,71.2500115 C17.4479785,71.2500115 17.0002633,70.8022963 17.0002633,70.2500115 L17.0002633,64.2500115 Z M39,48 L19,48 C16.790861,48 15,46.209139 15,44 L15,12 C15,9.790861 16.790861,8 19,8 L39,8 L37,8 L81,8 C83.209139,8 85,9.790861 85,12 L85,44 C85,46.209139 83.209139,48 81,48 L37,48 L39,48 Z M19,46 L81,46 C82.0527336,46 82.9154968,45.1866401 82.9941549,44.1540551 C82.9158374,45.1869438 82.0529414,46.0006248 81,46.0006248 L74.0493752,46.0006248 C74.5184439,41.2762083 78.2755835,37.5190686 83,37.05 L83,44.0006248 C83,44.0522529 82.9980438,44.1034241 82.9942014,44.1540683 C82.998028,44.1032113 83,44.0518359 83,44 L83,18.9506248 C78.2755835,18.4815561 74.5184439,14.7244165 74.0493752,10 L37,10 L39,10 L25.9506248,10 C25.4815561,14.7244165 21.7244165,18.4815561 17,18.9506248 L17,44 C17,44.0518359 17.001972,44.1032113 17.0057986,44.1540683 C17.0019562,44.1034241 17,44.0522529 17,44.0006248 L17,37.05 C21.7244165,37.5190686 25.4815561,41.2762083 25.9506248,46.0006248 L19,46.0006248 C17.9470586,46.0006248 17.0841626,45.1869438 17.0058451,44.1540551 C17.0845032,45.1866401 17.9472664,46 19,46 Z M50,44 C43.372583,44 38,36.836556 38,28 C38,19.163444 43.372583,12 50,12 C56.627417,12 62,19.163444 62,28 C62,36.836556 56.627417,44 50,44 Z M50,42 C55.5228475,42 60,35.7319865 60,28 C60,20.2680135 55.5228475,14 50,14 C44.4771525,14 40,20.2680135 40,28 C40,35.7319865 44.4771525,42 50,42 Z M51.011,20.0888889 C51.8650043,20.2222229 52.6174967,20.5111089 53.2685,20.9555556 C53.9195033,21.4000022 54.4199983,21.9037009 54.77,22.4666667 C55.1200018,23.0296324 55.3089999,23.5481458 55.337,24.0222222 C55.3510001,24.1555562 55.3090005,24.2703699 55.211,24.3666667 C55.1129995,24.4629634 55.0010006,24.5111111 54.875,24.5111111 L54.014,24.5111111 C53.8459992,24.5111111 53.7200004,24.4777781 53.636,24.4111111 C53.5519996,24.3444441 53.4610005,24.2148158 53.363,24.0222222 C53.1389989,23.5629607 52.7505028,23.1111133 52.1975,22.6666667 C51.6444972,22.22222 50.9130046,22 50.003,22 C49.1629958,22 48.4525029,22.199998 47.8715,22.6 C47.2904971,23 47,23.5703667 47,24.3111111 C47,24.8148173 47.1434986,25.2259243 47.4305,25.5444444 C47.7175014,25.8629646 48.1514971,26.1370359 48.7325,26.3666667 C49.3135029,26.5962974 50.1919941,26.8740724 51.368,27.2 C52.964008,27.6444467 54.0944967,28.1888857 54.7595,28.8333333 C55.4245033,29.477781 55.757,30.35555 55.757,31.4666667 C55.757,32.6814876 55.3265043,33.6962922 54.4655,34.5111111 C53.6044957,35.32593 52.4530072,35.8074067 51.011,35.9555556 L51.011,37.4 C51.011,37.5629638 50.9550006,37.7037031 50.843,37.8222222 C50.7309994,37.9407413 50.5980008,38 50.444,38 L49.583,38 C49.4289992,38 49.2960006,37.9407413 49.184,37.8222222 C49.0719994,37.7037031 49.016,37.5629638 49.016,37.4 L49.016,35.9111111 C48.1619957,35.7777771 47.3920034,35.4962984 46.706,35.0666667 C46.0199966,34.6370349 45.481002,34.1370399 45.089,33.5666667 C44.696998,32.9962934 44.4940001,32.4296324 44.48,31.8666667 C44.48,31.7333327 44.5254995,31.618519 44.6165,31.5222222 C44.7075005,31.4259254 44.8159994,31.3777778 44.942,31.3777778 L45.803,31.3777778 C45.9570008,31.3777778 46.0829995,31.4111108 46.181,31.4777778 C46.2790005,31.5444448 46.3699996,31.6740731 46.454,31.8666667 C46.6780011,32.4000027 47.087497,32.8888867 47.6825,33.3333333 C48.277503,33.77778 49.0859949,34 50.108,34 C51.1300051,34 51.9944965,33.766669 52.7015,33.3 C53.4085035,32.833331 53.762,32.222226 53.762,31.4666667 C53.762,30.9777753 53.5765019,30.5666683 53.2055,30.2333333 C52.8344981,29.8999983 52.3270032,29.6185197 51.683,29.3888889 C51.0389968,29.1592581 50.0940062,28.8740758 48.848,28.5333333 C47.4899932,28.1629611 46.510003,27.6259294 45.908,26.9222222 C45.305997,26.218515 45.005,25.3481533 45.005,24.3111111 C45.005,23.6296262 45.1554985,22.9888919 45.4565,22.3888889 C45.7575015,21.7888859 46.208997,21.2814836 46.811,20.8666667 C47.413003,20.4518498 48.1479957,20.1851858 49.016,20.0666667 L49.016,18.6 C49.016,18.4370362 49.0719994,18.2962969 49.184,18.1777778 C49.2960006,18.0592587 49.4289992,18 49.583,18 L50.444,18 C50.5980008,18 50.7309994,18.0592587 50.843,18.1777778 C50.9550006,18.2962969 51.011,18.4370362 51.011,18.6 L51.011,20.0888889 Z M82.9981062,16.9381062 L82.9981062,12 C82.9981062,10.8954305 82.1026757,10 80.9981062,10 L76.06,10 C76.5112477,13.6187173 79.3793889,16.4868586 82.9981062,16.9381062 Z M82.9981062,39.06 C79.3793889,39.5112477 76.5112477,42.3793889 76.06,45.9981062 L80.9981062,45.9981062 C82.1026757,45.9981062 82.9981062,45.1026757 82.9981062,43.9981062 L82.9981062,39.06 Z M17.0018938,16.9381062 C20.6206111,16.4868586 23.4887523,13.6187173 23.94,10 L19.0018938,10 C17.8973243,10 17.0018938,10.8954305 17.0018938,12 L17.0018938,16.9381062 Z M17.0018938,39.06 L17.0018938,43.9981062 C17.0018938,45.1026757 17.8973243,45.9981062 19.0018938,45.9981062 L23.94,45.9981062 C23.4887523,42.3793889 20.6206111,39.5112477 17.0018938,39.06 Z M16,50 L84,50 C83.317706,51.1956032 82.0424549,52 80.581861,52 L19.418139,52 C17.9575451,52 16.682294,51.1956032 16,50 Z M16,54 L84,54 C83.317706,55.1956032 82.0424549,56 80.581861,56 L19.418139,56 C17.9575451,56 16.682294,55.1956032 16,54 Z" fill="#333333"></path>
    </g>
</svg>