<svg width="100px" height="100px" viewBox="0 0 100 100" version="1.1" xmlns="http://www.w3.org/2000/svg" role="img"
     aria-labelledby="icon-business-training-title">
    <title id="icon-business-training-title">Business skills training</title>
    <g stroke="none" stroke-width="1" fill="none" fill-rule="evenodd">
        <path d="M34.8186238,69 C34.3065868,71.7875758 32.7436873,74.2074796 30.5558155,75.8338216 C32.0713807,77.4445415 33,79.6138254 33,82 L33,85 C33,88.3137085 30.3137085,91 27,91 L21,91 C17.6862915,91 15,88.3137085 15,85 L15,82 C15,79.6138254 15.9286193,77.4445415 17.4441845,75.8338216 C15.2563127,74.2074796 13.6934132,71.7875758 13.1813762,69 L9,69 C6.790861,69 5,67.209139 5,65 L5,9 C5,6.790861 6.790861,5 9,5 L91,5 C93.209139,5 95,6.790861 95,9 L95,65 C95,67.209139 93.209139,69 91,69 L86.8186238,69 C86.3065868,71.7875758 84.7436873,74.2074796 82.5558155,75.8338216 C84.0713807,77.4445415 85,79.6138254 85,82 L85,85 C85,88.3137085 82.3137085,91 79,91 L73,91 C69.6862915,91 67,88.3137085 67,85 L67,82 C67,79.6138254 67.9286193,77.4445415 69.4441845,75.8338216 C67.2563127,74.2074796 65.6934132,71.7875758 65.1813762,69 L60.8186238,69 C60.9377534,69.6485525 61,70.317007 61,71 C61,74.6185992 59.2527138,77.8290978 56.5558155,79.8338216 C58.0713807,81.4445415 59,83.6138254 59,86 L59,89 C59,92.3137085 56.3137085,95 53,95 L47,95 C43.6862915,95 41,92.3137085 41,89 L41,86 C41,83.6138254 41.9286193,81.4445415 43.4441845,79.8338216 C40.7472862,77.8290978 39,74.6185992 39,71 C39,70.317007 39.0622466,69.6485525 39.1813762,69 L34.8186238,69 L34.8186238,69 Z M35,67 L39.7498806,67 C41.3500188,62.9026431 45.3360351,60 50,60 C54.6639649,60 58.6499812,62.9026431 60.2501194,67 L65,67 C65,60.9248678 69.9248678,56 76,56 C82.0751322,56 87,60.9248678 87,67 L91,67 C92.1045695,67 93,66.1045695 93,65 L93,9 C93,7.8954305 92.1045695,7 91,7 L9,7 C7.8954305,7 7,7.8954305 7,9 L7,65 C7,66.1045695 7.8954305,67 9,67 L13,67 C13,60.9248678 17.9248678,56 24,56 C30.0751322,56 35,60.9248678 35,67 L35,67 Z M45.2032343,80.9018316 C43.8468823,82.1784793 43,83.9903397 43,86 L43,89 C43,91.209139 44.790861,93 47,93 L53,93 C55.209139,93 57,91.209139 57,89 L57,86 C57,83.9903397 56.1531177,82.1784793 54.7967657,80.9018316 C53.3470757,81.6054088 51.7196187,82 50,82 C48.2803813,82 46.6529243,81.6054088 45.2032343,80.9018316 L45.2032343,80.9018316 Z M50,80 C54.9705627,80 59,75.9705627 59,71 C59,66.0294373 54.9705627,62 50,62 C45.0294373,62 41,66.0294373 41,71 C41,75.9705627 45.0294373,80 50,80 Z M71.2032343,76.9018316 C69.8468823,78.1784793 69,79.9903397 69,82 L69,85 C69,87.209139 70.790861,89 73,89 L79,89 C81.209139,89 83,87.209139 83,85 L83,82 C83,79.9903397 82.1531177,78.1784793 80.7967657,76.9018316 C79.3470757,77.6054088 77.7196187,78 76,78 C74.2803813,78 72.6529243,77.6054088 71.2032343,76.9018316 L71.2032343,76.9018316 Z M76,76 C80.9705627,76 85,71.9705627 85,67 C85,62.0294373 80.9705627,58 76,58 C71.0294373,58 67,62.0294373 67,67 C67,71.9705627 71.0294373,76 76,76 Z M19.2032343,76.9018316 C17.8468823,78.1784793 17,79.9903397 17,82 L17,85 C17,87.209139 18.790861,89 21,89 L27,89 C29.209139,89 31,87.209139 31,85 L31,82 C31,79.9903397 30.1531177,78.1784793 28.7967657,76.9018316 C27.3470757,77.6054088 25.7196187,78 24,78 C22.2803813,78 20.6529243,77.6054088 19.2032343,76.9018316 L19.2032343,76.9018316 Z M24,76 C28.9705627,76 33,71.9705627 33,67 C33,62.0294373 28.9705627,58 24,58 C19.0294373,58 15,62.0294373 15,67 C15,71.9705627 19.0294373,76 24,76 Z M56.8850001,46.885 L56.888401,46.8884009 C49.9913483,49.1379246 41.4730838,49.7046391 33.4260416,48.0309912 C22.6415062,45.7879913 15.7350325,40.15162 15.055279,34 L15,34 L15,29 C15,27.1831528 15.5452974,25.3353866 16.6957655,23.5291666 C21.9833167,15.2277794 38.0465309,10.9475509 52.5739585,13.9690088 C63.9405013,16.3330563 70.9991143,22.4666172 71,29 L71,33 L47,33 L56.888401,42.8884009 L56.8850001,42.8895099 L56.8850001,46.885 L56.8850001,46.885 Z M54.8850001,45.4550084 L54.8850001,43.4823072 C48.3805579,45.2252379 40.7102421,45.545981 33.4260416,44.0309912 C25.9792701,42.4821894 20.3815452,39.3154395 17.4061167,35.4783067 C19.578986,42.0281686 30.2112048,47 43.0000001,47 C47.2823554,47 51.3229026,46.4425287 54.8850001,45.4550084 L54.8850001,45.4550084 Z M45.0000001,31 L69.0000001,31 L69.0000001,29 L43.0000001,29 L45.0000001,31 Z M38.171573,27 L68.7170925,27 C67.3640265,22.2134755 61.2415321,17.8145156 52.1667075,15.9271065 C38.3725119,13.0581484 23.153503,17.1134286 18.3826419,24.603619 C14.0431106,31.416627 20.4711889,39.2938032 33.8332927,42.0728935 C40.173608,43.3915713 47.000261,43.2817873 53.051136,41.879563 L38.171573,27 Z M64.9170962,37 L61.8284272,37 L63.7865649,38.9581377 L64.9170962,37 Z M67.2264973,37 L65.2506665,40.4222393 L68.1788698,43.3504425 L71.8452995,37 L67.2264973,37 Z M74.1547005,37 L69.6429714,44.8145442 L71.4230438,46.5946166 C72.2545804,46.2898148 73.0479101,45.9617515 73.8008302,45.6129214 L78.7735027,37 L74.1547005,37 Z M81.0829038,37 L77.205387,43.7160561 C80.1170222,41.7635709 82.0336427,39.4356524 82.7188938,37 L81.0829038,37 Z M57.0000001,39 L57.0000001,35 L85.0000001,35 L85.0000001,39 C85.0000001,44.9471657 79.3217577,50.1364887 70.8942616,52.8942615 L57.0000001,39 Z M59.0000001,38.197496 L71.4230438,50.5946166 C77.2731021,48.4502634 81.2321263,45.1545882 82.5331092,41.5763158 C80.0969302,44.6600343 76.0001827,47.2234247 70.8942616,48.8942615 L59.0000001,37 L59.0000001,38.197496 Z" fill="#333333"></path>
    </g>
</svg>