<svg width="100px" height="100px" viewBox="0 0 100 100" version="1.1" xmlns="http://www.w3.org/2000/svg" role="img"
     aria-labelledby="icon-cash-title">
    <title id="icon-cash-title">Unconditional Cash Transfer</title>
    <g stroke="none" stroke-width="1" fill="none" fill-rule="evenodd">
        <path d="M29,72 C29.5522847,72 30,72.4477153 30,73 C30,73.5522847 29.5522847,74 29,74 L8,74 C7.44771525,74 7,73.5522847 7,73 C7,72.4477153 7.44771525,72 8,72 L29,72 Z M94,26 C96.209139,26 98,27.790861 98,30 L98,70 C98,72.209139 96.209139,74 94,74 L39.118034,74 C38.7364146,74 38.427051,73.6906364 38.427051,73.309017 C38.427051,73.2017453 38.4520266,73.0959467 38.5,73 C38.806433,72.3871339 39.4328289,72 40.118034,72 L87.0493752,72.0006248 C87.5184439,67.2762083 91.2755835,63.5190686 96,63.05 L96,36.9506248 C91.2755835,36.4815561 87.5184439,32.7244165 87.0493752,28 L62.118034,28 C61.7364146,28 61.427051,27.6906364 61.427051,27.309017 C61.427051,27.2017453 61.4520266,27.0959467 61.5,27 C61.806433,26.3871339 62.4328289,26 63.118034,26 L94,26 Z M94.3095865,71.9768088 L94.156411,71.9939741 L94.156411,71.9939741 L94,72 L94.1564415,71.9945965 C94.2080641,71.9906024 94.2591372,71.9846484 94.3095865,71.9768088 Z M95.9981062,65.06 C92.3793889,65.5112477 89.5112477,68.3793889 89.06,71.9981062 L89.06,71.9981062 L93.9981062,71.9981062 C95.1026757,71.9981062 95.9981062,71.1026757 95.9981062,69.9981062 L95.9981062,69.9981062 Z M94.7446474,71.8567784 L94.6042031,71.9077388 C94.6869022,71.8815625 94.7672754,71.8501557 94.8449345,71.8139068 L94.7446474,71.8567784 L94.7446474,71.8567784 Z M95.1340699,71.6476119 C95.0937851,71.6753932 95.0524313,71.7017353 95.0100826,71.7265638 L94.8802826,71.7969817 C94.9953097,71.740507 95.104119,71.6733093 95.2054068,71.5966919 Z M95.6488788,71.1322306 L95.615,71.177 L95.6490795,71.1325413 C95.6591445,71.1179051 95.6690197,71.1031281 95.6787015,71.0882141 L95.6488788,71.1322306 L95.6488788,71.1322306 Z M64,34 C70.627417,34 76,41.163444 76,50 C76,58.836556 70.627417,66 64,66 C57.372583,66 52,58.836556 52,50 C52,41.163444 57.372583,34 64,34 Z M64,36 C58.4771525,36 54,42.2680135 54,50 C54,57.7319865 58.4771525,64 64,64 C69.5228475,64 74,57.7319865 74,50 C74,42.2680135 69.5228475,36 64,36 Z M64.444,40 C64.5980008,40 64.7309994,40.0592587 64.843,40.1777778 C64.9550006,40.2962969 65.011,40.4370362 65.011,40.6 L65.011,40.6 L65.011,42.0888889 C65.8650043,42.2222229 66.6174967,42.5111089 67.2685,42.9555556 C67.9195033,43.4000022 68.4199983,43.9037009 68.77,44.4666667 C69.1200018,45.0296324 69.3089999,45.5481458 69.337,46.0222222 C69.3510001,46.1555562 69.3090005,46.2703699 69.211,46.3666667 C69.1129995,46.4629634 69.0010006,46.5111111 68.875,46.5111111 L68.875,46.5111111 L68.014,46.5111111 C67.8459992,46.5111111 67.7200004,46.4777781 67.636,46.4111111 C67.5519996,46.3444441 67.4610005,46.2148158 67.363,46.0222222 C67.1389989,45.5629607 66.7505028,45.1111133 66.1975,44.6666667 C65.6444972,44.22222 64.9130046,44 64.003,44 C63.1629958,44 62.4525029,44.199998 61.8715,44.6 C61.2904971,45 61,45.5703667 61,46.3111111 C61,46.8148173 61.1434986,47.2259243 61.4305,47.5444444 C61.7175014,47.8629646 62.1514971,48.1370359 62.7325,48.3666667 C63.3135029,48.5962974 64.1919941,48.8740724 65.368,49.2 C66.964008,49.6444467 68.0944967,50.1888857 68.7595,50.8333333 C69.4245033,51.477781 69.757,52.35555 69.757,53.4666667 C69.757,54.6814876 69.3265043,55.6962922 68.4655,56.5111111 C67.6044957,57.32593 66.4530072,57.8074067 65.011,57.9555556 L65.011,57.9555556 L65.011,59.4 C65.011,59.5629638 64.9550006,59.7037031 64.843,59.8222222 C64.7309994,59.9407413 64.5980008,60 64.444,60 L64.444,60 L63.583,60 C63.4289992,60 63.2960006,59.9407413 63.184,59.8222222 C63.0719994,59.7037031 63.016,59.5629638 63.016,59.4 L63.016,59.4 L63.016,57.9111111 C62.1619957,57.7777771 61.3920034,57.4962984 60.706,57.0666667 C60.0199966,56.6370349 59.481002,56.1370399 59.089,55.5666667 C58.696998,54.9962934 58.4940001,54.4296324 58.48,53.8666667 C58.48,53.7333327 58.5254995,53.618519 58.6165,53.5222222 C58.7075005,53.4259254 58.8159994,53.3777778 58.942,53.3777778 L58.942,53.3777778 L59.803,53.3777778 C59.9570008,53.3777778 60.0829995,53.4111108 60.181,53.4777778 C60.2790005,53.5444448 60.3699996,53.6740731 60.454,53.8666667 C60.6780011,54.4000027 61.087497,54.8888867 61.6825,55.3333333 C62.277503,55.77778 63.0859949,56 64.108,56 C65.1300051,56 65.9944965,55.766669 66.7015,55.3 C67.4085035,54.833331 67.762,54.222226 67.762,53.4666667 C67.762,52.9777753 67.5765019,52.5666683 67.2055,52.2333333 C66.8344981,51.8999983 66.3270032,51.6185197 65.683,51.3888889 C65.0389968,51.1592581 64.0940062,50.8740758 62.848,50.5333333 C61.4899932,50.1629611 60.510003,49.6259294 59.908,48.9222222 C59.305997,48.218515 59.005,47.3481533 59.005,46.3111111 C59.005,45.6296262 59.1554985,44.9888919 59.4565,44.3888889 C59.7575015,43.7888859 60.208997,43.2814836 60.811,42.8666667 C61.413003,42.4518498 62.1479957,42.1851858 63.016,42.0666667 L63.016,42.0666667 L63.016,40.6 C63.016,40.4370362 63.0719994,40.2962969 63.184,40.1777778 C63.2960006,40.0592587 63.4289992,40 63.583,40 L63.583,40 Z M37,57 C37.5522847,57 38,57.4477153 38,58 C38,58.5522847 37.5522847,59 37,59 L19,59 C18.4477153,59 18,58.5522847 18,58 C18,57.4477153 18.4477153,57 19,57 L37,57 Z M45,41 C45.5522847,41 46,41.4477153 46,42 C46,42.5522847 45.5522847,43 45,43 L3,43 C2.44771525,43 2,42.5522847 2,42 C2,41.4477153 2.44771525,41 3,41 L45,41 Z M93.9981062,28 L89.06,28 C89.5112477,31.6187173 92.3793889,34.4868586 95.9981062,34.9381062 L95.9981062,34.9381062 L95.9981062,30 C95.9981062,28.8954305 95.1026757,28 93.9981062,28 L93.9981062,28 Z M52,26 C52.5522847,26 53,26.4477153 53,27 C53,27.5522847 52.5522847,28 52,28 L17,28 C16.4477153,28 16,27.5522847 16,27 C16,26.4477153 16.4477153,26 17,26 L52,26 Z M95.4659717,71.3611148 C95.4991739,71.3253537 95.5310836,71.2883759 95.5616263,71.2502555 L95.597,71.201 L95.5614193,71.2499044 C95.5308753,71.2880116 95.4989651,71.3249766 95.4657631,71.3607251 L95.414,71.412 Z" fill="#1B77D4"></path>
    </g>
</svg>