<svg width="100px" height="100px" viewBox="0 0 100 100" version="1.1" xmlns="http://www.w3.org/2000/svg" role="img"
     aria-labelledby="icon-child-friendly-spaces-title">
    <title id="icon-child-friendly-spaces-title">Child Friendly Spaces</title>
    <g stroke="none" stroke-width="1" fill="none" fill-rule="evenodd">
        <path d="M32.0001599,49.0442646 C32.0000533,49.0295223 32,49.0147674 32,49 C32,45.6862915 34.6862915,43 38,43 C41.3137085,43 44,45.6862915 44,49 C44,52.3137085 41.3137085,55 38,55 C37.5989886,55 37.2071656,54.9606597 36.8281799,54.8856279 C36.1138479,56.5555276 34.3222847,57.5771308 32.4564771,57.2481385 L24.5780151,55.8589531 C24.168821,55.7868012 23.7852004,55.6548275 23.4345614,55.4736122 C23.2519024,55.4016049 23.0722737,55.3152299 22.8971143,55.2141016 L21.1492291,54.2049596 L19.9628043,60.9335089 L29.3162278,64.0513167 C32.1122444,64.9833222 34,66.9340856 34,70 C34,73.313683 31.3137332,76 28.000032,76 L7.56557302,76 C6.9574561,76 6.35734627,75.8613457 5.81088166,75.5945818 C3.96359695,74.6928331 3,73.1096789 3,71 C3,68.8903371 3.96358243,67.30719 5.81084157,66.4054378 C5.98101981,66.3223641 6.15639944,66.2517139 6.33560355,66.1938054 C6.24200004,66.0189857 6.15570255,65.8400396 6.07704009,65.6574369 C5.7624278,65.0324006 5.57858836,64.3424509 5.54647779,63.6325281 C5.47925554,62.9961312 5.49886611,62.3397919 5.61553724,61.678117 L8.56755626,44.9363852 C9.16498982,41.5481712 12.1061315,39.1618811 15.4297398,39.1507909 C13.922721,37.5416558 13,35.3785844 13,33 C13,28.0294373 17.0294373,24 22,24 C26.9705627,24 31,28.0294373 31,33 C31,37.9705627 26.9705627,42 22,42 C21.682903,42 21.3696362,41.983601 21.0610013,41.9516048 C21.8673373,43.0270517 22.3644056,44.3314728 22.4493577,45.7179849 L26.5444206,48.0822706 L32.0001598,49.0442646 L32.0001599,49.0442646 Z M37.1317043,52.905497 C37.4112659,52.9673739 37.7018228,53 38,53 C40.209139,53 42,51.209139 42,49 C42,46.790861 40.209139,45 38,45 C35.790861,45 34,46.790861 34,49 C34,49.1365035 34.0068376,49.27141 34.020189,49.4043956 C35.7335206,49.7844221 36.9622928,51.2250897 37.1317043,52.905497 L37.1317043,52.905497 Z M18.0446896,60.2941373 L19.3060191,53.1407818 L15.1028857,50.7141016 C13.1897152,49.6095321 12.5342146,47.1631705 13.6387841,45.25 C14.7433536,43.3368295 17.1897152,42.6813289 19.1028857,43.7858984 L20.1391146,44.3841654 C19.5349325,42.7899195 18.1303254,41.5454264 16.3294514,41.2278837 C13.6099799,40.7483675 11.016688,42.5642101 10.5371718,45.2836816 L7.58515275,62.0254134 C7.50266458,62.493227 7.48675159,62.9617602 7.53541272,63.4224381 L7.54443508,63.5421584 C7.56352799,63.9642778 7.67271385,64.3792042 7.86349393,64.7582246 L7.91385495,64.866165 C8.09071637,65.2767214 8.31887255,65.6571764 8.5902588,66 L17,66 C17.5522847,66 18,66.4477153 18,67 C18,67.5522847 17.5522847,68 17,68 L7.56558312,68 C7.26150442,68.0000095 6.96143924,68.0693416 6.68819984,68.2027253 C5.53609805,68.7651317 5,69.6459303 5,71 C5,72.3540798 5.53610605,73.2348822 6.68823825,73.7972935 C6.96146806,73.9306742 7.26151717,74 7.56557302,74 L28.0000204,74 C30.2091528,74 32,72.2091193 32,70 C32,67.9324062 30.7453446,66.6358741 28.6837722,65.9486833 L13.6837722,60.9486833 C13.1598289,60.7740355 12.8766689,60.2077156 13.0513167,59.6837722 C13.2259645,59.1598289 13.7922844,58.8766689 14.3162278,59.0513167 L18.0446896,60.2941373 Z M24.3528091,53.6968676 C24.5301416,53.7885156 24.7218668,53.8534648 24.9253114,53.8893376 L32.8037735,55.278523 C33.8915621,55.4703295 34.9288788,54.7439925 35.1206853,53.6562039 C35.3124918,52.5684153 34.5861548,51.5310985 33.4983662,51.339292 L25.8498279,49.9906484 L18.1028857,45.5179492 C17.1463004,44.9656644 15.9231196,45.2934148 15.3708349,46.25 C14.8185501,47.2065852 15.1463004,48.4297661 16.1028857,48.9820508 L23.8971143,53.4820508 C23.9852445,53.5329328 24.0756791,53.5765545 24.168057,53.6129713 L24.3528091,53.6968676 Z M22,40 C25.8659932,40 29,36.8659932 29,33 C29,29.1340068 25.8659932,26 22,26 C18.1340068,26 15,29.1340068 15,33 C15,36.8659932 18.1340068,40 22,40 Z M63.167511,54.8714138 C62.386046,55.4326464 61.290939,55.3620068 60.5884271,54.6594949 L56.3457864,50.4168542 C55.5647379,49.6358057 55.5647379,48.3694757 56.3457864,47.5884271 L60.5884271,43.3457864 C61.3694757,42.5647379 62.6358057,42.5647379 63.4168542,43.3457864 L67.6594949,47.5884271 C68.0496766,47.9786088 68.2449386,48.4898979 68.2452809,49.0012933 L73.457318,48.0822706 L77.5523809,45.7179849 C77.637333,44.3314728 78.1344013,43.0270517 78.9407373,41.9516048 C78.6321025,41.983601 78.3188356,42 78.0017386,42 C73.0311759,42 69.0017386,37.9705627 69.0017386,33 C69.0017386,28.0294373 73.0311759,24 78.0017386,24 C81.9203995,24 85.2541197,26.5044285 86.4896256,30.0000117 L86.5,30 C88.9852814,30 91,32.0147186 91,34.5 C91,36.9852814 88.9852814,39 86.5,39 C85.9540633,39 85.4308332,38.9027817 84.9466774,38.7247131 C84.8262257,38.870672 84.7012616,39.0127692 84.5719988,39.1507909 C87.8956072,39.1618811 90.8367488,41.5481712 91.4341824,44.9363852 L94.3862014,61.678117 C94.5028725,62.3397919 94.5224831,62.9961312 94.4552608,63.6325281 C94.4231503,64.3424509 94.2393108,65.0324006 93.9246985,65.6574369 C93.8460361,65.8400396 93.7597386,66.0189857 93.6661351,66.1938054 C93.8453392,66.2517139 94.0207188,66.3223641 94.190897,66.4054378 C96.0381562,67.30719 97.0017386,68.8903371 97.0017386,71 C97.0017386,73.1096789 96.0381417,74.6928331 94.190857,75.5945818 C93.6443923,75.8613457 93.0442825,76 92.4361656,76 L72.0017067,76 C68.6880054,76 66.0017386,73.313683 66.0017386,70 C66.0017386,66.9340856 67.8894942,64.9833222 70.6855108,64.0513167 L80.0389343,60.9335089 L78.8525095,54.2049596 L77.1046243,55.2141016 C76.9294649,55.3152299 76.7498363,55.4016049 76.5671772,55.4736122 C76.2165382,55.6548275 75.8329176,55.7868012 75.4237235,55.8589531 L67.5452615,57.2481385 C65.6741658,57.5780632 63.877736,56.5497259 63.167511,54.8714138 Z M65.7983897,49.4495324 L66.2452814,49.0026407 L62.0026407,44.76 L57.76,49.0026407 L62.0026407,53.2452814 L62.9903187,52.2576034 C63.3548401,50.9226539 64.4014689,49.8286698 65.7983897,49.4495324 L65.7983897,49.4495324 Z M84.5249062,30.4554786 C83.5068772,27.8475772 80.9700703,26 78.0017386,26 C74.1357454,26 71.0017386,29.1340068 71.0017386,33 C71.0017386,36.8659932 74.1357454,40 78.0017386,40 C80.0964244,40 81.9762189,39.0799414 83.259046,37.6219003 C82.4794322,36.8127446 82,35.712361 82,34.5 C82,32.7232569 83.0297043,31.1870141 84.5249062,30.4554786 Z M81.9570491,60.2941373 L85.6855108,59.0513167 C86.2094542,58.8766689 86.7757741,59.1598289 86.9504219,59.6837722 C87.1250697,60.2077156 86.8419097,60.7740355 86.3179664,60.9486833 L71.3179664,65.9486833 C69.256394,66.6358741 68.0017386,67.9324062 68.0017386,70 C68.0017386,72.2091193 69.7925858,74 72.0017182,74 L92.4361656,74 C92.7402214,74 93.0402706,73.9306742 93.3135004,73.7972935 C94.4656326,73.2348822 95.0017386,72.3540798 95.0017386,71 C95.0017386,69.6459303 94.4656406,68.7651317 93.3135388,68.2027253 C93.0402994,68.0693416 92.7402342,68.0000095 92.4361555,68 L83.0017386,68 C82.4494539,68 82.0017386,67.5522847 82.0017386,67 C82.0017386,66.4477153 82.4494539,66 83.0017386,66 L91.4114798,66 C91.6828661,65.6571764 91.9110222,65.2767214 92.0878837,64.866165 L92.1382447,64.7582246 C92.3290248,64.3792042 92.4382106,63.9642778 92.4573035,63.5421584 L92.4663259,63.4224381 C92.514987,62.9617602 92.499074,62.493227 92.4165859,62.0254134 L89.4645668,45.2836816 C88.9850506,42.5642101 86.3917587,40.7483675 83.6722872,41.2278837 C81.8714132,41.5454264 80.4668061,42.7899195 79.862624,44.3841654 L80.8988529,43.7858984 C82.8120234,42.6813289 85.258385,43.3368295 86.3629545,45.25 C87.467524,47.1631705 86.8120234,49.6095321 84.8988529,50.7141016 L80.6957195,53.1407818 L81.9570491,60.2941373 Z M75.6489295,53.6968676 L75.8336816,53.6129713 C75.9260595,53.5765545 76.0164941,53.5329328 76.1046243,53.4820508 L83.8988529,48.9820508 C84.8554382,48.4297661 85.1831885,47.2065852 84.6309037,46.25 C84.078619,45.2934148 82.8554382,44.9656644 81.8988529,45.5179492 L74.1519107,49.9906484 L66.5033724,51.339292 C65.4155838,51.5310985 64.6892468,52.5684153 64.8810533,53.6562039 C65.0728598,54.7439925 66.1101765,55.4703295 67.1979652,55.278523 L75.0764272,53.8893376 C75.2798718,53.8534648 75.471597,53.7885156 75.6489295,53.6968676 Z M86.5,37 C87.8807119,37 89,35.8807119 89,34.5 C89,33.1192881 87.8807119,32 86.5,32 C85.1192881,32 84,33.1192881 84,34.5 C84,35.8807119 85.1192881,37 86.5,37 Z M39,58 L61,58 C62.1045695,58 63,58.8954305 63,60 L63,82 C63,83.1045695 62.1045695,84 61,84 L39,84 C37.8954305,84 37,83.1045695 37,82 L37,60 C37,58.8954305 37.8954305,58 39,58 Z M39,60 L39,82 L61,82 L61,60 L39,60 Z M50.0016045,76.7406716 L45.9172242,78.8879574 C45.4283796,79.1449582 44.8237524,78.9570117 44.5667516,78.4681671 C44.4644125,78.2735066 44.4290979,78.0505386 44.4662747,77.8337809 L45.246322,73.2857565 L41.9419888,70.0648278 C41.5465052,69.6793266 41.5384129,69.0462133 41.9239141,68.6507297 C42.0774228,68.4932461 42.2785652,68.3907589 42.4962022,68.3591344 L47.0626783,67.6955866 L49.1048685,63.5576573 C49.3492908,63.0624037 49.9489166,62.8590647 50.4441702,63.103487 C50.6413829,63.2008172 50.8010104,63.3604447 50.8983406,63.5576573 L52.9405308,67.6955866 L57.5070069,68.3591344 C58.0535517,68.438552 58.4322332,68.9459949 58.3528156,69.4925397 C58.3211911,69.7101768 58.2187039,69.9113192 58.0612202,70.0648278 L54.7568871,73.2857565 L55.5369344,77.8337809 C55.6302954,78.3781174 55.2647075,78.8950733 54.7203711,78.9884343 C54.5036135,79.0256111 54.2806454,78.9902965 54.0859849,78.8879574 L50.0016045,76.7406716 Z M50.0016045,74.4811201 L53.223195,76.1748104 L52.607926,72.5875167 L55.2142474,70.0469812 L51.6123998,69.5236021 L50.0016045,66.2597745 L48.3908093,69.5236021 L44.7889617,70.0469812 L47.3952831,72.5875167 L46.7800141,76.1748104 L50.0016045,74.4811201 Z" fill="#333333"></path>
    </g>
</svg>