<svg width="100px" height="100px" viewBox="0 0 100 100" version="1.1" xmlns="http://www.w3.org/2000/svg" role="img"
     aria-labelledby="icon-delivery-title">
    <title id="icon-delivery-title">Delivery</title>
    <g stroke="none" stroke-width="1" fill="none" fill-rule="evenodd">
        <path d="M76.4385003,56.5952908 C75.7963082,53.4215831 74.3284151,50.1097601 72.2761214,47.6952968 C68.9254863,43.7533733 64.4010568,42.3744995 58.6324555,44.2973666 C50.9744944,46.8500203 47.31898,49.8619618 47.0620312,53.2956845 C48.0074445,53.1018438 48.9867407,53 49.99,53 C55.4098009,53 60.1302702,55.972178 62.5874883,60.3641136 C65.1712608,57.5723516 68.972098,56.1764706 73.99,56.1764706 C74.7231823,56.1764706 75.5478237,56.32386 76.4385003,56.5952908 L76.4385003,56.5952908 Z M45.0436771,53.8655906 C44.9335851,50.3577725 47.2955796,47.3443717 52.1296605,44.8253882 C47.5007358,43.9495973 44,39.883619 44,35 C44,29.4771525 48.4771525,25 54,25 C54.3627293,25 54.7209479,25.0193126 55.0736837,25.0569657 C55.5260824,22.1912753 58.0071413,20 61,20 C64.3137085,20 67,22.6862915 67,26 C67,28.4701402 65.5073165,30.5916454 63.3747585,31.5117068 C63.7790459,32.597784 64,33.7730887 64,35 C64,37.5154896 63.0712029,39.8140471 61.5378416,41.5714394 C72.149986,40.1975658 77.551834,50.0886078 78.6065192,57.43443 C87.5401108,61.537727 100.351208,74.4978713 97.6289362,78.4889625 C94.3789915,83.2536683 82.1398342,75.2352941 72.39,68.8823529 C70.2677534,70.2651977 65.107214,73.8491332 56.9083815,79.6341592 C56.5710104,79.872206 56.1682314,80 55.7553324,80 L39,80 L39,80 L39.0038187,79.9936355 L20.1829668,79.9936371 C19.3331789,80.0447379 18.459427,79.855635 17.6669873,79.3981197 C15.5146705,78.1554791 14.7772323,75.4033222 16.019873,73.2510054 L19.2752922,67.612454 C19.1206912,67.7120529 18.9628712,67.8084007 18.8018701,67.9013546 C16.9732844,68.9570891 14.9707391,69.4385812 13.0030515,69.4017833 L5.53110431,73.715714 C6.08568275,71.6459991 6.13826277,69.2448377 5.68884438,66.5122298 C4.84413252,65.7482243 4.10252674,64.8413451 3.5023856,63.8018701 C0.409591001,58.4449927 2.24499274,51.5951802 7.60187012,48.5023856 C12.9587475,45.409591 19.80856,47.2449927 22.9013546,52.6018701 C24.2371239,54.9154903 24.6536112,57.5075954 24.2641477,59.9552281 C27.9119263,57.4360564 30.7005576,56.1764706 32.6300416,56.1764706 C34.2988055,56.1764706 35.9675694,57.4327144 37.6363333,59.9452021 C39.3197765,57.1627532 41.9302242,54.9959221 45.0436771,53.8655906 Z M62.4898785,29.7133224 C63.961153,29.1224637 65,27.6825497 65,26 C65,23.790861 63.209139,22 61,22 C58.9709374,22 57.2947408,23.510799 57.0349551,25.4688521 C59.3180339,26.1952055 61.245484,27.7191712 62.4898785,29.7133224 L62.4898785,29.7133224 Z M54,43 C58.418278,43 62,39.418278 62,35 C62,30.581722 58.418278,27 54,27 C49.581722,27 46,30.581722 46,35 C46,39.418278 49.581722,43 54,43 Z M27.1669873,62.9436371 C29.3193041,64.1862778 30.0567423,66.9384346 28.8141016,69.0907514 L27.7154701,70.9936371 L39,70.9936371 C41.4852814,70.9936371 43.5,73.0083557 43.5,75.4936371 C43.5,76.421456 43.2192048,77.2836917 42.7379584,78 L55.7496547,78 C62.917007,72.8885471 68.0955243,69.2934991 71.2981454,67.2066879 C71.9618194,66.7742413 72.8181806,66.7742413 73.4818546,67.2066879 L73.4818546,67.2066879 L73.4818546,67.2066879 C75.3396054,68.4171886 75.9696313,68.8265668 76.9253885,69.4415725 C78.0526586,70.1669425 79.0614872,70.8068094 80.0232297,71.4045997 C89.2154871,77.1182317 94.7915267,79.0995371 95.9766884,77.3619854 C96.6223393,76.4154042 93.7229795,71.7501372 88.6604895,67.0051897 C83.205379,61.8922487 77.057514,58.1764706 73.99,58.1764706 C69.4927828,58.1764706 66.2273479,59.3757218 64.0553221,61.7225921 L62.6532544,63.2375239 C62.4656877,63.4401895 62.1493419,63.4524295 61.9466764,63.2648627 C61.908192,63.2292455 61.8755499,63.1877962 61.849947,63.1420346 L60.8420925,61.3406347 L60.8420925,61.3406347 C58.6706188,57.4594274 54.5499669,55 49.99,55 C45.5794791,55 41.5744971,57.2996801 39.3475161,60.9805056 L38.1231921,63.0041075 C37.9802465,63.2403726 37.6728356,63.3160229 37.4365705,63.1730774 C37.373514,63.1349268 37.319671,63.0833083 37.2788954,63.0219166 L35.9703292,61.0517419 L35.9703292,61.0517419 C34.6340932,59.0399076 33.4871243,58.1764706 32.6300416,58.1764706 C31.0469904,58.1764706 28.189583,59.5575764 24.2993271,62.3815416 C25.2561051,62.2495972 26.2643015,62.4224712 27.1669873,62.9436371 Z M12.4845536,67.3917371 L13.0404471,67.4021329 C14.6968903,67.4331102 16.3326799,67.0175412 17.8018701,66.1693038 C22.2021623,63.628794 23.7098137,58.0021623 21.1693038,53.6018701 C18.628794,49.201578 13.0021623,47.6939266 8.60187012,50.2344364 C4.20157799,52.7749463 2.69392656,58.401578 5.23443641,62.8018701 C5.72073622,63.6441661 6.32576937,64.391605 7.03042223,65.0289332 L7.54888425,65.4978597 L7.66233228,66.1876601 C7.8807257,67.5155621 7.99082856,68.7819513 7.9906355,69.9863019 L12.4845536,67.3917371 Z M27.0820508,68.0907514 C27.7724067,66.8950198 27.3627189,65.3660438 26.1669873,64.6756879 C24.9712557,63.9853319 23.4422797,64.3950198 22.7519238,65.5907514 L17.7519238,74.2510054 C17.0615679,75.446737 17.4712557,76.975713 18.6669873,77.6660689 C19.098408,77.9151498 19.578831,78.0263532 20.0629163,77.9972433 L20.1829668,77.9936371 L39,77.9936371 C40.3807119,77.9936371 41.5,76.8743489 41.5,75.4936371 C41.5,74.1129252 40.3807119,72.9936371 39,72.9936371 L24.2513684,72.9936371 L27.0820508,68.0907514 Z M50.8425923,61.0384889 C51.7325272,60.3453788 52.8083928,60 54.0291738,60 C55.4701494,60 56.6864211,60.4546685 57.6104784,61.3680152 C58.5372248,62.28402 59,63.4941334 59,64.9278169 C59,65.5940954 58.7965992,66.2567925 58.4242253,66.9157106 C57.687707,68.2189845 56.3108988,69.5012973 54.3824507,70.8722287 C53.6641926,71.3828375 52.2054175,72.3344556 50.0061256,73.7270827 C47.5372508,72.1473855 46.0768886,71.1971302 45.6250389,70.8763167 C43.6932051,69.5047135 42.313373,68.2206563 41.5758429,66.9157668 C41.2034227,66.256855 41,65.5941277 41,64.9278169 C41,63.4931954 41.4650196,62.2823438 42.3956867,61.3663452 C43.3220772,60.4545558 44.5360987,60 45.9708262,60 C47.1978391,60 48.2759467,60.3454794 49.1637538,61.0399518 C49.4726125,61.2815514 49.7517473,61.5598861 50.0014905,61.8736323 C50.2516701,61.5592778 50.5319353,61.2804387 50.8425923,61.0384889 Z M53.223633,69.2421546 C55.0295051,67.9583623 56.1498523,66.8751807 56.6830339,65.9317124 C56.9032495,65.5420393 57,65.2129146 57,64.9278169 C57,64.0024189 56.7316972,63.3115029 56.2045323,62.7904483 C55.6754407,62.2674892 54.9713691,62 54.0291738,62 C53.2362703,62 52.5960517,62.2078566 52.0715102,62.6163866 C51.8876219,62.7596047 51.7197098,62.926411 51.5663897,63.1190601 L50.0016398,65.0851926 L48.436707,63.1192056 C48.2828734,62.9259481 48.1149098,62.7587149 47.931504,62.6152487 C47.4107499,62.2078975 46.7698394,62 45.9708262,62 C45.0347503,62 44.3313075,62.267458 43.7986226,62.7917472 C43.2691839,63.3128413 43,64.0032418 43,64.9278169 C43,65.2129198 43.0967565,65.5420377 43.3169779,65.9316686 C43.8509088,66.8763365 44.9738671,67.9611485 46.7828834,69.2455512 C47.131072,69.4927653 48.220839,70.2051187 50.0106418,71.3544476 C51.5870387,70.3483424 52.6632952,69.640498 53.223633,69.2421546 Z" fill="#333333"></path>
    </g>
</svg>