<svg width="100px" height="100px" viewBox="0 0 100 100" version="1.1" xmlns="http://www.w3.org/2000/svg" role="img"
     aria-labelledby="icon-family-planning-title">
    <title id="icon-family-planning-title">Family planning</title>
    <g stroke="none" stroke-width="1" fill="none" fill-rule="evenodd">
        <path d="M34,35.7083512 C35.4658889,34.0475098 37.6106149,33 40,33 C44.418278,33 48,36.581722 48,41 C48,45.418278 44.418278,49 40,49 C37.6106149,49 35.4658889,47.9524902 34,46.2916488 C32.5341111,47.9524902 30.3893851,49 28,49 C23.581722,49 20,45.418278 20,41 C20,36.581722 23.581722,33 28,33 C30.3893851,33 32.5341111,34.0475098 34,35.7083512 L34,35.7083512 Z M35.1676491,44.5571204 C36.2601603,46.0388186 38.0178322,47 40,47 C43.3137085,47 46,44.3137085 46,41 C46,37.6862915 43.3137085,35 40,35 C38.0178322,35 36.2601603,35.9611814 35.1676491,37.4428796 C35.7004141,38.5143431 36,39.7221855 36,41 C36,42.2778145 35.7004141,43.4856569 35.1676491,44.5571204 L35.1676491,44.5571204 Z M28,47 C31.3137085,47 34,44.3137085 34,41 C34,37.6862915 31.3137085,35 28,35 C24.6862915,35 22,37.6862915 22,41 C22,44.3137085 24.6862915,47 28,47 Z M22,50 L70,50 C75.5228475,50 80,54.4771525 80,60 L80,68 C80,69.1045695 79.1045695,70 78,70 L22,70 C20.8954305,70 20,69.1045695 20,68 L20,52 C20,50.8954305 20.8954305,50 22,50 Z M22,52 L22,68 L78,68 L78,60 C78,55.581722 74.418278,52 70,52 L22,52 Z M82,74 L18,74 L18,81 C18,81.5522847 17.5522847,82 17,82 C16.4477153,82 16,81.5522847 16,81 L16,19 C16,18.4477153 16.4477153,18 17,18 C17.5522847,18 18,18.4477153 18,19 L18,72 L82,72 L82,47 C82,46.4477153 82.4477153,46 83,46 C83.5522847,46 84,46.4477153 84,47 L84,81 C84,81.5522847 83.5522847,82 83,82 C82.4477153,82 82,81.5522847 82,81 L82,74 Z M69.4979419,19.8462025 C71.0800483,18.6140068 72.9926983,18 75.1629756,18 C77.7247101,18 79.8869709,18.8082995 81.5297393,20.432027 C83.1772885,22.0604799 84,24.2117927 84,26.7605634 C84,27.9450586 83.6383985,29.1231867 82.9764005,30.2945966 C81.6670347,32.611528 79.2193756,34.8911953 75.7910235,37.3284066 C73.8756684,38.6900301 68.6283309,41.9909816 69.1193887,41.66274 L68.01089,42.4037026 L66.9005821,41.6654537 C66.6401038,41.4922605 66.3047419,41.2795654 65.7582778,40.9393238 L65.0056314,40.4716124 C64.682194,40.2705492 64.4221071,40.1082583 64.1612284,39.9444521 C62.664167,39.0044439 61.4272238,38.1911768 60.2222915,37.3356741 C56.7879202,34.8972685 54.3348854,32.6145001 53.0237208,30.2946965 C52.3616403,29.1232977 52,27.9451159 52,26.7605634 C52,24.2101252 52.8267015,22.0575001 54.4812208,20.4290581 C56.1281372,18.8080991 58.2863978,18 60.8370244,18 C63.0183806,18 64.9350163,18.6141856 66.5133402,19.8488033 C67.0624222,20.2783136 67.5586618,20.7731308 68.0026497,21.3309019 C68.4474134,20.7720494 68.9456627,20.2763355 69.4979419,19.8462025 Z M68.00795,25.6025039 C67.4037448,23.7662923 66.4948007,22.373505 65.2810903,21.4241002 C64.0673799,20.4746953 62.5860394,20 60.8370244,20 C58.7912069,20 57.1402675,20.6181472 55.8841567,21.8544601 C54.628046,23.090773 54,24.7261244 54,26.7605634 C54,32 65,38 68.00795,40 C71,38 82,32 82,26.7605634 C82,24.7261244 81.374604,23.090773 80.1237933,21.8544601 C78.8729826,20.6181472 77.2193932,20 75.1629756,20 C73.4245607,20 71.9458702,20.4746953 70.7268597,21.4241002 C69.5078493,22.373505 68.6015551,23.7662923 68.00795,25.6025039 Z" fill="#1B77D4"></path>
    </g>
</svg>