<svg width="100px" height="100px" viewBox="0 0 100 100" version="1.1" xmlns="http://www.w3.org/2000/svg" role="img"
     aria-labelledby="icon-food-assistance-title">
    <title id="icon-food-assistance-title">Food Assistance</title>
    <g stroke="none" stroke-width="1" fill="none" fill-rule="evenodd">
        <path d="M36.2617697,62.6985186 C36.7291338,65.3836074 37.2846247,68.0933316 37.9253254,70.8242954 C38.0779337,71.4747826 38.2353763,72.1264749 38.3976138,72.7793262 C38.0575053,72.8833418 37.7002456,73.0355519 37.3400441,73.2435143 C35.8002735,74.1325013 35.169677,75.4843282 35.4919679,76.0425524 C35.8142588,76.6007766 37.3002735,76.7305775 38.8400441,75.8415905 C39.6741777,75.3600033 40.2414987,74.7425878 40.5350578,74.1890917 C41.1926795,74.3344466 41.8510574,74.4702296 42.5102095,74.5964621 C44.6473342,75.0057373 46.7925966,75.3146168 48.9466077,75.5238309 C55.1051121,69.0755523 65.3064823,62 69.3542803,62 C71.5700262,62 75.6296388,64.1201305 79.8235109,67.0969548 C78.9763178,51.3681302 75.1315708,32.3288684 69.4282689,18.1674549 C69.1728671,17.5332873 68.9137383,16.9089016 68.6509847,16.2950331 C68.8415985,16.2492354 69.0412042,16.1826039 69.2456345,16.0915857 C70.350238,15.5997845 70.8314713,14.7362468 70.6659888,14.3645669 C70.5005063,13.9928871 69.5367647,13.7726936 68.4321613,14.2644948 C67.7409336,14.5722492 67.2938102,15.0255712 67.0965118,15.4128421 C66.473557,15.1938276 65.8459747,14.9901042 65.2149045,14.8015082 C56.9776267,12.3397884 48.1460793,12.4554176 41.254304,14.7838299 C40.61521,14.9997502 39.9927968,15.2346991 39.3890852,15.4883858 C39.1905896,15.1321332 38.8253681,14.7383194 38.2841637,14.4258549 C37.2370186,13.8212854 36.25554,13.9395342 36.0521129,14.2918803 C35.8486858,14.6442264 36.2370186,15.5533362 37.2841637,16.1579057 C37.6694265,16.3803373 38.0458005,16.5049259 38.3778071,16.5560111 C38.1722781,17.1873605 37.9750986,17.8222978 37.7862041,18.4607483 C34.9410594,28.0771448 33.9755281,38.4905411 34.6697181,49.4449428 C36.1242949,51.702574 37,54.6119798 37,57.787277 C37,59.5250846 36.7377035,61.1832508 36.2617697,62.6985186 L36.2617697,62.6985186 Z M32.5549319,46.9758608 C32.1638809,37.1715756 33.0793502,27.224448 35.937134,17.6643065 C34.261686,16.5233093 33.5339343,14.6261441 34.3117767,13.2788816 C35.1402038,11.8440037 37.3627078,11.5762359 39.2758783,12.6808054 C39.5131366,12.8177865 39.7344955,12.9694403 39.9386698,13.1327576 C47.0979242,10.5485574 56.9455682,10.0489659 66.5282099,13.1106791 C66.8538737,12.8544019 67.2245714,12.6290331 67.6333616,12.4470279 C69.6515105,11.5484901 71.83385,12.0471061 72.5077534,13.5607177 C73.0405429,14.7573826 72.4709722,16.2302091 71.2117735,17.2385796 C77.6879162,33.1893387 81.2483509,53.6380562 81.8930776,68.6273304 C89.2462058,74.2829387 96.1485086,81.9361525 93.3722642,84.7674993 C87.9660787,90.2809859 48.9400308,90.5392045 44.4125277,84.7674993 C43.2526039,83.2888171 44.6414683,80.4949744 47.2932586,77.3573667 C45.305219,77.1234499 43.3171794,76.8057221 41.3291398,76.4018553 C40.9092423,76.8344246 40.405462,77.230008 39.830127,77.5621778 C37.4386639,78.9428897 34.7164983,78.7051131 33.75,77.0310889 C32.8194837,75.4193875 33.8555928,73.0639856 36.0682159,71.6586666 C35.6183647,69.759029 35.201112,67.8336444 34.8221194,65.8872308 C33.7318999,67.6641572 32.2909055,69.0613152 30.6354231,69.9015319 C30.8685252,71.0525121 31,72.3278622 31,73.787277 C31,79.6106624 29.4300084,83.8640563 26.2900253,86.5474586 C26.1089466,86.7022069 25.8785752,86.787277 25.6403808,86.787277 L11.359688,86.787277 C11.1214856,86.787277 10.8911064,86.7022477 10.7100193,86.5474968 C7.57000645,83.8640966 6,79.6106901 6,73.787277 C6,64.787277 11.051728,62.632093 14,53.787277 C14.6666667,51.787277 14.6666667,48.787277 14,44.787277 L11.7145019,38.6926155 C11.6368744,38.4856088 11.6300346,38.2587129 11.6950521,38.0474062 C11.8574712,37.519544 12.4170548,37.2232939 12.9449169,37.385713 L15.7168142,38.2386045 L15.1233813,32.8977086 C15.0623916,32.3488017 15.4579267,31.8543829 16.0068335,31.7933933 C16.043503,31.7893189 16.0803699,31.787277 16.117265,31.787277 L20.882735,31.787277 C21.4350197,31.787277 21.882735,32.2349923 21.882735,32.787277 C21.882735,32.8241722 21.8806931,32.8610391 21.8766187,32.8977086 L21.0991736,39.894715 L23.0940529,40.5085241 C23.6020473,40.6648301 23.8990167,41.1912102 23.7701096,41.7068387 L23,44.787277 C22.9322649,45.1936876 22.8714119,45.5897751 22.8174409,45.9755395 C24.0899694,45.2127544 25.5067633,44.787277 27,44.787277 C29.0554496,44.787277 30.9660578,45.5934584 32.5549319,46.9758608 L32.5549319,46.9758608 Z M56.4640062,51.4151073 C56.2864289,51.9835086 56.0243017,52.5060313 55.7180031,52.9434711 C54.4889107,54.6987969 51.729176,56.2543372 48.9268138,54.2921021 C47.0585723,52.9839453 45.7726432,50.0489037 45.0690265,45.4869774 C49.5964861,44.5878901 52.7943366,44.7924248 54.6625781,46.1005816 C54.7815487,46.1838857 54.8945352,46.2692861 55.0017373,46.3565889 C54.6516542,44.9338663 54.320823,43.4152466 54.0088602,41.8004984 C53.9444469,41.9079271 53.8772946,42.0114418 53.8078731,42.1105858 C52.5787808,43.8659116 49.8190461,45.4214519 47.0166838,43.4592168 C45.1484423,42.15106 43.8625132,39.2160184 43.1588966,34.6540921 C47.6863561,33.7550048 50.8842067,33.9595395 52.7524482,35.2676963 C52.8176958,35.3133832 52.8811436,35.3597007 52.9428245,35.4066167 C52.8750615,34.9351824 52.8084913,34.4574976 52.7431073,33.9735585 C50.7835228,33.9395312 48.5303034,32.8896568 48.0287406,30.0451528 C47.6327009,27.7991001 48.7987995,24.8144231 51.5270364,21.091122 C55.3641845,23.6567686 57.4807784,26.0626183 57.8768181,28.3086711 C58.3851435,31.1915273 56.5723018,32.9575675 54.7163108,33.6404008 C54.7907562,34.1926738 54.8667572,34.7364452 54.9443036,35.2717085 C55.0282666,35.1253519 55.1214064,34.9786643 55.2242001,34.8318598 C56.5323569,32.9636183 59.4673984,31.6776892 64.0293247,30.9740725 C64.928412,35.5015321 64.7238773,38.6993826 63.4157205,40.5676241 C61.4534854,43.3699864 58.3281569,42.8521415 56.5728311,41.6230491 C56.3451978,41.4636586 56.1209244,41.2785268 55.907247,41.0708989 C56.2373231,42.8074331 56.5879747,44.4273521 56.9586779,45.9303397 C57.013783,45.8418821 57.0722988,45.7533349 57.13433,45.6647451 C58.4424868,43.7965036 61.3775284,42.5105745 65.9394547,41.8069578 C66.838542,46.3344174 66.6340073,49.5322679 65.3258505,51.4005094 C63.5847125,53.8871121 60.9278206,53.7595713 59.1248681,52.8405808 C60.3024189,55.7440708 61.616661,57.8075515 63.057578,59.0249806 C63.4794455,59.381416 63.5324888,60.0123552 63.1760534,60.4342228 C62.8196179,60.8560904 62.1886787,60.9091336 61.7668111,60.5526982 C59.7136029,58.8179448 57.9525526,55.7760332 56.4640062,51.4151073 L56.4640062,51.4151073 Z M53.4420464,31.9231438 C55.0996975,31.6288077 56.2124577,30.387155 55.9072026,28.6559674 C55.6759613,27.3445325 54.4059629,25.7226056 52.0221961,23.8993119 C50.4057912,26.4279438 49.7671148,28.3864216 49.9983561,29.6978565 C50.3035363,31.4286193 51.7732125,32.2148437 53.431065,31.9250801 C53.4347212,31.9244354 53.4383817,31.92379 53.4420464,31.9231438 L53.4420464,31.9231438 Z M51.6052953,36.9060004 C50.5144585,36.1421882 48.4695584,35.8933372 45.4947175,36.2896515 C46.1397593,39.2206351 47.0729998,41.0571005 48.1638367,41.8209127 C49.6052317,42.8301884 51.2025421,42.3444906 52.1695691,40.9634329 C53.136596,39.5823753 53.0466904,37.9152761 51.6052953,36.9060004 Z M53.5154253,47.7388857 C52.4245884,46.9750735 50.3796884,46.7262225 47.4048474,47.1225368 C48.0498893,50.0535204 48.9831298,51.8899858 50.0739666,52.653798 C51.5153617,53.6630737 53.112672,53.1773758 54.079699,51.7963182 C55.046726,50.4152606 54.9568203,48.7481614 53.5154253,47.7388857 Z M56.8625042,35.9790126 C55.8532285,37.4204077 56.3389263,39.0177181 57.7199839,39.984745 C59.1010416,40.951772 60.7681408,40.8618663 61.7774164,39.4204713 C62.5412286,38.3296344 62.7900797,36.2847344 62.3937653,33.3098934 C59.4627818,33.9549353 57.6263163,34.8881758 56.8625042,35.9790126 Z M58.7726341,46.8118979 C57.7633584,48.253293 58.2490563,49.8506033 59.6301139,50.8176303 C61.0111715,51.7846573 62.6782707,51.6947516 63.6875464,50.2533566 C64.4513586,49.1625197 64.7002096,47.1176197 64.3038953,44.1427787 C61.3729117,44.7878206 59.5364463,45.7210611 58.7726341,46.8118979 Z M54.3931043,73.119687 L54.3826079,73.1287806 C51.4189681,75.6968853 48.9670026,78.2597582 47.4762805,80.3749717 C46.1764891,82.21927 45.8546469,83.3654702 45.9861451,83.5331054 C49.6764626,88.2375582 87.2768999,88.1272093 91.944223,83.3672499 C92.7274476,82.56848 89.8111642,78.079174 84.1957116,73.1158544 C78.4639998,68.0497771 71.7795469,64 69.3542803,64 C67.4158126,64 62.7289211,66.5967615 57.8984913,70.2733956 C58.7982307,70.4206801 59.6856931,70.7886117 60.5547002,71.3679497 C61.0142289,71.6743022 61.1384028,72.2951715 60.8320503,72.7547002 C60.5256978,73.2142289 59.9048285,73.3384028 59.4452998,73.0320503 C58.6023438,72.4700796 57.792105,72.2 57,72.2 C56.207895,72.2 55.3976562,72.4700796 54.5547002,73.0320503 C54.5026728,73.0667352 54.4485773,73.0959014 54.3931043,73.119687 L54.3931043,73.119687 Z M54.5547002,81.8320503 C54.0951715,82.1384028 53.4743022,82.0142289 53.1679497,81.5547002 C52.8615972,81.0951715 52.9857711,80.4743022 53.4452998,80.1679497 C54.6023438,79.3965871 55.792105,79 57,79 C58.207895,79 59.3976562,79.3965871 60.5547002,80.1679497 C61.0142289,80.4743022 61.1384028,81.0951715 60.8320503,81.5547002 C60.5256978,82.0142289 59.9048285,82.1384028 59.4452998,81.8320503 C58.6023438,81.2700796 57.792105,81 57,81 C56.207895,81 55.3976562,81.2700796 54.5547002,81.8320503 Z M61.5547002,77.8320503 C61.0951715,78.1384028 60.4743022,78.0142289 60.1679497,77.5547002 C59.8615972,77.0951715 59.9857711,76.4743022 60.4452998,76.1679497 C61.6023438,75.3965871 62.792105,75 64,75 C65.207895,75 66.3976562,75.3965871 67.5547002,76.1679497 C68.0142289,76.4743022 68.1384028,77.0951715 67.8320503,77.5547002 C67.5256978,78.0142289 66.9048285,78.1384028 66.4452998,77.8320503 C65.6023438,77.2700796 64.792105,77 64,77 C63.207895,77 62.3976562,77.2700796 61.5547002,77.8320503 Z M81.5547002,79.8320503 C81.0951715,80.1384028 80.4743022,80.0142289 80.1679497,79.5547002 C79.8615972,79.0951715 79.9857711,78.4743022 80.4452998,78.1679497 C81.6023438,77.3965871 82.792105,77 84,77 C85.207895,77 86.3976562,77.3965871 87.5547002,78.1679497 C88.0142289,78.4743022 88.1384028,79.0951715 87.8320503,79.5547002 C87.5256978,80.0142289 86.9048285,80.1384028 86.4452998,79.8320503 C85.6023438,79.2700796 84.792105,79 84,79 C83.207895,79 82.3976562,79.2700796 81.5547002,79.8320503 Z M71.5547002,84.8320503 C71.0951715,85.1384028 70.4743022,85.0142289 70.1679497,84.5547002 C69.8615972,84.0951715 69.9857711,83.4743022 70.4452998,83.1679497 C71.6023438,82.3965871 72.792105,82 74,82 C75.207895,82 76.3976562,82.3965871 77.5547002,83.1679497 C78.0142289,83.4743022 78.1384028,84.0951715 77.8320503,84.5547002 C77.5256978,85.0142289 76.9048285,85.1384028 76.4452998,84.8320503 C75.6023438,84.2700796 74.792105,84 74,84 C73.207895,84 72.3976562,84.2700796 71.5547002,84.8320503 Z M71.5547002,70.8320503 C71.0951715,71.1384028 70.4743022,71.0142289 70.1679497,70.5547002 C69.8615972,70.0951715 69.9857711,69.4743022 70.4452998,69.1679497 C71.6023438,68.3965871 72.792105,68 74,68 C75.207895,68 76.3976562,68.3965871 77.5547002,69.1679497 C78.0142289,69.4743022 78.1384028,70.0951715 77.8320503,70.5547002 C77.5256978,71.0142289 76.9048285,71.1384028 76.4452998,70.8320503 C75.6023438,70.2700796 74.792105,70 74,70 C73.207895,70 72.3976562,70.2700796 71.5547002,70.8320503 Z M18.9619408,61.7872769 L8.02437188,72.7248459 C8.00798726,73.0674107 8,73.420788 8,73.7872769 C8,75.3458396 8.11865959,76.7661592 8.35386578,78.0522063 L24.5864489,61.8196231 L24.5669405,61.7872769 L18.9619408,61.7872769 L18.9619408,61.7872769 Z M16.1335137,61.787277 L12.4154806,61.787277 C11.8314888,62.7536159 10.877802,64.3046115 10.6715687,64.6528834 C9.65039782,66.3773634 8.95719346,67.8459973 8.53332494,69.3874657 L16.1335137,61.787277 Z M13.5634759,59.787277 L23.4237425,59.787277 C22.4923171,58.0508547 21.7472421,56.3535585 21.1026334,54.4197326 C20.3116924,52.0469096 20.3116924,48.7515975 21.0272122,44.4584791 L21.059715,44.3022058 L21.5999342,42.1413292 L14.3016622,39.895707 L15.9408568,44.2668926 L15.9727878,44.4584791 C16.6883076,48.7515975 16.6883076,52.0469096 15.8973666,54.4197326 C15.2547112,56.3476989 14.5094426,58.0355502 13.5634759,59.787277 Z M8.9300266,80.3044726 C9.4141022,81.7316343 10.0852854,82.9447879 10.9392042,83.9521493 L27.674992,67.2163614 C27.3280478,66.4465615 26.9065561,65.6566588 26.4031469,64.8047357 C26.3073121,64.6425536 26.0098209,64.1560777 25.6565569,63.5779423 L8.9300266,80.3044726 L8.9300266,80.3044726 Z M12.9325035,84.7872771 L18.5893577,84.7872771 L28.994101,74.3825338 C28.9980322,74.1864018 29,73.9879857 29,73.787277 C29,72.0717158 28.8263886,70.6488669 28.4375791,69.2822015 L12.9325035,84.7872771 Z M21.4177849,84.7872771 L25.2605926,84.7872771 C27.088608,83.0997643 28.2600127,80.6763074 28.7447154,77.4603466 L21.4177849,84.7872771 Z M22.5413954,48.6803806 C22.475779,49.8050104 22.4881697,50.8126294 22.5785675,51.7032376 C23.6753296,49.9108394 25.2501908,48.787277 27,48.787277 C30.3137085,48.787277 33,52.8167143 33,57.787277 C33,61.5058462 31.4965335,64.6976852 29.3516672,66.0696944 C29.6291369,66.6590575 29.8809189,67.2683839 30.0995134,67.9126735 C32.9312891,66.2523164 35,62.3945691 35,57.787277 C35,51.6145671 31.2866999,46.787277 27,46.787277 C25.3742256,46.787277 23.830928,47.481626 22.5413954,48.6803806 L22.5413954,48.6803806 Z M23.3814722,54.8676274 C24.924107,58.9993789 26.8762121,61.5941894 28.4181846,64.2912642 C29.8471119,63.2805898 31,60.8198006 31,57.787277 C31,53.7907827 28.9976629,50.787277 27,50.787277 C25.5295285,50.787277 24.0565243,52.4146881 23.3814722,54.8676274 L23.3814722,54.8676274 Z M17.81,38.917277 L19.15,39.337277 L19.76547,33.787277 L17.23453,33.787277 L17.81,38.917277 Z" fill="#333333"></path>
    </g>
</svg>