<svg width="109px" height="100px" viewBox="0 0 109 100" version="1.1" xmlns="http://www.w3.org/2000/svg" role="img"
     aria-labelledby="icon-gbv-survivors">
    <title id="icon-gbv-survivors">Supporting Gender-based Violence Survivors at Women's Centers</title>
    <g stroke="none" stroke-width="1" fill="none" fill-rule="evenodd">
        <g transform="translate(-1049.000000, -615.000000)">
            <g transform="translate(1025.000000, 615.000000)">
                <g transform="translate(25.000000, 0.000000)" fill="#333333">
                    <path d="M33,8 C40,12 47,13 56,12 C55.5390753,15.6873974 55.6623924,19.5872465 55.7579253,23.5649013 C58.1830202,24.6048212 59.9019121,26.9760702 59.995941,29.7593502 L60,30 L59.9999121,30.035457 L60.164424,30.0158793 C60.2748669,30.0053735 60.3868059,30 60.5,30 C62.4329966,30 64,31.5670034 64,33.5 C64,35.3685634 62.5357224,36.8951264 60.6920352,36.9948211 L60.5,37 L60.4024868,36.9986678 L60.5300928,37.0298898 C62.459859,37.5125685 64.2652737,40.8596502 65.7470131,45.71382 L66.0098684,46.6024412 C66.1499162,45.8143727 66.3040179,45.0041974 66.4698722,44.1804449 L66.6906934,43.1082034 L66.9704826,41.8088097 L67.157308,40.9746592 C68.7884707,33.8041822 70.7230577,28.2016812 72.2736549,27.1679497 C75.4755721,25.0333382 81.8009046,25.7855647 84.5039865,28.2627604 C87.3773346,30.8959938 89.0037881,34.1368116 88.3507091,37.2513015 C88.1476255,38.2197938 87.8618151,38.9954883 87.3253217,40.158342 L86.6669934,41.5756469 C86.0915668,42.8869952 85.892964,43.7885828 86.0056211,44.8990696 L86.0539397,45.3268083 L86.1199505,45.8199025 L86.2011559,46.353555 L86.2975521,46.9277317 C86.7481771,49.5035841 87.6265737,53.2199093 88.9313922,58.0642332 L89.3816106,59.7189022 L89.9852414,61.8920444 L90.7895224,64.7240338 C90.9622235,65.3255372 90.5474186,65.9250665 89.943674,65.9935181 L89.8283551,66 L86.006,65.9997008 L86.0001272,68.2961151 L85.9785015,70.919347 L85.9422168,73.40409 C85.705403,86.367074 84.7921135,92.0000323 82.5087277,92.0000323 C81.6681398,92.0000323 81.0132292,91.2366184 80.5093913,89.6251858 C80.0060114,91.2368686 79.3511777,92.0000323 78.5107277,92.0000323 C75.9197895,92.0000323 75.0928838,84.7474695 75.0166706,67.7629954 L75.012,65.9997008 L71.0107277,66 C70.4426233,66 69.9969147,65.5300743 70.0108741,64.9766003 L70.0198949,64.8649061 L71.831539,51.5775862 L71.5758104,52.2940121 C70.3279728,55.7135088 69.1581649,57.788762 67.9831665,58.6029306 L67.9733727,58.7519007 C67.863131,60.2101596 67.3951192,61.0000323 66.2847287,61.0000323 C64.9382471,61.0000323 63.6701575,59.8245575 62.3896872,57.4368115 L62.2418805,57.1559203 L64.0673189,67.65735 L64.0894766,67.8280541 L64.0968808,68.0000323 C64.0968808,69.0543941 63.2814038,69.9181974 62.2470524,69.9945466 L62.0978634,70.0000323 L60.4952566,70.0000323 L60.4891171,71.5379235 L60.4771103,73.033113 L60.4650646,74.0459869 C60.2976427,86.3539107 59.425596,91.8597863 57.0887605,91.9973841 L56.9980349,92.0000323 L56.9083682,91.9974461 C54.5390541,91.859606 53.6750765,86.2055403 53.5245832,73.5417103 L53.5069527,71.5379235 L53.5008132,70.0000323 L52.4991868,70.0000323 L52.4930473,71.5379235 L52.4692751,74.0253273 L52.444703,75.5304847 C52.2273132,86.7995905 51.3331143,91.8670429 49.0916318,91.9974461 L49.0019651,92.0000323 C46.4412799,92.0000323 45.5953461,85.7786675 45.5108829,71.5379235 L45.5047434,70.0000323 L43.9021366,70.0000323 C42.7981098,70.0000323 41.9031192,69.1046018 41.9031192,68.0000323 L41.9105234,67.8280541 L41.9326811,67.65735 L43.7581195,57.1559203 C42.4272719,59.7323975 41.1135406,61.0000323 39.7152713,61.0000323 C38.6048808,61.0000323 38.136869,60.2101596 38.0266273,58.7519007 L38.0150775,58.5733436 C36.4786712,59.405544 34.8103448,60.2155172 33,61 C3,48 11.8945312,28 10,12 C19,13 26,12 33,8 Z M58.4959726,70.0000323 L55.5000972,70.0000323 L55.5106771,71.9273873 L55.5318188,73.7610028 L55.5527488,74.9812405 C55.6349328,79.1726071 55.8108477,82.529452 56.0796873,85.0476144 L56.1608286,85.7590028 L56.2526039,86.4606815 C56.4259815,87.695499 56.6272063,88.6459632 56.8508674,89.3023584 C56.900529,89.4481039 56.9500414,89.5753368 56.9980349,89.6834844 C57.0460284,89.5753368 57.0955408,89.4481039 57.1452024,89.3023584 C57.4095292,88.5266186 57.6425193,87.3401544 57.8352412,85.7590028 L57.9163825,85.0476144 L57.9876705,84.3371616 L58.0569861,83.5525525 C58.2907594,80.7268842 58.4317808,77.0662156 58.4792481,72.5746861 L58.4900935,71.295348 L58.4959726,70.0000323 Z M50.4999028,70.0000323 L47.5040274,70.0000323 L47.5099065,71.295348 L47.527529,73.1602171 L47.5459768,74.4000922 C47.6194455,78.6604833 47.7863568,82.0894378 48.0459085,84.6828164 L48.1210034,85.3871226 C48.3218215,87.1551911 48.5701379,88.4669463 48.8547976,89.3023584 C48.9044592,89.4481039 48.9539716,89.5753368 49.0019651,89.6834844 C49.0499586,89.5753368 49.099471,89.4481039 49.1491326,89.3023584 C49.4134594,88.5266186 49.6464495,87.3401544 49.8391714,85.7590028 L49.8829268,85.3871226 C50.237279,82.2672911 50.4399717,77.777819 50.4893229,71.9273873 L50.4999028,70.0000323 Z M84.0077826,66 L82.0077277,66 L82.0021272,68.2961151 L81.9795609,71.0022721 L81.9618095,72.3462308 C81.8955831,76.7458692 81.7579781,80.3452901 81.5242064,83.2051446 L81.5610701,83.6550277 L81.6291367,84.4042876 L81.7128917,85.2196559 L81.8017303,85.9771863 L81.8955313,86.6766121 C82.0398941,87.6820392 82.2005969,88.4904641 82.3758012,89.0978393 L82.4645399,89.3842498 L82.5087277,89.5116358 L82.5972817,89.2462789 L82.6416541,89.0978393 C82.8947271,88.2205196 83.1175435,86.9237258 83.3045636,85.2196559 L83.3883186,84.4042876 L83.4563852,83.6550277 L83.5205087,82.8640366 L83.5829226,81.9984666 L83.6410797,81.0879213 L83.697438,80.0857932 L83.7771056,78.3982123 C83.9001081,75.4825593 83.9742119,72.0519046 83.9991983,68.1075913 L84.0077826,66 Z M80.0097826,66 L77.0116727,66 L77.020257,68.1075913 L77.045607,70.7722865 L77.0764586,72.7383772 L77.1038158,74.0542236 L77.1379502,75.3932204 C77.229928,78.6709434 77.3717094,81.4253384 77.5630701,83.6550277 L77.6311367,84.4042876 L77.7148917,85.2196559 L77.8037303,85.9771863 L77.8975313,86.6766121 C78.0418941,87.6820392 78.2025969,88.4904641 78.3778012,89.0978393 L78.4665399,89.3842498 L78.5107277,89.5116358 L78.5992817,89.2462789 L78.6436541,89.0978393 C78.8967271,88.2205196 79.1195435,86.9237258 79.3065636,85.2196559 L79.3903186,84.4042876 L79.4583852,83.6550277 L79.5225087,82.8640366 L79.5849226,81.9984666 L79.6430797,81.0879213 L79.699438,80.0857932 C79.8705019,76.8342749 79.9712147,72.8407672 80.0011983,68.1075913 L80.0097826,66 Z M46.2616652,38.8980235 L45.9547401,38.9701748 C44.7059834,39.2825174 42.6673958,43.8458868 41.2625814,49.6108891 C40.6171292,52.2596615 40.1758321,54.8579474 40.0458847,56.7705983 C39.9840337,57.6809623 39.9957369,58.4021831 40.0748575,58.8704903 C40.5740587,58.5513676 41.2784224,57.6361255 42.0696869,56.0528187 C43.2029936,53.7850911 44.4336146,50.3376587 45.7507808,45.7253112 C46.0863963,44.5500794 47.793721,44.8997379 47.7115713,46.0495977 L47.6965601,46.1713735 L43.9021366,68.0000323 L62.0978634,68.0000323 L58.3034399,46.1713735 L58.2884287,46.0495977 C58.206279,44.8997379 59.9136037,44.5500794 60.2492192,45.7253112 C61.5663854,50.3376587 62.7970064,53.7850911 63.9303131,56.0528187 C64.7215776,57.6361255 65.4259413,58.5513676 65.9251425,58.8704903 C66.0042631,58.4021831 66.0159663,57.6809623 65.9541153,56.7705983 C65.8241679,54.8579474 65.3828708,52.2596615 64.7374186,49.6108891 L64.5586189,48.8967429 L64.3695709,48.1806925 C63.0258708,43.2223114 61.2707155,39.4320383 60.1243227,38.9952038 L60.0452599,38.9701748 L59.7383348,38.8980235 C58.1708702,38.5521495 56.1110295,38.429692 53.5684505,38.5386154 L53.0535011,38.5634876 L52.9464989,38.5634876 C50.1658042,38.4143573 47.9336274,38.5290913 46.2616652,38.8980235 Z M33,12.5361221 L33,56.616071 C25.1355396,52.9606681 20.4089411,48.8004416 17.6931961,44.2507314 C13.6439985,37.4670768 14.032118,30.0156089 14.2164617,22.9369525 C14.2746807,20.7013861 14.3273866,18.492115 14.2820293,16.3305844 C21.2592001,16.5786135 27.1807947,15.4455874 33,12.5361221 Z M31.0000054,50.8847709 L29.3984375,52.4863388 C29.9146347,52.7894963 30.4483757,53.088896 31.0000054,53.3846182 L31.0000054,50.8847709 Z M31.0000054,42.3994896 L24.4068335,48.9926614 C25.3856446,49.8210727 26.4659085,50.6242199 27.6529927,51.4033565 L31.0000054,48.0563438 L31.0000054,42.3994896 Z M31.0000054,33.9142082 L20.3111099,44.6031036 C21.0589809,45.6522964 21.9279453,46.6656416 22.9260496,47.6450182 L31.0000054,39.5710624 L31.0000054,33.9142082 Z M31.0000054,25.4289268 L17.4753558,38.9535764 C17.9227607,40.3320465 18.4938229,41.6290687 19.2075784,42.878208 L31.0000054,31.0857811 L31.0000054,25.4289268 Z M48.4764789,35.3422659 C48.0738663,35.9913726 47.4648435,36.4990377 46.7410941,36.7735778 C47.8134077,36.6033463 49.0325478,36.5130575 50.4002018,36.5013168 C49.6950954,36.2190983 49.0466015,35.825495 48.4764789,35.3422659 Z M57.5235211,35.3422659 C56.9533985,35.825495 56.3049046,36.2190983 55.5997982,36.5013168 C56.9674522,36.5130575 58.1865923,36.6033463 59.2589059,36.7735778 C58.5351565,36.4990377 57.9261337,35.9913726 57.5235211,35.3422659 Z M31.0000054,16.9436454 L16.2091708,31.73448 C16.3204802,33.5328769 16.5347251,35.1840903 16.8737935,36.7267116 L31.0000054,22.6004997 L31.0000054,16.9436454 Z M60.5,32 C60.1703686,32 59.8655711,32.1063265 59.6180335,32.2865536 C59.4583272,32.7488753 59.2515416,33.1892426 59.0034083,33.6019241 C59.0558065,34.3828172 59.7058279,35 60.5,35 C61.3284271,35 62,34.3284271 62,33.5 C62,32.6715729 61.3284271,32 60.5,32 Z M45.5,32 C44.6715729,32 44,32.6715729 44,33.5 C44,34.3284271 44.6715729,35 45.5,35 C46.2941721,35 46.9441935,34.3828172 46.9965917,33.6019241 C46.7484584,33.1892426 46.5416728,32.7488753 46.3819665,32.2865536 C46.1344289,32.1063265 45.8296314,32 45.5,32 Z M53,25 C50.2385763,25 48,27.2385763 48,30 C48,32.6887547 50.1223067,34.8818181 52.7831104,34.9953805 L53,35 L53.2168896,34.9953805 C55.8776933,34.8818181 58,32.6887547 58,30 C58,27.3112453 55.8776933,25.1181819 53.2168896,25.0046195 L53,25 Z M28.6209152,16.4943085 C26.2946952,17.2498785 23.9028424,17.7687107 21.3936987,18.0646708 L16.2089288,23.2494406 L16.1518886,25.4387791 C16.1166354,26.9368716 16.1034778,28.0114708 16.1141397,29.001084 L28.6209152,16.4943085 Z M78.8283551,11 C82.6943484,11 85.8283551,14.1340068 85.8283551,18 C85.8283551,21.8659932 82.6943484,25 78.8283551,25 C77.5094876,25 76.2758091,24.6352628 75.2226862,24.0011551 L69.8283551,24 C70.775403,23.0529522 71.5542821,21.769567 72.1649926,20.1498444 C71.9461886,19.4717332 71.8283551,18.7496273 71.8283551,18 C71.8283551,14.1340068 74.9623619,11 78.8283551,11 Z M78.8283551,13 C76.0669314,13 73.8283551,15.2385763 73.8283551,18 C73.8283551,18.5292634 73.9099054,19.0446065 74.0683619,19.5356901 L74.2830864,20.2011581 L74.0363889,20.8554476 C73.9364882,21.1204036 73.8321692,21.3784276 73.7233837,21.6294722 L73.5568495,22.0007983 L75.7785299,22.0012741 L76.2543489,22.2877748 C77.0248913,22.7517348 77.9059836,23 78.8283551,23 C81.5897789,23 83.8283551,20.7614237 83.8283551,18 C83.8283551,15.2385763 81.5897789,13 78.8283551,13 Z M18.3158789,18.3140634 C17.6530602,18.3443881 16.9813516,18.3607139 16.2999085,18.3632673 C16.2979957,18.9678293 16.2901968,19.6138745 16.2765345,20.3534078 L18.3158789,18.3140634 Z M38.0782631,56.2797696 L38.1237343,55.7855354 C38.3163124,53.8741455 38.7392262,51.5223577 39.3204493,49.1371655 L39.5177698,48.3469103 L39.720213,47.5748794 L39.9276398,46.8220216 C41.466702,41.3736839 43.3965305,37.5484887 45.4699072,37.0298898 L45.5975132,36.9986678 L45.5,37 C43.5670034,37 42,35.4329966 42,33.5 C42,31.5670034 43.5670034,30 45.5,30 C45.6131941,30 45.7251331,30.0053735 45.835576,30.0158793 L46.0000879,30.035457 L46,30 C46,26.2145483 49.0047834,23.1309013 52.7593502,23.004059 L53,23 L53.2406498,23.004059 L53.5056442,23.0179826 L53.7448552,23.0391616 L53.6967317,20.833729 L53.6809063,19.8506461 C53.6486064,17.4850314 53.6719436,15.7861109 53.7770285,14.2138738 C45.6956533,14.803355 39.2565067,13.6217768 33,10.2846366 C26.7398265,13.6237326 20.296799,14.8047393 12.2087609,14.2128355 L12.2490789,14.9760374 L12.2727255,15.6032179 C12.3196323,17.0962101 12.3094638,18.8143847 12.2590976,21.1396344 L12.1615575,25.217482 C12.1154809,27.4662666 12.1179896,28.8434948 12.1745448,30.4416661 L12.2107585,31.2781567 C12.8646767,44.0044058 18.0930718,52.1557075 33,58.8150324 C34.8370238,57.9943777 36.52656,57.1512539 38.0782631,56.2797696 Z M67.8854246,55.8778886 L68.0451594,55.5855383 L68.210888,55.2599684 C69.6165092,52.4088929 71.630578,46.1132573 73.8555489,36.7683795 C74.1397675,35.5746613 75.8696547,35.8561622 75.8297599,37.0123886 L75.8191879,37.1350939 L72.1563235,64 L88.5025456,64 L87.7084177,61.1741442 L87.2154012,59.3799509 C85.6826373,53.7455748 84.6896417,49.5307562 84.2345203,46.7179878 L84.1226122,45.9776033 L84.0631624,45.5234903 L84.0158342,45.1009304 C83.8632599,43.5969721 84.1285242,42.3908191 84.8227664,40.8012638 L84.9781026,40.4545282 L85.5010437,39.3382974 C85.9832202,38.2943856 86.226916,37.6342277 86.3932803,36.8408473 C86.8719696,34.5580105 85.5595596,31.9429454 83.1527238,29.7372396 C81.1046693,27.8603333 75.7888833,27.2281649 73.3830553,28.8320503 C72.4947389,29.4242613 70.7874389,34.3797276 69.3319865,40.4760907 L69.0677364,41.6079211 L68.8106249,42.7609738 L68.5576155,43.9526056 L68.3224872,45.1185077 L68.1038751,46.2629162 C67.733636,48.2580271 67.4442796,50.1300659 67.2565843,51.7578059 C67.5201808,53.0922002 67.7210255,54.3647383 67.8457502,55.4964053 L67.8854246,55.8778886 L67.8854246,55.8778886 Z" ></path>
                </g>
            </g>
        </g>
    </g>
</svg>