<svg width="100px" height="100px" viewBox="0 0 100 100" version="1.1" xmlns="http://www.w3.org/2000/svg" role="img"
     aria-labelledby="icon-latrine-title">
    <title id="icon-latrine-title">Latrine</title>
    <g stroke="none" stroke-width="1" fill="none" fill-rule="evenodd">
        <path d="M42.9948712,43.7129064 C43.106382,43.8909396 43.2817649,44.1718205 43.3663037,44.311833 C43.4189582,44.399388 43.4189582,44.399388 43.4716798,44.4887314 C43.6446581,44.7834936 43.7766162,45.0316539 43.8682101,45.2468596 C43.9373118,45.4092186 43.9857834,45.5563203 44.0110309,45.7094409 C44.0760669,46.1038692 44.0059653,46.495526 43.6,46.8 C42.7713842,47.4214618 42.2945699,47.9751817 42.0586874,48.521436 C41.7773282,49.1730046 41.7845019,49.645334 42.0239623,51.4086333 C42.2827914,53.3145568 42.3105039,54.5465002 41.9805807,56.1961161 C41.5764151,58.2169441 41.0716256,59.3109074 40.0756961,60.4013191 C39.7127761,60.7986687 38.0734313,62.3407823 37.7071068,62.7071068 C37.0213606,63.392853 36.4293258,63.546547 35.3974636,63.5546261 C35.1345691,63.5566845 34.9905078,63.5639712 34.8926775,63.5916071 C34.9014581,63.6654943 34.9159226,63.7524154 34.9364327,63.8491268 C35.0295166,64.2880447 35.2247968,64.8346915 35.4783921,65.3488936 C36.000808,66.4081691 36.6259993,67.0324125 36.9004963,67.0049628 C40.7433662,66.6206758 43.6110089,64.1068332 45.6587946,60.0752553 C46.4603693,58.497155 47.0754871,56.7974874 47.5254082,55.0967858 C47.682941,54.5013117 47.808318,53.9492485 47.9045963,53.4555421 C47.9379744,53.2843826 47.9652619,53.133309 47.9868514,53.0041819 C47.9993526,52.9294116 48.0069534,52.8802583 48.0100505,52.8585786 C48.0881554,52.3118446 48.5946873,51.9319456 49.1414214,52.0100505 C49.6881554,52.0881554 50.0680544,52.5946873 49.9899495,53.1414214 C49.9846447,53.1785551 49.9746247,53.2433528 49.9594697,53.3339954 C49.9349653,53.4805563 49.9044896,53.6492808 49.8676183,53.8383536 C49.8393063,53.9835348 49.8087419,54.1330719 49.7758557,54.286677 C51.7615339,54.9934757 53.408729,55.9945155 54.7071068,57.2928932 C56.1125098,58.6982962 57.1765267,60.1169855 57.8944272,61.5527864 C58.1414164,62.0467649 57.9411921,62.6474379 57.4472136,62.8944272 C56.9532351,63.1414164 56.3525621,62.9411921 56.1055728,62.4472136 C55.4901399,61.2163479 54.5541569,59.9683704 53.2928932,58.7071068 C52.2519416,57.6661551 50.919256,56.8416605 49.2856288,56.2363824 C48.8208628,57.8539561 48.2134817,59.4620375 47.4419523,60.9809862 C45.8911532,64.0341219 43.8694105,66.3714502 41.3236085,67.7281021 C45.7398234,71.0240482 48,74.0810612 48,77 C48,78.1706787 47.4964338,78.3168753 45.4849945,78.5489645 C45.3540859,78.5640693 44.8686493,78.6180852 44.8717948,78.6177313 C44.618126,78.6462691 44.4197426,78.6697566 44.223818,78.6949469 C43.7230128,78.7593361 43.2920822,78.8288237 42.8865583,78.9144343 C41.7620327,79.1518341 40.9104959,79.5027319 40.3288357,80 L54,80 C54.230397,80 54.288126,79.8604979 54.0861885,79.4061385 C53.7862119,78.7311912 53.4857259,78.19777 53.160599,77.7413627 C52.8619749,77.3221598 52.5839917,77.0106294 52.0694744,76.4928005 C50.614848,75.0288119 50.0226194,74.2813069 49.1055728,72.4472136 C48.2934623,70.8229926 47.918816,69.1997773 47.9935449,67.5897496 C47.0015202,66.4104649 46.2991688,65.2529267 46.0337651,64.2576627 C45.8914619,63.7240258 46.2087005,63.1760682 46.7423373,63.0337651 C47.2759742,62.8914619 47.8239318,63.2087005 47.9662349,63.7423373 C48.8145902,66.9236694 56.3026701,73 61,73 C64.9477153,73 68,69.9477153 68,65 C68,59.3345817 66.6783715,54.9760958 62.2317787,49.6401844 C58.4133118,45.0580241 51.3690151,41.7419629 46.835601,40.9863939 C46.222009,40.8841286 45.6762516,40.7974363 45.1934384,40.7292275 C44.6725195,41.8718929 43.9195949,42.8865213 42.9948712,43.7129064 L42.9948712,43.7129064 Z M41.3621852,44.8740691 C40.0700139,45.5914549 38.5827174,46 37,46 C32.0294373,46 28,41.9705627 28,37 C28,32.0294373 32.0294373,28 37,28 C41.9705627,28 46,32.0294373 46,37 C46,37.6230253 45.936694,38.2312647 45.8161637,38.8186366 C46.2415753,38.8696293 46.6909492,38.9346978 47.164399,39.0136061 C52.1294737,39.8411185 59.5998282,43.3577439 63.7682213,48.3598156 C68.541425,54.08766 70,58.8977703 70,65 C70,71.0522847 66.0522847,75 61,75 C57.6582179,75 53.3857802,72.6340643 50.2417421,69.8669218 C50.3924652,70.4217251 50.6097139,70.9833598 50.8944272,71.5527864 C51.6988469,73.1616258 52.170464,73.7568963 53.4882171,75.0831307 C54.0731356,75.6718138 54.4141316,76.0539615 54.7895471,76.5809628 C55.1946761,77.1496754 55.5608659,77.7997338 55.9138115,78.5938615 C56.6377174,80.2226497 55.9022124,82 54,82 L39,82 C38.0951133,82 37.5811719,81.2806462 37.7170072,80.4789734 C37.7759781,80.1309392 37.9435411,79.7819128 38.1679497,79.4452998 C39.0528883,78.117892 40.506855,77.372734 42.4734417,76.9575657 C42.9374442,76.8596096 43.4189422,76.7819681 43.9687746,76.7112753 C44.1768563,76.684522 44.3849316,76.659887 44.6482052,76.6302687 C44.648717,76.6302111 45.1296027,76.5767016 45.2557463,76.5621466 C45.5591135,76.5271427 45.7873497,76.4966064 45.9612124,76.4669522 C45.6529128,74.3138409 43.5040641,71.7318065 39.4187618,68.8137335 C39.3305575,68.7507304 39.255655,68.6760348 39.1946575,68.5932656 C38.5265699,68.7870558 37.8284191,68.9221457 37.0995037,68.9950372 C34.5705632,69.2479312 31.851387,63.7343995 33.2928932,62.2928932 C33.6266315,61.9591549 33.9365547,61.771085 34.3092151,61.6683607 C33.174862,60.3079084 32.7169638,59.0090392 33.0298575,57.7574644 C33.7747842,54.7777577 36.2478506,53.2043411 40.188924,53.0186426 C40.1590843,52.6115693 40.1094052,52.1729858 40.0421534,51.6777679 C39.7508092,49.5324153 39.7403721,48.8452159 40.2225626,47.728564 C40.5383444,46.9972799 41.0627768,46.3207452 41.8347775,45.6538046 C41.8075289,45.6054871 41.7781448,45.5544632 41.7467608,45.5009836 C41.701052,45.4235223 41.701052,45.4235223 41.6541906,45.3455974 C41.6166743,45.2834631 41.4867494,45.0756114 41.3621851,44.874069 L41.3621852,44.8740691 Z M36.4982265,61.091553 C37.0838639,60.523573 38.3348008,59.3417428 38.5989519,59.0525321 C39.3303779,58.2517168 39.6824545,57.488708 40.0194193,55.8038839 C40.0737376,55.5322926 40.1165333,55.2742605 40.1485,55.0221003 C37.1090896,55.1863524 35.4643659,56.2656421 34.9701425,58.2425356 C34.8021722,58.9144167 35.2575235,59.8722697 36.4982265,61.091553 L36.4982265,61.091553 Z M74,86 L74,91 C74,91.5522847 73.5522847,92 73,92 C72.4477153,92 72,91.5522847 72,91 L72,85 C72,84.4477153 72.4477153,84 73,84 L82,84 L82,29.6223078 L18,12.4572049 L18,84 L55,84 C55.5522847,84 56,84.4477153 56,85 L56,91 C56,91.5522847 55.5522847,92 55,92 C54.4477153,92 54,91.5522847 54,91 L54,86 L9,86 C8.44771525,86 8,85.5522847 8,85 C8,84.4477153 8.44771525,84 9,84 L16,84 L16,11.9207954 L8.7439282,9.97468263 C8.208664,9.83112224 7.89101444,9.28041236 8.03443805,8.74463768 C8.17786166,8.208863 8.72804684,7.89091051 9.26331104,8.0344709 L91.2560718,30.0253174 C91.791336,30.1688778 92.1089856,30.7195876 91.9655619,31.2553623 C91.8221383,31.791137 91.2719532,32.1090895 90.736689,31.9655291 L84,30.1587172 L84,84 L91,84 C91.5522847,84 92,84.4477153 92,85 C92,85.5522847 91.5522847,86 91,86 L74,86 Z M37,44 C40.8659932,44 44,40.8659932 44,37 C44,33.1340068 40.8659932,30 37,30 C33.1340068,30 30,33.1340068 30,37 C30,40.8659932 33.1340068,44 37,44 Z" fill="#333333"></path>
    </g>
</svg>