<svg width="100px" height="100px" viewBox="0 0 100 100" version="1.1" xmlns="http://www.w3.org/2000/svg" role="img"
     aria-labelledby="icon-legal-aid-title">
    <title id="icon-legal-aid-title">Legal aid</title>
    <g stroke="none" stroke-width="1" fill="none" fill-rule="evenodd">
        <path d="M11.363137,38 L25.0938169,8.57711453 C25.2733636,8.19237151 25.6366818,8 26,8 L74,8 C74.3633182,8 74.7266364,8.19237151 74.9061831,8.57711453 L88.636863,38 L92,38 C93.1045695,38 94,38.8954305 94,40 C94,51.045695 85.045695,60 74,60 C62.954305,60 54,51.045695 54,40 C54,38.8954305 54.8954305,38 56,38 L59.363137,38 L72.4298036,10 L27.5701964,10 L40.636863,38 L44,38 C45.1045695,38 46,38.8954305 46,40 C46,51.045695 37.045695,60 26,60 C14.954305,60 6,51.045695 6,40 C6,38.8954305 6.8954305,38 8,38 L11.363137,38 Z M13.5701964,38 L38.4298036,38 L26,11.3647065 L13.5701964,38 Z M61.5701964,38 L86.4298036,38 L74,11.3647065 L61.5701964,38 Z M8,40 C8,49.9411255 16.0588745,58 26,58 C35.9411255,58 44,49.9411255 44,40 L8,40 Z M56,40 C56,49.9411255 64.0588745,58 74,58 C83.9411255,58 92,49.9411255 92,40 L56,40 Z M38,4 C37.4477153,4 37,3.55228475 37,3 C37,2.44771525 37.4477153,2 38,2 L62,2 C62.5522847,2 63,2.44771525 63,3 C63,3.55228475 62.5522847,4 62,4 L38,4 Z M25,90.9898017 L25.0000001,70.0224338 C24.9996854,70.0080231 24.9996837,69.993568 25.0000001,69.9790751 L25.0000002,64.9052831 C19.4021768,64.4118151 13.4995305,65.0941715 7.28734789,66.9578263 C6.75835504,67.1165241 6.20087157,66.8163407 6.04217371,66.2873479 C5.88347586,65.758355 6.18365926,65.2008716 6.71265211,65.0421737 C13.5037823,63.0048346 19.9715439,62.3240176 26.1104315,63.0061163 C26.6168642,63.0623866 27,63.4904508 27,64 L27,66.322769 C28.0214013,65.4501055 29.3651058,65 31,65 L62,65 C65.7871742,65 68.9261074,67.0616801 69.7740894,69.932643 C75.0912409,66.4733923 79.4422217,64.4981015 82.8585786,64.0100505 C87.9454793,63.2833504 91.4054853,64.8211309 92.9284767,68.6286093 C93.0947444,69.0442785 92.9644821,69.5198078 92.6095916,69.7927156 C83.8304544,76.5437985 74.160614,83.8795395 63.6,91.8 C60.6699655,93.9975259 48.7279365,94.0334217 27,92.0941371 L27,93 C27,93.3787721 26.7859976,93.7250352 26.4472136,93.8944272 C23.6713505,95.2823587 19.9058237,96.3093206 15.1414214,96.9899495 C14.5946873,97.0680544 14.0881554,96.6881554 14.0100505,96.1414214 C13.9319456,95.5946873 14.3118446,95.0881554 14.8585786,95.0100505 C19.1071942,94.4031054 22.490137,93.5191677 25,92.3700063 L25,91.0125142 C24.9999146,91.0049601 24.9999143,90.9973889 25,90.9898017 L25,90.9898017 Z M27,90.0861121 C48.0189275,91.9656295 60.0786347,91.941024 62.4,90.2 C72.7010852,82.4741861 82.1534798,75.3055357 90.7571184,68.6941058 C89.4936816,66.3364799 87.0347891,65.4337541 83.1414214,65.9899495 C78.6909303,66.6257339 72.1496585,70.2234334 63.6097108,76.792624 C63.4605795,76.9073403 63.2821103,76.9776573 63.0948091,76.9954955 L42.0948091,78.9954955 C41.5450121,79.0478571 41.0568661,78.6446061 41.0045045,78.0948091 C40.9521429,77.5450121 41.3553939,77.0568661 41.9051909,77.0045045 L62.6190313,75.0317578 C64.4978731,73.5920465 66.2846587,72.291699 67.9802973,71.1308099 C67.7363767,68.8536845 65.2539036,67 62,67 L31,67 C28.8356832,67 27.5714072,67.9811381 27,70.1268401 L27,90.0861121 Z M17,69 C17,68.4477153 17.4477153,68 18,68 C18.5522847,68 19,68.4477153 19,69 L19,75 C19,75.5522847 18.5522847,76 18,76 C17.4477153,76 17,75.5522847 17,75 L17,69 Z" fill="#1B77D4"></path>
    </g>
</svg>