<svg width="100px" height="100px" viewBox="0 0 100 100" version="1.1" xmlns="http://www.w3.org/2000/svg" role="img"
     aria-labelledby="icon-malnutrition-title">
    <title id="icon-malnutrition-title">Malnutrition</title>
    <g stroke="none" stroke-width="1" fill="none" fill-rule="evenodd">
        <path d="M50,18 C67.673112,18 82,32.326888 82,50 C82,66.657812 69.2719545,80.3428296 53.0106868,81.8602298 C52.9797526,81.8889381 52.9486603,81.9170239 52.9173535,81.9447384 C52.2792252,81.9814107 51.6362343,82 50.9888883,82 C49.8388343,82 49.0102753,81.8096998 48.5032112,81.4290995 C49.6963164,81.518361 50.8684758,81.0959403 51.7304168,80.2366121 C53.3407871,78.6311234 53.3407871,76.0281118 51.7304168,74.422623 C51.3645865,74.0579017 50.9435832,73.7711631 50.4834924,73.5684363 L46.8897733,71.9849595 L50.2386411,69.9362991 C50.5127905,69.768589 50.7683164,69.5678179 51.0014584,69.3353826 C52.6118287,67.7298938 52.6118287,65.1268822 51.0014584,63.5213935 C50.2689461,62.7911016 49.3129848,62.3748648 48.2999577,62.3227825 L44.1021989,62.1069648 L46.8428906,58.9296757 C48.2417566,57.3079677 48.1551679,54.8697419 46.6277084,53.3469126 C45.100249,51.8240833 42.6546097,51.7377571 41.0279708,53.1323827 L37.841021,55.8647665 L37.6245472,51.6797324 C37.5723065,50.6697761 37.1548041,49.7167126 36.4222918,48.9864208 C34.8119215,47.380932 32.2009954,47.380932 30.5906251,48.9864208 C30.3574831,49.2188561 30.1561015,49.4736074 29.9878815,49.7469257 L27.9329921,53.0856421 L26.3447007,49.5028167 C26.1413575,49.0441205 25.853747,48.6243934 25.4879168,48.2596721 C23.8775465,46.6541834 21.2666204,46.6541834 19.6562501,48.2596721 C18.8028674,49.110468 18.3788998,50.2643981 18.4576878,51.4426332 C18.1525626,50.9900105 18,50.2128365 18,49.1111111 C18,48.3805738 18.0238908,47.6555995 18.0709358,46.9369225 L18.1528283,46.8525354 C19.7339796,30.6567293 33.388921,18 50,18 Z M50,20 C34.9919451,20 22.557878,31.0205521 20.3488339,45.4106212 C22.3039903,44.6613658 24.5630457,44.9377757 26.2927908,46.2394596 C28.0965147,34.7720053 38.0238516,26 50,26 C63.254834,26 74,36.745166 74,50 C74,61.9569537 65.2560909,71.8716579 53.8137225,73.6986629 C55.0946979,75.4458516 55.337982,77.7128312 54.5440235,79.6575969 C68.9557808,77.4688074 80,65.0241615 80,50 C80,33.4314575 66.5685425,20 50,20 Z M13,25 C13.5128358,25 13.9355072,25.3860402 13.9932723,25.8833789 L14,26 L14,40.6666667 C14,41.0785309 13.7482777,41.4436178 13.3736194,41.5942975 L13.2576627,41.6329016 L9,42.768 L9,74 C9,74.5128358 8.61395981,74.9355072 8.11662113,74.9932723 L8,75 C7.48716416,75 7.06449284,74.6139598 7.00672773,74.1166211 L7,74 L7,42.768 L2.74233735,41.6329016 C2.3443797,41.5267796 2.05647947,41.1894875 2.00742288,40.788655 L2,40.6666667 L2,26 C2,25.4477153 2.44771525,25 3,25 C3.51283584,25 3.93550716,25.3860402 3.99327227,25.8833789 L4,26 L4,39.8983884 L7,40.698 L7,26 C7,25.4871642 7.38604019,25.0644928 7.88337887,25.0067277 L8,25 C8.51283584,25 8.93550716,25.3860402 8.99327227,25.8833789 L9,26 L9,40.698 L12,39.8983884 L12,26 C12,25.4477153 12.4477153,25 13,25 Z M94.999828,22 L94.999828,74 C94.999828,74.5522847 94.5521128,75 93.999828,75 C93.4475433,75 92.999828,74.5522847 92.999828,74 L92.999828,54.2029029 C88.9437909,52.9673163 86.999828,48.2734385 86.999828,40.4166667 C86.999828,34.4386324 89.0571412,28.1238238 93.1481697,21.4759026 C93.6766294,20.6171555 94.999828,20.9916765 94.999828,22 Z M50,28 C38.4128286,28 28.9178954,36.9579362 28.0627137,48.3262951 C28.1232958,48.4398252 28.1788187,48.5552137 28.230535,48.671874 C28.4799576,48.2666204 28.7806821,47.8838828 29.1327085,47.5329235 C31.5482639,45.1246904 35.464653,45.1246904 37.8802085,47.5329235 C39.0064415,48.6557426 39.6075776,50.1038261 39.6836166,51.5738703 C42.1137416,49.4903627 45.7821048,49.5968777 48.0856251,51.8934153 C50.3891454,54.1899529 50.4959843,57.8471962 48.4061417,60.2699547 C49.8806556,60.3457633 51.3331421,60.9450771 52.4593751,62.0678962 C54.8749305,64.4761293 54.8749305,68.3806467 52.4593751,70.7888798 C52.1073487,71.1398391 51.7234474,71.4396521 51.3169616,71.6883186 C51.4796513,71.7600034 51.6398752,71.8390242 51.7971288,71.9253809 C63.1064881,71.013668 72,61.5454295 72,50 C72,37.8497355 62.1502645,28 50,28 Z M92.999828,25.784612 C90.3287112,30.9270079 88.999828,35.8036689 88.999828,40.4166667 C88.999828,47.0092456 90.3788386,50.809118 92.999828,52.0570689 L92.999828,25.784612 Z" fill="#1B77D4"></path>
    </g>
</svg>