<svg width="100px" height="100px" viewBox="0 0 100 100" version="1.1" xmlns="http://www.w3.org/2000/svg" role="img"
     aria-labelledby="icon-nonfood-distribution-title">
    <title id="icon-nonfood-distribution-title">Non-Food-Item Distribution</title>
    <g stroke="none" stroke-width="1" fill="none" fill-rule="evenodd">
        <path d="M65.0111972,35.7389877 L55.7850307,8.63712333 C47.0952762,11.8519364 36.899332,12.4436486 25.2191054,10.4459629 L41.4327627,56.1767914 L54.4575206,59.1825048 C54.6962229,59.2375903 54.9276118,59.3092494 55.1505832,59.3960989 L62,56.0894838 L62,44 C62,42.3431458 63.3431458,41 65,41 L65,36 C65,35.9120609 65.0037837,35.8250054 65.0111972,35.7389877 L65.0111972,35.7389877 Z M62,58.3103448 L57.0437866,60.7029996 C57.8474219,61.5930196 58.3283111,62.7673079 58.3336269,64.0344494 C58.3428327,66.4463769 57.8984395,68.1015605 57,69 C58.281543,70.281543 58.3313217,71.871027 57.1493361,73.7684521 C57.1425314,73.779375 57.1355246,73.7901525 57.1283211,73.8007797 C57.8810085,74.6784076 58.3284318,75.8140997 58.3336269,77.0361551 C58.3428327,79.4480826 57.8984395,81.1032662 57,82.0017057 C58.281543,83.2832486 58.3313217,84.8727327 57.1493361,86.7701577 C57.0564971,86.9191823 56.9260609,87.0411399 56.7711397,87.1237645 L43.7832696,94.0506286 C42.6393796,94.6607032 41.3032506,94.8026344 40.0567228,94.4464836 L14,87.0017057 C11.1223593,83.1648515 11.0049906,77.487816 13.6478938,73.5008528 C11.0049906,69.5138897 11.1223593,63.8368542 14,60 L28.2571429,55.247619 L22,33 L13.9631579,56.2175439 L5,53 L23,8 C36.3333333,10.6666667 47.6666667,10 57,6 L66.3579226,33.4888976 C66.8296906,33.1797679 67.3938518,33 68,33 L78,33 C79.6568542,33 81,34.3431458 81,36 L81,41 L83.1953794,41 C83.7116848,41 84.2079869,41.1996674 84.5804431,41.5572254 L85.8551219,42.780917 L88.0857864,40.5502525 C88.4763107,40.1597282 89.1094757,40.1597282 89.5,40.5502525 L89.8526407,40.9028932 L91.2884271,39.4671068 C91.6789514,39.0765825 92.3121164,39.0765825 92.7026407,39.4671068 L95.5310678,42.2955339 C95.9215921,42.6860582 95.9215921,43.3192232 95.5310678,43.7097475 L94.0952814,45.1455339 L94.4497475,45.5 C94.8402718,45.8905243 94.8402718,46.5236893 94.4497475,46.9142136 L92.3489597,49.0150013 L93.3850637,50.0096611 C93.7779234,50.3868065 94,50.9078465 94,51.4524358 L94,74 C94,75.6568542 92.6568542,77 91,77 L65,77 C63.3431458,77 62,75.6568542 62,74 L62,58.3103448 L62,58.3103448 Z M39.1216927,55.6434675 L23.6039151,11.875377 L7.62685942,51.8180163 L12.7349098,53.6516754 L22.197514,26.3152632 L30.1566594,54.6144469 L30.6653651,54.4448783 C31.5381763,54.1539412 32.4743384,54.1094627 33.3708015,54.3163388 L39.1216927,55.6434675 Z M15.7929005,74.5122573 L15.2598954,74.6899257 C13.2550886,77.7921207 13.2467365,82.1617301 15.234839,85.2744854 L40.606165,92.5234357 C41.3540817,92.7371262 42.1557591,92.6519675 42.8420931,92.2859227 L55.586035,85.4891537 C56.1690383,84.4780907 56.1181603,83.9482931 55.5857864,83.4159193 C55.5108281,83.3409609 55.4430637,83.2615329 55.382493,83.1784932 L43.683261,89.0281092 C42.426044,89.656694 40.8972947,89.147106 40.2686908,87.8898983 C40.091992,87.5365007 40,87.1468163 40,86.7517057 C40,85.8527043 40.3974965,84.9995772 41.1369291,84.2060734 C41.299604,84.031587 41.4921667,83.8875883 41.7055379,83.7809028 L50.5527864,79.3572785 C51.0467649,79.1102892 51.6474379,79.3105136 51.8944272,79.8044921 C52.1414164,80.2984706 51.9411921,80.8991436 51.4472136,81.1461329 L42.5999522,85.5697315 C42.1814092,86.0188805 42,86.4082302 42,86.7517057 C42,86.8363261 42.0197018,86.9197844 42.0575452,86.9954711 C42.192174,87.2647286 42.5195939,87.3738697 42.7888473,87.2392481 L55.2687795,80.999282 C55.3541241,80.8521068 55.4597931,80.7134855 55.5857864,80.5874921 C56.0259437,80.1473348 56.3409199,78.9741767 56.3339608,77.0441596 C56.3299502,76.1941408 55.9696767,75.4137606 55.3808947,74.8635229 L43.7832696,81.0489229 C42.6393796,81.6589975 41.3032506,81.8009288 40.0567228,81.4447779 L15.7929005,74.5122573 Z M55.2687795,67.9975763 C55.3541241,67.8504011 55.4597931,67.7117798 55.5857864,67.5857864 C56.0259437,67.1456291 56.3409199,65.972471 56.3339608,64.0424539 C56.3276224,62.6499876 55.3646179,61.4444009 54.0078016,61.1312872 L32.9210825,56.2651212 C32.3832046,56.1409955 31.8215074,56.1676827 31.2978207,56.3422449 L15.2598954,61.68822 C13.2550886,64.790415 13.2467365,69.1600245 15.234839,72.2727797 L40.606165,79.52173 C41.3540817,79.7354205 42.1557591,79.6502618 42.8420931,79.284217 L55.586035,72.487448 C56.1690383,71.476385 56.1181603,70.9465874 55.5857864,70.4142136 C55.5108281,70.3392552 55.4430637,70.2598272 55.382493,70.1767875 L43.683261,76.0264035 C42.426044,76.6549883 40.8972947,76.1454003 40.2686908,74.8881926 C40.091992,74.534795 40,74.1451106 40,73.75 C40,72.8509986 40.3974965,71.9978715 41.1369291,71.2043677 C41.299604,71.0298814 41.4921667,70.8858826 41.7055379,70.7791971 L50.5527864,66.3555728 C51.0467649,66.1085836 51.6474379,66.3088079 51.8944272,66.8027864 C52.1414164,67.2967649 51.9411921,67.8974379 51.4472136,68.1444272 L42.5999522,72.5680258 C42.1814092,73.0171748 42,73.4065245 42,73.75 C42,73.8346204 42.0197018,73.9180787 42.0575452,73.9937654 C42.192174,74.2630229 42.5195939,74.372164 42.7888473,74.2375424 L55.2687795,67.9975763 L55.2687795,67.9975763 Z M89.9225462,49.4580801 L83.1953794,43 L65,43 C64.4477153,43 64,43.4477153 64,44 L64,74 C64,74.5522847 64.4477153,75 65,75 L91,75 C91.5522847,75 92,74.5522847 92,74 L92,51.4524358 L90.3216927,49.8412607 C90.2816668,49.8117496 90.2433423,49.7788762 90.2071068,49.7426407 L89.9225462,49.4580801 Z M67,41 L69,41 L69,38 C69,37.4477153 69.4477153,37 70,37 L76,37 C76.5522847,37 77,37.4477153 77,38 L77,41 L79,41 L79,36 C79,35.4477153 78.5522847,35 78,35 L68,35 C67.4477153,35 67,35.4477153 67,36 L67,41 Z M71,41 L75,41 L75,39 L71,39 L71,41 Z M87.3786797,44.0857864 L90.9142136,47.6213203 L92.3284271,46.2071068 L88.7928932,42.6715729 L87.3786797,44.0857864 Z M91.9955339,41.5884271 L91.2884271,42.2955339 L92.7026407,43.7097475 L93.4097475,43.0026407 L91.9955339,41.5884271 Z M74,54 L82,54 C82.5522847,54 83,54.4477153 83,55 L83,63 C83,63.5522847 82.5522847,64 82,64 L74,64 C73.4477153,64 73,63.5522847 73,63 L73,55 C73,54.4477153 73.4477153,54 74,54 Z M75,56 L75,62 L81,62 L81,56 L75,56 Z M72.7071068,52.2928932 C73.0976311,52.6834175 73.0976311,53.3165825 72.7071068,53.7071068 C72.3165825,54.0976311 71.6834175,54.0976311 71.2928932,53.7071068 L69.2928932,51.7071068 C68.9023689,51.3165825 68.9023689,50.6834175 69.2928932,50.2928932 C69.6834175,49.9023689 70.3165825,49.9023689 70.7071068,50.2928932 L72.7071068,52.2928932 Z M83.2928932,52.2928932 L85.2928932,50.2928932 C85.6834175,49.9023689 86.3165825,49.9023689 86.7071068,50.2928932 C87.0976311,50.6834175 87.0976311,51.3165825 86.7071068,51.7071068 L84.7071068,53.7071068 C84.3165825,54.0976311 83.6834175,54.0976311 83.2928932,53.7071068 C82.9023689,53.3165825 82.9023689,52.6834175 83.2928932,52.2928932 Z M72.7071068,65.7071068 L70.7071068,67.7071068 C70.3165825,68.0976311 69.6834175,68.0976311 69.2928932,67.7071068 C68.9023689,67.3165825 68.9023689,66.6834175 69.2928932,66.2928932 L71.2928932,64.2928932 C71.6834175,63.9023689 72.3165825,63.9023689 72.7071068,64.2928932 C73.0976311,64.6834175 73.0976311,65.3165825 72.7071068,65.7071068 Z M83.2928932,65.7071068 C82.9023689,65.3165825 82.9023689,64.6834175 83.2928932,64.2928932 C83.6834175,63.9023689 84.3165825,63.9023689 84.7071068,64.2928932 L86.7071068,66.2928932 C87.0976311,66.6834175 87.0976311,67.3165825 86.7071068,67.7071068 C86.3165825,68.0976311 85.6834175,68.0976311 85.2928932,67.7071068 L83.2928932,65.7071068 Z" fill="#333333"></path>
    </g>
</svg>