<svg width="100px" height="100px" viewBox="0 0 100 100" version="1.1" xmlns="http://www.w3.org/2000/svg" role="img"
     aria-labelledby="icon-primary-healthcare-services-title">
    <title id="icon-primary-healthcare-services-title">Primary healthcare services</title>
    <g stroke="none" stroke-width="1" fill="none" fill-rule="evenodd">
        <path d="M37,47.3472623 L37,42 L57,42 L57,78 L81,78 L81,32 L25,32 L25,47.3472623 C26.8185108,46.4833821 28.8528054,46 31,46 C33.1471946,46 35.1814892,46.4833821 37,47.3472623 L37,47.3472623 Z M23,48.5093786 L23,26 C23,24.8954305 23.8954305,24 25,24 L43,24 L43,12 C43,10.8954305 43.8954305,10 45,10 L61,10 C62.1045695,10 63,10.8954305 63,12 L63,24 L81,24 C82.1045695,24 83,24.8954305 83,26 L83,80 L43,80 L43,83 C43,86.8659932 39.8659932,90 36,90 L26,90 C22.1340068,90 19,86.8659932 19,83 L19,78 C19,75.1652981 20.17948,72.6060784 22.0744468,70.7863344 C18.974635,68.2183958 17,64.3397983 17,60 C17,55.2425098 19.3730318,51.0392708 23,48.5093786 L23,48.5093786 Z M43,78 L55,78 L55,44 L39,44 L39,48.5093786 C42.6269682,51.0392708 45,55.2425098 45,60 C45,64.3397983 43.025365,68.2183958 39.9255532,70.7863344 C41.82052,72.6060784 43,75.1652981 43,78 L43,78 Z M81,26 L25,26 L25,30 L81,30 L81,26 Z M45,24 L61,24 L61,12 L45,12 L45,24 Z M63,42 L75,42 L75,62 L63,62 L63,42 Z M65,44 L65,60 L73,60 L73,44 L65,44 Z M54,17 L57,17 L57,19 L54,19 L54,22 L52,22 L52,19 L49,19 L49,17 L52,17 L52,14 L54,14 L54,17 Z M23.7395533,71.9726034 C22.0606402,73.4390983 21,75.5956863 21,78 L21,83 C21,85.7614237 23.2385763,88 26,88 L36,88 C38.7614237,88 41,85.7614237 41,83 L41,78 C41,75.5956863 39.9393598,73.4390983 38.2604467,71.9726034 C36.1434854,73.2591274 33.6582627,74 31,74 C28.3417373,74 25.8565146,73.2591274 23.7395533,71.9726034 L23.7395533,71.9726034 Z M31,72 C37.627417,72 43,66.627417 43,60 C43,53.372583 37.627417,48 31,48 C24.372583,48 19,53.372583 19,60 C19,66.627417 24.372583,72 31,72 Z" fill="#333333"></path>
    </g>
</svg>