<svg width="100px" height="100px" viewBox="0 0 100 100" version="1.1" xmlns="http://www.w3.org/2000/svg" role="img"
     aria-labelledby="icon-teacher-developement-ongoing">
    <title id="icon-teacher-developement-ongoing">Teacher Development: Ongoing Professional Support</title>
    <g stroke="none" stroke-width="1" fill="none" fill-rule="evenodd">
        <g>
            <path d="M84.995716,48.8751139 C85.5479957,48.8727666 85.9976248,49.3185597 86.0006447,49.8708394 C86.0270334,56.1832281 84.3966409,62.4073039 81.1710704,67.9941559 C72.6247967,82.7967361 55.0078673,89.3650511 39.1433941,84.3286266 L44.7811966,91.3755282 C45.1262061,91.8067901 45.0562847,92.4360825 44.6250228,92.7810921 C44.2269349,93.0995624 43.6601109,93.0644821 43.3039035,92.7180016 L43.219459,92.6249183 L35.3968982,82.8479975 C35.3152784,82.7734982 35.2475373,82.6866712 35.1953511,82.5917741 C34.8091909,82.0696618 35.0212917,81.3291158 35.6063198,81.0808339 L35.7203278,81.0402232 L47.7203278,77.5402232 C48.2505211,77.3855835 48.805688,77.6900299 48.9603278,78.2202232 C49.1039218,78.7125456 48.8516712,79.2264014 48.3904003,79.4211107 L48.2803278,79.4602232 L38.9886353,82.1711416 C54.1631193,87.3854379 71.2311146,81.2106644 79.4390196,66.9941559 C82.4863899,61.7159557 84.0255454,55.8401799 84.0000092,49.8794074 C83.9976432,49.3271278 84.4434363,48.8774986 84.995716,48.8751139 Z M50,28 L90,43 L75,48.625 L75,63 C75,67.418278 63.8071187,71 50,71 L49.0935199,70.9948389 C35.706293,70.8421576 25,67.321173 25,63 L25,48.625 L17,45.625 L17,52.1707057 C18.1651924,52.5825421 19,53.6937812 19,55 C19,55.881313 18.6199726,56.6738659 18.0148485,57.2227279 L19,72 L16,70 L13,72 L13.9851515,57.2227279 C13.3800274,56.6738659 13,55.881313 13,55 C13,53.6937812 13.8348076,52.5825421 15,52.1707057 L15,44.875 L10,43 L50,28 Z M50,57 C43.4745311,57 37.3784299,57.8250987 32.9318819,59.247994 C29.0326762,60.4957399 27,62.0335915 27,63 C27,63.9664085 29.0326762,65.5042601 32.9318819,66.752006 C37.3784299,68.1749013 43.4745311,69 50,69 C56.5254689,69 62.6215701,68.1749013 67.0681181,66.752006 C70.9673238,65.5042601 73,63.9664085 73,63 C73,62.0335915 70.9673238,60.4957399 67.0681181,59.247994 C62.6215701,57.8250987 56.5254689,57 50,57 Z M16.1288938,59 L15.8711062,59 L15.2653693,68.0860529 L16,67.5962991 L16.7346307,68.0860529 L16.1288938,59 Z M50,42 C43.4745311,42 37.3784299,42.8250987 32.9318819,44.247994 C29.0326762,45.4957399 27,47.0335915 27,48 L27,59.8594098 C30.7467064,57.0532902 39.3618169,55.0717822 49.4483847,55.0019089 L50,55 C60.323297,55 69.1851716,57.0022698 73,59.8594098 L73,48 C73,47.0335915 70.9673238,45.4957399 67.0681181,44.247994 C62.6215701,42.8250987 56.5254689,42 50,42 Z M16,54 C15.4477153,54 15,54.4477153 15,55 C15,55.5522847 15.4477153,56 16,56 C16.5522847,56 17,55.5522847 17,55 C17,54.4477153 16.5522847,54 16,54 Z M74.878,47.2079632 L74.924,47.3779632 L74.9000504,47.2797444 L74.878,47.2079632 Z M25.075,47.3779632 L25.121,47.2079632 L25.0999496,47.2797444 L25.075,47.3779632 Z M74.811,47.0119632 L74.878,47.2069632 L74.8564825,47.137752 L74.811,47.0119632 Z M50,30.1360009 L15.6960025,43 L25.3669845,46.6266182 L25.3941062,46.5773741 C27.462811,42.8890099 37.4317093,40.0779167 49.4961191,40.0015926 L50,40 C62.1214988,40 72.2281066,42.7605677 74.5151414,46.4242049 L74.6330155,46.6266182 L84.3039975,43 L50,30.1360009 Z M56.6964243,7.28222169 L56.7808688,7.37530495 L64.6040638,17.1528817 C64.6832017,17.2253064 64.749251,17.3093359 64.8006775,17.4010735 C65.1930491,17.9235498 64.9818604,18.6695542 64.3944857,18.9191866 L64.28,18.96 L52.28,22.46 C51.7498066,22.6146397 51.1946397,22.3101934 51.04,21.78 C50.896406,21.2876776 51.1486566,20.7738219 51.6099275,20.5791125 L51.72,20.54 L61.0123639,17.8292018 C45.83763,12.6142911 28.7690656,18.7890236 20.5609804,33.0058441 C20.1342341,33.7449904 19.736648,34.4964858 19.3685047,35.2592122 C19.1284361,35.7565909 18.530617,35.9651819 18.0332384,35.7251134 C17.5358597,35.4850448 17.3272686,34.8872257 17.5673372,34.3898471 C17.9568969,33.5827498 18.3775369,32.7876793 18.8289296,32.0058441 C27.3753829,17.2029528 44.992873,10.6346729 60.8576059,15.6716909 L55.2191312,8.62469505 C54.8741216,8.19343311 54.944043,7.56414074 55.375305,7.21913119 C55.7733929,6.90066084 56.3402168,6.9357411 56.6964243,7.28222169 Z" fill="#333333"></path>
        </g>
    </g>
</svg>