<svg width="100px" height="100px" viewBox="0 0 100 100" version="1.1" xmlns="http://www.w3.org/2000/svg" role="img"
     aria-labelledby="icon-teacher-developement">
    <title id="icon-teacher-developement">Teacher development, face to face</title>
    <g stroke="none" stroke-width="1" fill="none" fill-rule="evenodd">
        <path d="M45.6546409,52.5596491 L54.7590996,45.8511006 C59.4488879,45.5537776 63.7247858,44.8218723 67.0681181,43.752006 C70.9673238,42.5042601 73,40.9664085 73,40 C73,39.0335915 70.9673238,37.4957399 67.0681181,36.247994 C62.6215701,34.8250987 56.5254689,34 50,34 C43.4745311,34 37.3784299,34.8250987 32.9318819,36.247994 C29.0326762,37.4957399 27,39.0335915 27,40 C27,40.9664085 29.0326762,42.5042601 32.9318819,43.752006 C36.5961641,44.9245763 41.380653,45.6911846 46.6025013,45.9246269 L45.6546409,52.5596491 Z M44.3153891,47.7922764 C33.247007,46.9687005 25,43.7925409 25,40 L25,25.625 L17,22.625 L17,29.1707057 C18.1651924,29.5825421 19,30.6937812 19,32 C19,32.881313 18.6199726,33.6738659 18.0148485,34.2227279 L19,49 L16,47 L13,49 L13.9851515,34.2227279 C13.3800274,33.6738659 13,32.881313 13,32 C13,30.6937812 13.8348076,29.5825421 15,29.1707057 L15,21.875 L10,20 L50,5 L90,20 L75,25.625 L75,40 C75,43.8163875 66.6489566,47.0086179 55.4754919,47.8075323 L43,57 L44.3153891,47.7922764 L44.3153891,47.7922764 Z M25,25 C25,20.581722 36.1928813,17 50,17 C63.8071187,17 75,20.581722 75,25 C75,24.5317194 74.8742673,24.072836 74.6330155,23.6266182 L84.3039975,20 L50,7.13600094 L15.6960025,20 L25.3669845,23.6266182 C25.1257327,24.072836 25,24.5317194 25,25 Z M73,25 C73,24.0335915 70.9673238,22.4957399 67.0681181,21.247994 C62.6215701,19.8250987 56.5254689,19 50,19 C43.4745311,19 37.3784299,19.8250987 32.9318819,21.247994 C29.0326762,22.4957399 27,24.0335915 27,25 L27,36.8594098 C30.8148284,34.0022698 39.676703,32 50,32 C60.323297,32 69.1851716,34.0022698 73,36.8594098 L73,25 Z M16,33 C16.5522847,33 17,32.5522847 17,32 C17,31.4477153 16.5522847,31 16,31 C15.4477153,31 15,31.4477153 15,32 C15,32.5522847 15.4477153,33 16,33 Z M16,44.5962991 L16.7346307,45.0860529 L16.1288938,36 L15.8711062,36 L15.2653693,45.0860529 L16,44.5962991 Z M37.9255532,75.7863344 C39.82052,77.6060784 41,80.1652981 41,83 L41,88 C41,91.8659932 37.8659932,95 34,95 L24,95 C20.1340068,95 17,91.8659932 17,88 L17,83 C17,80.1652981 18.17948,77.6060784 20.0744468,75.7863344 C16.974635,73.2183958 15,69.3397983 15,65 C15,57.2680135 21.2680135,51 29,51 C36.7319865,51 43,57.2680135 43,65 C43,69.3397983 41.025365,73.2183958 37.9255532,75.7863344 L37.9255532,75.7863344 Z M21.7395533,76.9726034 C20.0606402,78.4390983 19,80.5956863 19,83 L19,88 C19,90.7614237 21.2385763,93 24,93 L34,93 C36.7614237,93 39,90.7614237 39,88 L39,83 C39,80.5956863 37.9393598,78.4390983 36.2604467,76.9726034 C34.1434854,78.2591274 31.6582627,79 29,79 C26.3417373,79 23.8565146,78.2591274 21.7395533,76.9726034 Z M29,77 C35.627417,77 41,71.627417 41,65 C41,58.372583 35.627417,53 29,53 C22.372583,53 17,58.372583 17,65 C17,71.627417 22.372583,77 29,77 Z M79.9255532,75.7863344 C81.82052,77.6060784 83,80.1652981 83,83 L83,88 C83,91.8659932 79.8659932,95 76,95 L66,95 C62.1340068,95 59,91.8659932 59,88 L59,83 C59,80.1652981 60.17948,77.6060784 62.0744468,75.7863344 C58.974635,73.2183958 57,69.3397983 57,65 C57,57.2680135 63.2680135,51 71,51 C78.7319865,51 85,57.2680135 85,65 C85,69.3397983 83.025365,73.2183958 79.9255532,75.7863344 L79.9255532,75.7863344 Z M63.7395533,76.9726034 C62.0606402,78.4390983 61,80.5956863 61,83 L61,88 C61,90.7614237 63.2385763,93 66,93 L76,93 C78.7614237,93 81,90.7614237 81,88 L81,83 C81,80.5956863 79.9393598,78.4390983 78.2604467,76.9726034 C76.1434854,78.2591274 73.6582627,79 71,79 C68.3417373,79 65.8565146,78.2591274 63.7395533,76.9726034 L63.7395533,76.9726034 Z M71,77 C77.627417,77 83,71.627417 83,65 C83,58.372583 77.627417,53 71,53 C64.372583,53 59,58.372583 59,65 C59,71.627417 64.372583,77 71,77 Z" fill="#333333"></path>
    </g>
</svg>