<svg width="100px" height="100px" viewBox="0 0 100 100" version="1.1" xmlns="http://www.w3.org/2000/svg" role="img"
     aria-labelledby="icon-vaccines-title">
    <title id="icon-vaccines-title">Provision of Vaccines</title>
    <g stroke="none" stroke-width="1" fill="none" fill-rule="evenodd">
        <path d="M25.0002633,77.2398133 L25.0002634,56.2724453 C24.9999487,56.2580346 24.999947,56.2435795 25.0002634,56.2290866 L25.0002635,51.1552947 C19.4024401,50.6618266 13.4997938,51.344183 7.28761117,53.2078378 C6.75861832,53.3665357 6.20113486,53.0663523 6.042437,52.5373594 C5.88373915,52.0083666 6.18392255,51.4508831 6.7129154,51.2921852 C13.5040456,49.2548462 19.9718072,48.5740292 26.1106948,49.2561278 C26.6171275,49.3123981 27.0002633,49.7404623 27.0002633,50.2500115 L27.0002633,52.5727805 C28.0216645,51.700117 29.3653691,51.2500115 31.0002633,51.2500115 L62.0002633,51.2500115 C65.7874375,51.2500115 68.9263706,53.3116917 69.7743527,56.1826545 C75.0915042,52.7234038 79.442485,50.748113 82.8588419,50.260062 C87.9457425,49.5333619 91.4057486,51.0711424 92.92874,54.8786208 C93.0950077,55.2942901 92.9647454,55.7698194 92.6098549,56.0427271 C83.8307177,62.79381 74.1608772,70.129551 63.6002633,78.0500115 C60.6702288,80.2475374 48.7281997,80.2834332 27.0002633,78.3441486 L27.0002633,79.2500115 C27.0002633,79.6287836 26.7862609,79.9750467 26.4474769,80.1444387 C23.6716138,81.5323703 19.906087,82.5593321 15.1416846,83.239961 C14.5949506,83.3180659 14.0884187,82.9381669 14.0103138,82.3914329 C13.9322089,81.8446989 14.3121079,81.3381669 14.8588419,81.260062 C19.1074574,80.653117 22.4904003,79.7691792 25.0002633,78.6200178 L25.0002633,77.2625257 C25.0001779,77.2549716 25.0001776,77.2474004 25.0002633,77.2398133 L25.0002633,77.2398133 Z M27.0002633,76.3361236 C48.0191908,78.215641 60.078898,78.1910355 62.4002633,76.4500115 C72.7013485,68.7241976 82.1537431,61.5555472 90.7573817,54.9441174 C89.4939449,52.5864915 87.0350524,51.6837656 83.1416846,52.239961 C78.6911936,52.8757454 72.1499217,56.473445 63.609974,63.0426355 C63.4608428,63.1573518 63.2823736,63.2276688 63.0950724,63.245507 L42.0950724,65.245507 C41.5452754,65.2978686 41.0571294,64.8946176 41.0047678,64.3448206 C40.9524062,63.7950236 41.3556572,63.3068777 41.9054542,63.254516 L62.6192946,61.2817693 C64.4981364,59.842058 66.284922,58.5417105 67.9805606,57.3808214 C67.73664,55.103696 65.2541669,53.2500115 62.0002633,53.2500115 L31.0002633,53.2500115 C28.8359465,53.2500115 27.5716705,54.2311496 27.0002633,56.3768516 L27.0002633,76.3361236 Z M17.0002633,55.2500115 C17.0002633,54.6977268 17.4479785,54.2500115 18.0002633,54.2500115 C18.552548,54.2500115 19.0002633,54.6977268 19.0002633,55.2500115 L19.0002633,61.2500115 C19.0002633,61.8022963 18.552548,62.2500115 18.0002633,62.2500115 C17.4479785,62.2500115 17.0002633,61.8022963 17.0002633,61.2500115 L17.0002633,55.2500115 Z M57,38.4472222 L57,42 L59.1040764,42 L76,25.1040764 L76,22 L73.4472222,22 L57,38.4472222 L57,38.4472222 Z M57,35.618795 L70.618795,22 L64.9619408,22 L57,29.9619408 L57,35.618795 Z M57,27.1335137 L62.1335137,22 L57,22 L57,27.1335137 Z M76,27.9325035 L61.9325035,42 L67.5893578,42 L76,33.5893578 L76,27.9325035 Z M76,36.4177849 L70.4177849,42 L76,42 L76,36.4177849 Z M85,31 L94,31 C94.5522847,31 95,31.4477153 95,32 C95,32.5522847 94.5522847,33 94,33 L85,33 L85,35 C85,36.1045695 84.1045695,37 83,37 L78,37 L78,42 C78,43.1045695 77.1045695,44 76,44 L29,44 C27.8954305,44 27,43.1045695 27,42 L27,37 L17,37 L17,44 L10,44 C8.8954305,44 8,43.1045695 8,42 L8,22 C8,20.8954305 8.8954305,20 10,20 L17,20 L17,27 L27,27 L27,22 C27,20.8954305 27.8954305,20 29,20 L76,20 C77.1045695,20 78,20.8954305 78,22 L78,27 L83,27 C84.1045695,27 85,27.8954305 85,29 L85,31 Z M48,42 L48,37 C48,36.4477153 48.4477153,36 49,36 C49.5522847,36 50,36.4477153 50,37 L50,42 L55,42 L55,22 L36,22 L36,42 L41,42 L41,37 C41,36.4477153 41.4477153,36 42,36 C42.5522847,36 43,36.4477153 43,37 L43,42 L48,42 Z M34,22 L29,22 L29,42 L34,42 L34,22 Z M15,42 L15,22 L10,22 L10,42 L15,42 Z M17,29 L17,35 L27,35 L27,29 L17,29 Z M78,29 L78,35 L83,35 L83,29 L78,29 Z" fill="#333333"></path>
    </g>
</svg>