<svg width="100px" height="100px" viewBox="0 0 100 100" version="1.1" xmlns="http://www.w3.org/2000/svg" role="img"
     aria-labelledby="icon-villages-title">
    <title id="icon-villages-title">Villages</title>
    <g stroke="none" stroke-width="1" fill="none" fill-rule="evenodd">
        <path d="M20,42 L50,23 L80,42 C80,44.0264846 77.7674631,45.8965382 74,47.4008774 L74,70 C74,73.3659006 65.8549546,76.1769411 55,76.8478735 L55,62 C55,60.8954305 54.1045695,60 53,60 L47,60 C45.8954305,60 45,60.8954305 45,62 L45,76.8478735 C34.1450454,76.1769411 26,73.3659006 26,70 L26,47.4008774 C22.2325369,45.8965382 20,44.0264846 20,42 Z M28,48.1188822 L28,70 C28,70.6359452 29.9188968,71.9591732 33.5894373,73.0297475 C36.218084,73.7964361 39.4457902,74.3650633 43,74.6894072 L43,62 C43,59.790861 44.790861,58 47,58 L53,58 C55.209139,58 57,59.790861 57,62 L57,74.6894072 C60.5542098,74.3650633 63.781916,73.7964361 66.4105627,73.0297475 C70.0811032,71.9591732 72,70.6359452 72,70 L72,48.1188822 C66.5210199,49.8909864 58.6922166,51 50,51 C41.3077834,51 33.4789801,49.8909864 28,48.1188822 Z M29.2002597,46.3995421 C29.2188825,46.374799 29.2388145,46.3506972 29.2600599,46.3273272 L42.2493285,32.0391318 C42.9321016,32.2425305 43.6805085,32.4156065 44.4819551,32.5564563 L31.3572229,46.9936617 C34.4806562,47.7704309 38.1208956,48.3433994 42.053474,48.6738034 L46.6693103,32.8480788 C47.329324,32.9106375 48.0128575,32.9543014 48.7146635,32.9782774 L44.0936644,48.8217216 C46.0128308,48.9391741 47.9897147,49 50,49 C52.0102852,49 53.987169,48.9391741 55.9063353,48.8217216 L51.2853255,32.9782778 C51.9871354,32.9543019 52.6706726,32.9106378 53.3306897,32.8480788 L57.946526,48.6738034 C61.8791044,48.3433994 65.5193438,47.7704309 68.6427771,46.9936617 L55.5180449,32.5564563 C56.3194915,32.4156065 57.0678984,32.2425305 57.7506715,32.0391318 L70.7399401,46.3273272 C70.7611855,46.3506972 70.7811175,46.374799 70.7997403,46.3995421 C74.451926,45.2858556 76.7771198,43.9573695 77.631371,42.8672391 L59.4988851,31.3833314 C57.3061968,32.4203647 53.8703435,33 50,33 C46.1296565,33 42.6938032,32.4203647 40.5011149,31.3833314 L22.368629,42.8672391 C23.2228802,43.9573695 25.548074,45.2858556 29.2002597,46.3995421 L29.2002597,46.3995421 Z M42.6089713,30.0483556 C44.5458103,30.6507993 47.1809181,31 50,31 C52.8190819,31 55.4541897,30.6507993 57.3910287,30.0483556 L50,25.3673708 L42.6089713,30.0483556 L42.6089713,30.0483556 Z M76,69.2954706 C77.9331673,69.7431308 80.3897294,70 83,70 C86.0473195,70 88.8851492,69.6499123 90.9252814,69.0548737 C91.8306175,68.7908174 92.5184994,68.4938426 92.9216013,68.2158726 C92.9510959,68.1955338 92.9772068,68.1766195 93,68.159421 L93,57.8541598 C90.3462175,58.5667196 86.8417722,59 83,59 C80.4718166,59 78.0897179,58.8123611 76,58.480972 L76,56.4548105 C78.0863724,56.8059968 80.4877431,57 83,57 C86.8488986,57 90.437528,56.5446413 93.0319059,55.7663279 C93.8369069,55.5248277 94.5144315,55.2605399 95.0390323,54.9920912 L83,47.3673708 L76,51.8007041 L76,49.4333333 L83,45 L98,54.5 C98,55.5132423 96.8837315,56.4482691 95,57.2004387 L95,68.5 C95,70.4329966 89.627417,72 83,72 C80.387634,72 77.9702371,71.7565278 76,71.343139 L76,69.2954706 L76,69.2954706 Z M24,69.2954706 L24,71.343139 C22.0297629,71.7565278 19.612366,72 17,72 C10.372583,72 5,70.4329966 5,68.5 L5,57.2004387 C3.11626845,56.4482691 2,55.5132423 2,54.5 L17,45 L24,49.4333333 L24,51.8007041 L17,47.3673708 L4.96096771,54.9920912 C5.48556848,55.2605399 6.16309311,55.5248277 6.96809405,55.7663279 C9.562472,56.5446413 13.1511014,57 17,57 C19.5122569,57 21.9136276,56.8059968 24,56.4548105 L24,58.480972 C21.9102821,58.8123611 19.5281834,59 17,59 C13.1582278,59 9.65378246,58.5667196 7,57.8541598 L7,68.159421 C7.02279318,68.1766195 7.04890409,68.1955338 7.07839867,68.2158726 C7.4815006,68.4938426 8.16938254,68.7908174 9.07471863,69.0548737 C11.1148508,69.6499123 13.9526805,70 17,70 C19.6102706,70 22.0668327,69.7431308 24,69.2954706 L24,69.2954706 Z" fill="#1B77D4"></path>
    </g>
</svg>