<svg width="568" height="609" viewBox="0 0 568 609" fill="none" xmlns="http://www.w3.org/2000/svg">
<path d="M426.721 325.152H418.659C388.549 278.772 342.404 245.116 289.039 230.625C321.841 213.948 345.361 183.349 353.033 147.36C360.705 111.365 351.716 73.8333 328.564 45.2293C305.413 16.62 270.585 0 233.783 0C196.98 0 162.152 16.62 139.001 45.2293C115.851 73.8333 106.861 111.365 114.532 147.36C122.204 183.349 145.725 213.948 178.527 230.625C135.516 242.146 96.9961 266.401 68.0214 300.213C24.1934 350.464 8.92793e-05 420.724 8.92793e-05 497.853V497.859C-0.0155361 501.593 2.02088 505.03 5.30221 506.817C10.0053 509.353 120.662 569.014 233.702 569.014C262.333 568.889 290.874 565.863 318.896 559.978C350.489 596.399 398.417 614.281 446.146 607.457C493.876 600.628 534.87 570.03 554.99 526.211C575.105 482.394 571.594 431.362 545.662 390.718C519.73 350.073 474.927 325.379 426.714 325.155L426.721 325.152ZM132.241 121.979C132.22 95.0253 142.913 69.1667 161.96 50.0933C181.012 31.02 206.856 20.296 233.815 20.2867C260.768 20.271 286.627 30.9689 305.695 50.0213C324.763 69.0733 335.476 94.9227 335.487 121.881C335.492 148.84 324.789 174.693 305.732 193.756C286.669 212.819 260.82 223.527 233.863 223.527C206.931 223.506 181.108 212.803 162.056 193.767C143.004 174.731 132.285 148.912 132.244 121.98L132.241 121.979ZM233.715 548.699C139.709 548.699 43.6879 503.527 20.2346 491.505C21.5054 421.693 43.6826 358.599 83.1773 313.345C122.871 266.648 181.984 241.001 243.204 243.929C304.423 246.851 360.824 278.012 395.884 328.284C350.832 338.097 313.363 369.191 295.411 411.659C277.457 454.128 281.26 502.675 305.614 541.825C281.906 546.315 257.838 548.612 233.712 548.695L233.715 548.699ZM426.728 589.319C394.389 589.319 363.379 576.475 340.509 553.605C317.645 530.741 304.796 499.725 304.796 467.387C304.796 435.053 317.645 404.037 340.509 381.173C363.379 358.304 394.389 345.46 426.728 345.46C459.067 345.46 490.083 358.304 512.947 381.173C535.811 404.037 548.66 435.053 548.66 467.387C548.681 499.736 535.837 530.756 512.967 553.632C490.097 576.501 459.071 589.34 426.727 589.32L426.728 589.319Z" fill="black"/>
<path d="M498.108 457.245H431.509L383.723 399.975C382.014 397.845 379.53 396.49 376.816 396.22C374.103 395.944 371.395 396.772 369.296 398.517C367.202 400.261 365.895 402.777 365.671 405.496C365.452 408.215 366.332 410.907 368.113 412.97L418.963 473.896C420.817 476.126 423.535 477.454 426.431 477.553H498.109C503.718 477.553 508.265 473.006 508.265 467.396C508.265 461.792 503.718 457.245 498.109 457.245L498.108 457.245Z" fill="black"/>
</svg>
