<svg width="100px" height="100px" viewBox="0 0 100 100" version="1.1" xmlns="http://www.w3.org/2000/svg" role="img"
     aria-labelledby="icon-water-title">
    <title id="icon-water-title">Access to Clean Water</title>
    <g stroke="none" stroke-width="1" fill="none" fill-rule="evenodd">
        <path d="M56,46 L56,42 C56,35.9248678 51.0751322,31 45,31 L16,31 L16,40 L39,40 L39,40.0164023 C39.1652618,40.0055247 39.3319857,40 39.5,40 C43.1284369,40 46.1550673,42.5766395 46.8499728,46 L56,46 Z M58,46 C59.1045695,46 60,46.8954305 60,48 L60,51 C60,52.1045695 59.1045695,53 58,53 L45,53 C43.8954305,53 43,52.1045695 43,51 L43,48 C43,46.8954305 43.8954305,46 45,46 L44.7929675,46 C44.1400386,43.6914952 42.0175542,42 39.5,42 C39.3314552,42 39.164681,42.0075813 39,42.0224215 L39,42 L16,42 C16,43.1045695 15.1045695,44 14,44 L9,44 C7.8954305,44 7,43.1045695 7,42 L7,29 C7,27.8954305 7.8954305,27 9,27 L14,27 C15.1045695,27 16,27.8954305 16,29 L24,29 L24,27 C24,25.8954305 24.8954305,25 26,25 L27,25 L27,21 C27,19.8954305 27.8954305,19 29,19 L30,19 L30,15.0003662 C29.6711236,14.7533375 29.3736999,14.4666982 29.1148118,14.1475314 L20.328798,15.611867 C20.2201351,15.6299775 20.1101617,15.6390792 20,15.6390792 C18.8954305,15.6390792 18,14.7436487 18,13.6390792 L18,8.36092084 C18,8.25075912 18.0091017,8.14078572 18.0272122,8.03212287 C18.2088023,6.94258223 19.2392573,6.20654289 20.328798,6.388133 L29.1148118,7.85246864 C30.0315229,6.72231276 31.4314089,6 33,6 C34.5685911,6 35.9684771,6.72231276 36.8851882,7.85246864 L45.671202,6.388133 C46.7607427,6.20654289 47.7911977,6.94258223 47.9727878,8.03212287 C47.9908983,8.14078572 48,8.25075912 48,8.36092084 L48,13.6390792 C48,14.7436487 47.1045695,15.6390792 46,15.6390792 C45.8898383,15.6390792 45.7798649,15.6299775 45.671202,15.611867 L36.8851882,14.1475314 C36.6263001,14.4666982 36.3288764,14.7533375 36,15.0003662 L36,19 L37,19 C38.1045695,19 39,19.8954305 39,21 L39,25 L40,25 C41.1045695,25 42,25.8954305 42,27 L42,29 L45,29 C52.1797017,29 58,34.8202983 58,42 L58,46 Z M26,29 L40,29 L40,27 L26,27 L26,29 Z M14,42 L14,29 L9,29 L9,42 L14,42 Z M34,19 L34,16 L32,16 L32,19 L34,19 Z M37,21 L29,21 L29,25 L37,25 L37,21 Z M33,14 C34.6568542,14 36,12.6568542 36,11 C36,9.34314575 34.6568542,8 33,8 C31.3431458,8 30,9.34314575 30,11 C30,12.6568542 31.3431458,14 33,14 Z M38,9.69425418 L38,12.3057458 L46,13.6390792 L46,8.36092084 L38,9.69425418 Z M28,9.69425418 L20,8.36092084 L20,13.6390792 L28,12.3057458 L28,9.69425418 Z M45,48 L45,51 L58,51 L58,48 L45,48 Z M51.5,55 C61.8333333,64.8245614 67,73.245614 67,80.2631579 C67,90.7894737 58.1428571,95 51.5,95 C44.8571429,95 36,90.7894737 36,80.2631579 C36,73.245614 41.1666667,64.8245614 51.5,55 Z M65,80.2631579 C65,74.2248911 60.5473076,66.6825879 51.5,57.7818934 C42.4526924,66.6825879 38,74.2248911 38,80.2631579 C38,88.2196949 44.1451581,93 51.5,93 C58.8548419,93 65,88.2196949 65,80.2631579 Z M69,51.5 C73,48.2777778 75.5,43.4444444 76.5,37 C77.5,43.4444444 80,48.2777778 84,51.5 C80,54.7222222 77.5,59.5555556 76.5,66 C75.5,59.5555556 73,54.7222222 69,51.5 Z M76.5,58.4463007 C77.6259559,55.7463438 79.1340274,53.4271484 81.0265564,51.5 C79.1340274,49.5728516 77.6259559,47.2536562 76.5,44.5536993 C75.3740441,47.2536562 73.8659726,49.5728516 71.9734436,51.5 C73.8659726,53.4271484 75.3740441,55.7463438 76.5,58.4463007 Z M78,83.5 C80.9333333,81.1666667 82.7666667,77.6666667 83.5,73 C84.2333333,77.6666667 86.0666667,81.1666667 89,83.5 C86.0666667,85.8333333 84.2333333,89.3333333 83.5,94 C82.7666667,89.3333333 80.9333333,85.8333333 78,83.5 Z M83.5,87.246581 C84.1997978,85.8453551 85.0556489,84.5949903 86.0683439,83.5 C85.0556489,82.4050097 84.1997978,81.1546449 83.5,79.753419 C82.8002022,81.1546449 81.9443511,82.4050097 80.9316561,83.5 C81.9443511,84.5949903 82.8002022,85.8453551 83.5,87.246581 Z M19,62.5 C21.9333333,60.1666667 23.7666667,56.6666667 24.5,52 C25.2333333,56.6666667 27.0666667,60.1666667 30,62.5 C27.0666667,64.8333333 25.2333333,68.3333333 24.5,73 C23.7666667,68.3333333 21.9333333,64.8333333 19,62.5 Z M24.5,66.246581 C25.1997978,64.8453551 26.0556489,63.5949903 27.0683439,62.5 C26.0556489,61.4050097 25.1997978,60.1546449 24.5,58.753419 C23.8002022,60.1546449 22.9443511,61.4050097 21.9316561,62.5 C22.9443511,63.5949903 23.8002022,64.8453551 24.5,66.246581 Z M43,81 C43,81.5522847 42.5522847,82 42,82 C41.4477153,82 41,81.5522847 41,81 C41,76.7685873 42.740877,72.2423072 46.1862665,67.4187618 C46.5072755,66.9693492 47.1318256,66.8652575 47.5812382,67.1862665 C48.0306508,67.5072755 48.1347425,68.1318256 47.8137335,68.5812382 C44.5924563,73.0910262 43,77.2314127 43,81 Z" fill="#333333"></path>
    </g>
</svg>